<?plantuml 1.2026.1?><svg xmlns="http://www.w3.org/2000/svg" xmlns:xlink="http://www.w3.org/1999/xlink" contentStyleType="text/css" data-diagram-type="DESCRIPTION" height="608.6455px" preserveAspectRatio="none" style="width:960px;height:608px;background:#FFFFFF;" version="1.1" viewBox="0 0 960 608" width="960.9222px" zoomAndPan="magnify"><title>ETR Study API &#8212; C4 Level 3 (components)</title><defs/><g><g class="title" data-source-line="39"><text fill="#000000" font-family="'Arial'" font-size="12.9107" font-weight="bold" lengthAdjust="spacing" textLength="305.4242" x="321.2937" y="26.739">ETR Study API &#8212; C4 Level 3 (components)</text></g><!--cluster Pres--><g class="cluster" data-qualified-name="Pres" data-source-line="45" id="ent0003"><rect fill="#F8FAFC" height="202.2179" rx="3.6888" ry="3.6888" style="stroke:#2563EB;stroke-width:0.9222;" width="378.098" x="6.4553" y="142.4202"/><text fill="#000000" font-family="'Arial'" font-size="9.2219" font-weight="bold" lengthAdjust="spacing" textLength="66.9714" x="162.0186" y="158.3577">Presentation</text></g><!--cluster AppPkg--><g class="cluster" data-qualified-name="AppPkg" data-source-line="54" id="ent0008"><rect fill="#F8FAFC" height="209.5954" rx="3.6888" ry="3.6888" style="stroke:#2563EB;stroke-width:0.9222;" width="371.6427" x="406.6859" y="250.9066"/><text fill="#000000" font-family="'Arial'" font-size="9.2219" font-weight="bold" lengthAdjust="spacing" textLength="58.8211" x="563.0966" y="266.8441">Application</text></g><!--cluster PerPkg--><g class="cluster" data-qualified-name="PerPkg" data-source-line="61" id="ent0013"><rect fill="#F8FAFC" height="163.4859" rx="3.6888" ry="3.6888" style="stroke:#2563EB;stroke-width:0.9222;" width="154.928" x="800.4611" y="366.7706"/><text fill="#000000" font-family="'Arial'" font-size="9.2219" font-weight="bold" lengthAdjust="spacing" textLength="60.6493" x="847.6004" y="382.7081">Persistence</text></g><!--entity UR--><g class="entity" data-qualified-name="Pres.UR" data-source-line="47" id="ent0004"><rect fill="#F1F1F1" height="40.245" rx="3.6888" ry="3.6888" style="stroke:#181818;stroke-width:0.4611;" width="81.8201" x="280.936" y="188.5297"/><text fill="#000000" font-family="'Arial'" font-size="9.2219" lengthAdjust="spacing" textLength="52.31" x="295.6911" y="211.8447">User router</text></g><!--entity CR--><g class="entity" data-qualified-name="Pres.CR" data-source-line="48" id="ent0005"><rect fill="#F1F1F1" height="40.245" rx="3.6888" ry="3.6888" style="stroke:#181818;stroke-width:0.4611;" width="114.3939" x="28.5695" y="188.5297"/><text fill="#000000" font-family="'Arial'" font-size="9.2219" lengthAdjust="spacing" textLength="84.8838" x="43.3245" y="211.8447">Conspectus router</text></g><!--entity ER--><g class="entity" data-qualified-name="Pres.ER" data-source-line="49" id="ent0006"><rect fill="#F1F1F1" height="40.245" rx="3.6888" ry="3.6888" style="stroke:#181818;stroke-width:0.4611;" width="101.0294" x="161.5862" y="188.5297"/><text fill="#000000" font-family="'Arial'" font-size="9.2219" lengthAdjust="spacing" textLength="71.5193" x="176.3412" y="211.8447">Error-log router</text></g><!--entity Sch--><g class="entity" data-qualified-name="Pres.Sch" data-source-line="51" id="ent0007"><rect fill="#F1F1F1" height="40.245" rx="3.6888" ry="3.6888" style="stroke:#181818;stroke-width:0.4611;" width="112.8899" x="155.6565" y="289.6386"/><text fill="#000000" font-family="'Arial'" font-size="9.2219" lengthAdjust="spacing" textLength="83.3799" x="170.4115" y="312.9536">Pydantic schemas</text></g><!--entity USvc--><g class="entity" data-qualified-name="AppPkg.USvc" data-source-line="55" id="ent0009"><rect fill="#F1F1F1" height="40.245" rx="3.6888" ry="3.6888" style="stroke:#181818;stroke-width:0.4611;" width="84.6119" x="678.8427" y="289.6386"/><text fill="#000000" font-family="'Arial'" font-size="9.2219" lengthAdjust="spacing" textLength="55.1018" x="693.5977" y="312.9536">UserService</text></g><!--entity CSvc--><g class="entity" data-qualified-name="AppPkg.CSvc" data-source-line="56" id="ent0010"><rect fill="#F1F1F1" height="40.245" rx="3.6888" ry="3.6888" style="stroke:#181818;stroke-width:0.4611;" width="117.1857" x="421.8651" y="289.6386"/><text fill="#000000" font-family="'Arial'" font-size="9.2219" lengthAdjust="spacing" textLength="87.6756" x="436.6202" y="312.9536">ConspectusService</text></g><!--entity ESvc--><g class="entity" data-qualified-name="AppPkg.ESvc" data-source-line="57" id="ent0011"><rect fill="#F1F1F1" height="40.245" rx="3.6888" ry="3.6888" style="stroke:#181818;stroke-width:0.4611;" width="103.0692" x="557.1135" y="289.6386"/><text fill="#000000" font-family="'Arial'" font-size="9.2219" lengthAdjust="spacing" textLength="73.5591" x="571.8686" y="312.9536">ErrorLogService</text></g><!--entity Pol--><g class="entity" data-qualified-name="AppPkg.Pol" data-source-line="58" id="ent0012"><rect fill="#F1F1F1" height="40.245" rx="3.6888" ry="3.6888" style="stroke:#181818;stroke-width:0.4611;" width="98.7419" x="431.087" y="405.5026"/><text fill="#000000" font-family="'Arial'" font-size="9.2219" lengthAdjust="spacing" textLength="69.2318" x="445.8421" y="428.8176">SchedulePolicy</text></g><!--entity Repo--><g class="entity" data-qualified-name="PerPkg.Repo" data-source-line="62" id="ent0014"><rect fill="#F1F1F1" height="40.245" rx="3.6888" ry="3.6888" style="stroke:#181818;stroke-width:0.4611;" width="86.5436" x="815.2899" y="405.5026"/><text fill="#000000" font-family="'Arial'" font-size="9.2219" lengthAdjust="spacing" textLength="57.0335" x="830.045" y="428.8176">Repositories</text></g><!--entity Sess--><g class="entity" data-qualified-name="PerPkg.Sess" data-source-line="63" id="ent0015"><rect fill="#F1F1F1" height="40.245" rx="3.6888" ry="3.6888" style="stroke:#181818;stroke-width:0.4611;" width="124.728" x="815.5573" y="475.2571"/><text fill="#000000" font-family="'Arial'" font-size="9.2219" lengthAdjust="spacing" textLength="95.2179" x="830.3124" y="498.5721">SQLAlchemy session</text></g><!--entity Client--><g class="entity" data-qualified-name="Client" data-source-line="43" id="ent0002"><ellipse cx="212.1027" cy="58.3718" fill="#ECFDF5" rx="7.3775" ry="7.3775" style="stroke:#047857;stroke-width:0.4611;"/><path d="M212.1027,65.7493 L212.1027,90.6484 M200.1142,73.1268 L224.0911,73.1268 M212.1027,90.6484 L200.1142,104.4813 M212.1027,90.6484 L224.0911,104.4813" fill="none" style="stroke:#047857;stroke-width:0.4611;"/><text fill="#000000" font-family="'Arial'" font-size="9.2219" lengthAdjust="spacing" textLength="46.1996" x="189.0029" y="119.9577">Integrator</text></g><!--entity Db--><g class="entity" data-qualified-name="Db" data-source-line="66" id="ent0016"><path d="M841.1666,554.2334 C841.1666,545.0115 877.9227,545.0115 877.9227,545.0115 C877.9227,545.0115 914.6788,545.0115 914.6788,554.2334 L914.6788,584.3343 C914.6788,593.5562 877.9227,593.5562 877.9227,593.5562 C877.9227,593.5562 841.1666,593.5562 841.1666,584.3343 L841.1666,554.2334" fill="#FFF7ED" style="stroke:#C2410C;stroke-width:0.4611;"/><path d="M841.1666,554.2334 C841.1666,563.4553 877.9227,563.4553 877.9227,563.4553 C877.9227,563.4553 914.6788,563.4553 914.6788,554.2334" fill="none" style="stroke:#C2410C;stroke-width:0.4611;"/><text fill="#000000" font-family="'Arial'" font-size="9.2219" lengthAdjust="spacing" textLength="44.0022" x="855.9216" y="581.2372">Database</text></g><!--link Client to UR--><g class="link" data-entity-1="ent0002" data-entity-2="ent0004" data-link-type="dependency" data-source-line="68" id="lnk17"><path d="M240.9406,89.1176 C273.4478,89.1176 321.8444,89.1176 321.8444,89.1176 C321.8444,89.1176 321.8444,148.396 321.8444,182.5723" fill="none" id="Client-to-UR" style="stroke:#64748B;stroke-width:1.0144;"/><polygon fill="#64748B" points="321.8444,188.1055,325.5331,179.8058,321.8444,183.4945,318.1556,179.8058,321.8444,188.1055" style="stroke:#64748B;stroke-width:1.0144;"/></g><!--link Client to CR--><g class="link" data-entity-1="ent0002" data-entity-2="ent0005" data-link-type="dependency" data-source-line="69" id="lnk18"><path d="M183.1193,89.1176 C145.8167,89.1176 85.7637,89.1176 85.7637,89.1176 C85.7637,89.1176 85.7637,148.396 85.7637,182.5723" fill="none" id="Client-to-CR" style="stroke:#64748B;stroke-width:1.0144;"/><polygon fill="#64748B" points="85.7637,188.1055,89.4524,179.8058,85.7637,183.4945,82.0749,179.8058,85.7637,188.1055" style="stroke:#64748B;stroke-width:1.0144;"/></g><!--link Client to ER--><g class="link" data-entity-1="ent0002" data-entity-2="ent0006" data-link-type="dependency" data-source-line="70" id="lnk19"><path d="M212.1037,127.9141 C212.1037,147.9533 212.1037,166.0651 212.1037,182.5723" fill="none" id="Client-to-ER" style="stroke:#64748B;stroke-width:1.0144;"/><polygon fill="#64748B" points="212.1037,188.1055,215.7925,179.8058,212.1037,183.4945,208.415,179.8058,212.1037,188.1055" style="stroke:#64748B;stroke-width:1.0144;"/></g><!--link UR to Sch--><g class="link" data-entity-1="ent0004" data-entity-2="ent0007" data-link-type="dependency" data-source-line="72" id="lnk20"><path d="M321.8444,229.0046 C321.8444,258.7084 321.8444,310.4432 321.8444,310.4432 C321.8444,310.4432 301.215,310.4432 274.4346,310.4432" fill="none" id="UR-to-Sch" style="stroke:#64748B;stroke-width:1.0144;"/><polygon fill="#64748B" points="268.9014,310.4432,277.2012,314.132,273.5124,310.4432,277.2012,306.7545,268.9014,310.4432" style="stroke:#64748B;stroke-width:1.0144;"/></g><!--link CR to Sch--><g class="link" data-entity-1="ent0005" data-entity-2="ent0007" data-link-type="dependency" data-source-line="73" id="lnk21"><path d="M104.8254,229.0046 C104.8254,258.7084 104.8254,310.4432 104.8254,310.4432 C104.8254,310.4432 124.0622,310.4432 149.7914,310.4432" fill="none" id="CR-to-Sch" style="stroke:#64748B;stroke-width:1.0144;"/><polygon fill="#64748B" points="155.3245,310.4432,147.0248,306.7545,150.7135,310.4432,147.0248,314.132,155.3245,310.4432" style="stroke:#64748B;stroke-width:1.0144;"/></g><!--link ER to Sch--><g class="link" data-entity-1="ent0006" data-entity-2="ent0007" data-link-type="dependency" data-source-line="74" id="lnk22"><path d="M195.2646,229.1061 C195.2646,246.6553 195.2646,266.2611 195.2646,283.7919" fill="none" id="ER-to-Sch" style="stroke:#64748B;stroke-width:1.0144;"/><polygon fill="#64748B" points="195.2646,289.3251,198.9533,281.0254,195.2646,284.7141,191.5758,281.0254,195.2646,289.3251" style="stroke:#64748B;stroke-width:1.0144;"/></g><!--link UR to USvc--><g class="link" data-entity-1="ent0004" data-entity-2="ent0009" data-link-type="dependency" data-source-line="76" id="lnk23"><path d="M363.0755,209.0023 C465.0974,209.0023 721.1527,209.0023 721.1527,209.0023 C721.1527,209.0023 721.1527,254.3925 721.1527,283.838" fill="none" id="UR-to-USvc" style="stroke:#64748B;stroke-width:1.0144;"/><polygon fill="#64748B" points="721.1527,289.3712,724.8415,281.0715,721.1527,284.7602,717.464,281.0715,721.1527,289.3712" style="stroke:#64748B;stroke-width:1.0144;"/></g><!--link CR to CSvc--><g class="link" data-entity-1="ent0005" data-entity-2="ent0010" data-link-type="dependency" data-source-line="77" id="lnk24"><path d="M66.702,229.0323 C66.702,246.8398 66.702,269.8669 66.702,269.8669 C66.702,269.8669 480.4611,269.8669 480.4611,269.8669 C480.4611,269.8669 480.4611,273.9983 480.4611,283.8104" fill="none" id="CR-to-CSvc" style="stroke:#64748B;stroke-width:1.0144;"/><polygon fill="#64748B" points="480.4611,289.3435,484.1499,281.0438,480.4611,284.7326,476.7723,281.0438,480.4611,289.3435" style="stroke:#64748B;stroke-width:1.0144;"/></g><!--link ER to ESvc--><g class="link" data-entity-1="ent0006" data-entity-2="ent0011" data-link-type="dependency" data-source-line="78" id="lnk25"><path d="M228.9429,229.1153 C228.9429,239.3424 228.9429,249.5787 228.9429,249.5787 C228.9429,249.5787 608.6455,249.5787 608.6455,249.5787 C608.6455,249.5787 608.6455,266.3902 608.6455,283.8473" fill="none" id="ER-to-ESvc" style="stroke:#64748B;stroke-width:1.0144;"/><polygon fill="#64748B" points="608.6455,289.3804,612.3343,281.0807,608.6455,284.7695,604.9568,281.0807,608.6455,289.3804" style="stroke:#64748B;stroke-width:1.0144;"/></g><!--link CSvc to Pol--><g class="link" data-entity-1="ent0010" data-entity-2="ent0012" data-link-type="dependency" data-source-line="80" id="lnk26"><path d="M480.4611,330.2058 C480.4611,351.3885 480.4611,378.7406 480.4611,399.8496" fill="none" id="CSvc-to-Pol" style="stroke:#64748B;stroke-width:1.0144;"/><polygon fill="#64748B" points="480.4611,405.3827,484.1499,397.083,480.4611,400.7718,476.7723,397.083,480.4611,405.3827" style="stroke:#64748B;stroke-width:1.0144;"/></g><!--link USvc to Repo--><g class="link" data-entity-1="ent0009" data-entity-2="ent0014" data-link-type="dependency" data-source-line="81" id="lnk27"><path d="M721.1527,330.1597 C721.1527,360.9055 721.1527,415.5729 721.1527,415.5729 C721.1527,415.5729 769.2911,415.5729 809.5539,415.5729" fill="none" id="USvc-to-Repo" style="stroke:#64748B;stroke-width:1.0144;"/><polygon fill="#64748B" points="815.087,415.5729,806.7873,411.8841,810.4761,415.5729,806.7873,419.2617,815.087,415.5729" style="stroke:#64748B;stroke-width:1.0144;"/></g><!--link CSvc to Repo--><g class="link" data-entity-1="ent0010" data-entity-2="ent0014" data-link-type="dependency" data-source-line="82" id="lnk28"><path d="M534.4461,330.298 C534.4461,366.0329 534.4461,435.8611 534.4461,435.8611 C534.4461,435.8611 720.8484,435.8611 809.3141,435.8611" fill="none" id="CSvc-to-Repo" style="stroke:#64748B;stroke-width:1.0144;"/><polygon fill="#64748B" points="814.8473,435.8611,806.5476,432.1723,810.2363,435.8611,806.5476,439.5499,814.8473,435.8611" style="stroke:#64748B;stroke-width:1.0144;"/></g><!--link ESvc to Repo--><g class="link" data-entity-1="ent0011" data-entity-2="ent0014" data-link-type="dependency" data-source-line="83" id="lnk29"><path d="M608.6455,330.2242 C608.6455,363.5153 608.6455,425.717 608.6455,425.717 C608.6455,425.717 737.8905,425.717 809.4986,425.717" fill="none" id="ESvc-to-Repo" style="stroke:#64748B;stroke-width:1.0144;"/><polygon fill="#64748B" points="815.0317,425.717,806.732,422.0282,810.4207,425.717,806.732,429.4058,815.0317,425.717" style="stroke:#64748B;stroke-width:1.0144;"/></g><!--link Repo to Sess--><g class="link" data-entity-1="ent0014" data-entity-2="ent0015" data-link-type="dependency" data-source-line="85" id="lnk30"><path d="M858.6974,446.1712 C858.6974,455.2548 858.6974,460.3729 858.6974,469.438" fill="none" id="Repo-to-Sess" style="stroke:#64748B;stroke-width:1.0144;"/><polygon fill="#64748B" points="858.6974,474.9712,862.3862,466.6715,858.6974,470.3602,855.0086,466.6715,858.6974,474.9712" style="stroke:#64748B;stroke-width:1.0144;"/></g><!--link Sess to Db--><g class="link" data-entity-1="ent0015" data-entity-2="ent0016" data-link-type="dependency" data-source-line="86" id="lnk31"><path d="M877.9251,515.5752 C877.9251,524.5481 877.9251,529.6663 877.9251,539.1003" fill="none" id="Sess-to-Db" style="stroke:#64748B;stroke-width:1.0144;"/><polygon fill="#64748B" points="877.9251,544.6334,881.6138,536.3337,877.9251,540.0225,874.2363,536.3337,877.9251,544.6334" style="stroke:#64748B;stroke-width:1.0144;"/></g><?plantuml-src XLRRSjis47tdL-oe3x6dzKMsR2l9JASIBRMPEXbLjFgIwLGGkI9HWG0AWBAPJcRw4Vt2VaaNa6H3jjCyI09s3nUxPm-MUWLPnGmMC15Ckjdx6x0hBk60opymTsHdIuS6Vh2E6TVK0XOjsDnmxUo9mH8b6kRmzqBbzbYti5G6VZPgnS5oMGeyMdA1O50MQ0wJLt3RQbKQfgls3GmCP-Ba9nHhT3ndG4VaAwYPookqu5fDHW4tN3RtOD6iAOsbaix2GJZX4Fxz-nzWQyKB2ncM2e-K52qKXY_TSUBBqCom6cp52dL7wS2I2OkHHt29T0w2CgvIaIDNjLOIfSjS6_BF7VFbH11DoR8IlmmeSCaQuSQKyWTM8tH2lPsN4Hd_XD0z9OQ6Z1gHunjmlAmSe5HDMO5JcqgXQag4acdx7GYbB4O0mMlkGB05YXDcZBe3HPm9feyXqu9S1MV4VMs1BubiBWJaX2gmYDcIga2B6ivE8wDXSkMDtQl8E655uLczZ4lI75vVKXapoKaBDU2z9dBXZXUk2keGh5MDUmlPhp_wZhVMzyTeO0wORE6JKZMG05s5iA3igF7756xw83MWftL3AjW8Cw-8Tv-5gxY5DHCDmi5yNhCLWXSb2V1-FeSJcC-VotK-FwJIIML8IPzkaeohLeqiScNe8UY79AmpZ3HJKFS5EaTTajYGJLZu5aWmiF3dipmdwS01qqHxpXnNaXvmrU5Rk6F4YUFazLneD9PRXzJlk0K3txnK2K9ySzcxwlM7Jvst5SzN4gs5xd7tgVD1Jw_tcXNaEbI6Rk8sTZgylXXrNm3HJncAtmB7tV75E8ustUbzBzxPnUNvQFWYx5d4_dWmJYFeDNDimUoJ1CzwtTCNKS_YZSTNe-i8-O5al1Vh6P41yTMy1hbJPY_GQU-gVt7r3F8qqYWTNuylziWrDEQufZ7x_wp5mA_cb-6VZTVFUn83jMuWU2d1omzDh6IqDC_i3ZL4eUw2Li2P9XvQDRlVOeA2-byeO7Vrk-UHVwZkT_P-uhYZMpMwdKBccgA5mUHTcDTf3svmZGBEuU1Xojh3975A-o6sKCxH12Yu7wbqSPA4UNgXyuvAekb5wmum2wdWz62IRCSmT2PK8rd2RGi8Ru2_4g2e9T8uCM43y756CyNVRQBeDm-SJJVsb1ZIT6fZOs-wzOw8BdCaL1axHzxvcJuV9sr1lF2SNeuLrim6TvPNoUSeny7ZG0WfqdwoAaDU8QkCtd8ynqrMsJfFzhAAlUdM6xAwKMNi6srzT3eMZS29eaFRuABbNaAJnm6quGpDGq9JrCfouflZfXfl275_kHa8NoNz4o2jK36ROcdjWnVREmgTtMqDeQyNIR9f6XmTVUz9ZtRftevOJMRJiFGCfe_BqUDoXmWyRI61bIqci91uIzZwocUxJQWatTkDzdQ9_zuSvQloNs57HVm7?></g></svg>
