<?plantuml 1.2026.1?><svg xmlns="http://www.w3.org/2000/svg" xmlns:xlink="http://www.w3.org/1999/xlink" contentStyleType="text/css" data-diagram-type="DESCRIPTION" height="716.5476px" preserveAspectRatio="none" style="width:961px;height:716px;background:#FFFFFF;" version="1.1" viewBox="0 0 961 716" width="961.1898px" zoomAndPan="magnify"><title>ETR Study API &#8212; C4 Level 1 (system context)</title><defs/><g><g class="title" data-source-line="39"><text fill="#000000" font-family="'Arial'" font-size="18.7158" font-weight="bold" lengthAdjust="spacing" textLength="475.6901" x="233.4655" y="38.7619">ETR Study API &#8212; C4 Level 1 (system context)</text></g><!--cluster Obs--><g class="cluster" data-qualified-name="Obs" data-source-line="55" id="ent0009"><rect fill="#F8FAFC" height="267.5156" rx="5.3474" ry="5.3474" style="stroke:#2563EB;stroke-width:1.3368;" width="270.0422" x="597.7157" y="75.2601"/><text fill="#000000" font-family="'Arial'" font-size="13.3684" font-weight="bold" lengthAdjust="spacing" textLength="100.7071" x="682.3832" y="98.3637">Observability</text><text fill="#000000" font-family="'Arial'" font-size="13.3684" font-weight="bold" lengthAdjust="spacing" textLength="157.3401" x="654.0667" y="113.9254">(optional &#183; Compose)</text></g><!--cluster LogSearch--><g class="cluster" data-qualified-name="LogSearch" data-source-line="61" id="ent0013"><rect fill="#F8FAFC" height="151.9188" rx="5.3474" ry="5.3474" style="stroke:#2563EB;stroke-width:1.3368;" width="288.758" x="664.5578" y="473.9199"/><text fill="#000000" font-family="'Arial'" font-size="13.3684" font-weight="bold" lengthAdjust="spacing" textLength="82.0056" x="767.934" y="497.0235">Log search</text><text fill="#000000" font-family="'Arial'" font-size="13.3684" font-weight="bold" lengthAdjust="spacing" textLength="74.2509" x="771.8113" y="512.5852">(optional)</text></g><!--entity Graf--><g class="entity" data-qualified-name="Obs.Graf" data-source-line="56" id="ent0010"><rect fill="#F1F1F1" height="58.3406" rx="5.3474" ry="5.3474" style="stroke:#181818;stroke-width:0.6684;" width="96.3897" x="619.0383" y="147.4496"/><text fill="#000000" font-family="'Arial'" font-size="13.3684" lengthAdjust="spacing" textLength="53.6108" x="640.4278" y="181.2479">Grafana</text></g><!--entity Prom--><g class="entity" data-qualified-name="Obs.Prom" data-source-line="57" id="ent0011"><rect fill="#F1F1F1" height="58.3406" rx="5.3474" ry="5.3474" style="stroke:#181818;stroke-width:0.6684;" width="123.1396" x="619.0249" y="263.0463"/><text fill="#000000" font-family="'Arial'" font-size="13.3684" lengthAdjust="spacing" textLength="80.3607" x="640.4144" y="296.8447">Prometheus</text></g><!--entity Bbx--><g class="entity" data-qualified-name="Obs.Bbx" data-source-line="58" id="ent0012"><rect fill="#F1F1F1" height="58.3406" rx="5.3474" ry="5.3474" style="stroke:#181818;stroke-width:0.6684;" width="103.5244" x="742.469" y="147.4496"/><text fill="#000000" font-family="'Arial'" font-size="13.3684" lengthAdjust="spacing" textLength="60.7454" x="763.8585" y="181.2479">Blackbox</text></g><!--entity ES--><g class="entity" data-qualified-name="LogSearch.ES" data-source-line="62" id="ent0014"><rect fill="#F1F1F1" height="58.3406" rx="5.3474" ry="5.3474" style="stroke:#181818;stroke-width:0.6684;" width="131.1033" x="800.8623" y="546.1094"/><text fill="#000000" font-family="'Arial'" font-size="13.3684" lengthAdjust="spacing" textLength="88.3243" x="822.2517" y="579.9077">Elasticsearch</text></g><!--entity Kib--><g class="entity" data-qualified-name="LogSearch.Kib" data-source-line="63" id="ent0015"><rect fill="#F1F1F1" height="58.3406" rx="5.3474" ry="5.3474" style="stroke:#181818;stroke-width:0.6684;" width="88.6024" x="685.7601" y="546.1094"/><text fill="#000000" font-family="'Arial'" font-size="13.3684" lengthAdjust="spacing" textLength="45.8234" x="707.1496" y="579.9077">Kibana</text></g><!--entity Integrator--><g class="entity" data-qualified-name="Integrator" data-source-line="43" id="ent0002"><ellipse cx="50.943" cy="239.8922" fill="#ECFDF5" rx="10.6947" ry="10.6947" style="stroke:#047857;stroke-width:0.6684;"/><path d="M50.943,250.587 L50.943,286.6817 M33.564,261.2817 L68.3219,261.2817 M50.943,286.6817 L33.564,306.7343 M50.943,286.6817 L68.3219,306.7343" fill="none" style="stroke:#047857;stroke-width:0.6684;"/><text fill="#000000" font-family="'Arial'" font-size="13.3684" lengthAdjust="spacing" textLength="66.9727" x="8.0211" y="329.1695">Integrator</text><text fill="#000000" font-family="'Arial'" font-size="13.3684" lengthAdjust="spacing" textLength="85.8438" x="8.0211" y="344.7312">(HTTP client)</text></g><g class="entity" data-qualified-name="GMN3" data-source-line="45" id="ent0004"><path d="M128.5909,267.2975 L128.5909,287.9918 L102.108,293.3392 L128.5909,298.6866 L128.5909,317.1367 A5.3474,5.3474 0 0 0 133.9383,322.484 L409.1007,322.484 A5.3474,5.3474 0 0 0 414.448,317.1367 L414.448,275.3185 L401.0796,261.9501 L133.9383,261.9501 A5.3474,5.3474 0 0 0 128.5909,267.2975" fill="#FEFFDD" style="stroke:#181818;stroke-width:0.6684;"/><path d="M401.0796,261.9501 L401.0796,272.6449 A2.6737,2.6737 0 0 0 403.7533,275.3185 L414.448,275.3185 L401.0796,261.9501" fill="#FEFFDD" style="stroke:#181818;stroke-width:0.6684;"/><text fill="#000000" font-family="'Arial'" font-size="13.3684" font-weight="bold" lengthAdjust="spacing" textLength="100.6287" x="144.633" y="289.0643">Out of scope:</text><text fill="#000000" font-family="'Arial'" font-size="13.3684" lengthAdjust="spacing" textLength="123.1031" x="249.5112" y="289.0643">web, mobile, bots.</text><text fill="#000000" font-family="'Arial'" font-size="13.3684" lengthAdjust="spacing" textLength="241.7413" x="144.633" y="304.6259">Any OpenAPI-compliant HTTP client.</text></g><!--entity Api--><g class="entity" data-qualified-name="Api" data-source-line="49" id="ent0006"><rect fill="#F8FAFC" height="73.9023" rx="5.3474" ry="5.3474" style="stroke:#2563EB;stroke-width:0.6684;" width="220.1848" x="483.6028" y="378.6297"/><text fill="#000000" font-family="'Arial'" font-size="13.3684" lengthAdjust="spacing" textLength="94.1469" x="504.9923" y="412.4281">ETR Study API</text><text fill="#000000" font-family="'Arial'" font-size="13.3684" lengthAdjust="spacing" textLength="177.4058" x="504.9923" y="427.9898">FastAPI &#183; OpenAPI &#183; /api/v1</text></g><!--entity Db--><g class="entity" data-qualified-name="Db" data-source-line="51" id="ent0007"><path d="M389.3821,545.6816 C389.3821,532.3132 516.1589,532.3132 516.1589,532.3132 C516.1589,532.3132 642.9357,532.3132 642.9357,545.6816 L642.9357,604.8786 C642.9357,618.2471 516.1589,618.2471 516.1589,618.2471 C516.1589,618.2471 389.3821,618.2471 389.3821,604.8786 L389.3821,545.6816" fill="#FFF7ED" style="stroke:#C2410C;stroke-width:0.6684;"/><path d="M389.3821,545.6816 C389.3821,559.05 516.1589,559.05 516.1589,559.05 C516.1589,559.05 642.9357,559.05 642.9357,545.6816" fill="none" style="stroke:#C2410C;stroke-width:0.6684;"/><text fill="#000000" font-family="'Arial'" font-size="13.3684" lengthAdjust="spacing" textLength="105.2894" x="410.7716" y="584.8273">Relational store</text><text fill="#000000" font-family="'Arial'" font-size="13.3684" lengthAdjust="spacing" textLength="210.7746" x="410.7716" y="600.389">(SQLite dev &#183; Postgres-capable)</text></g><!--entity Img--><g class="entity" data-qualified-name="Img" data-source-line="53" id="ent0008"><rect fill="#F8FAFC" height="73.9023" rx="5.3474" ry="5.3474" style="stroke:#2563EB;stroke-width:0.6684;" width="135.059" x="440.6099" y="255.2659"/><text fill="#000000" font-family="'Arial'" font-size="13.3684" lengthAdjust="spacing" textLength="69.6881" x="461.9994" y="289.0643">OCI image</text><text fill="#000000" font-family="'Arial'" font-size="13.3684" lengthAdjust="spacing" textLength="92.28" x="461.9994" y="304.6259">study-app-api</text></g><g class="entity" data-qualified-name="GMN23" data-source-line="78" id="ent0024"><path d="M356.9102,652.5755 L356.9102,702.4147 A5.3474,5.3474 0 0 0 362.2576,707.762 L670.0643,707.762 A5.3474,5.3474 0 0 0 675.4117,702.4147 L675.4117,660.5966 L662.0432,647.2281 L521.5156,647.2281 L516.1683,618.6197 L510.8209,647.2281 L362.2576,647.2281 A5.3474,5.3474 0 0 0 356.9102,652.5755" fill="#FEFFDD" style="stroke:#181818;stroke-width:0.6684;"/><path d="M662.0432,647.2281 L662.0432,657.9229 A2.6737,2.6737 0 0 0 664.7169,660.5966 L675.4117,660.5966 L662.0432,647.2281" fill="#FEFFDD" style="stroke:#181818;stroke-width:0.6684;"/><text fill="#000000" font-family="'Arial'" font-size="13.3684" lengthAdjust="spacing" textLength="192.7586" x="372.9523" y="674.3423">Single service owns schema,</text><text fill="#000000" font-family="'Arial'" font-size="13.3684" lengthAdjust="spacing" textLength="274.3856" x="372.9523" y="689.904">Alembic migrations, transactional writes.</text></g><!--link Integrator to Api--><g class="link" data-entity-1="ent0002" data-entity-2="ent0006" data-link-type="dependency" data-source-line="66" id="lnk16"><path d="M102.2952,342.8024 C222.9452,342.8024 514.2967,342.8024 514.2967,342.8024 C514.2967,342.8024 514.2967,352.4143 514.2967,370.3146" fill="none" id="Integrator-to-Api" style="stroke:#64748B;stroke-width:1.4705;"/><polygon fill="#64748B" points="514.2967,378.3356,519.6441,366.304,514.2967,371.6514,508.9493,366.304,514.2967,378.3356" style="stroke:#64748B;stroke-width:1.4705;"/><text fill="#000000" font-family="'Arial'" font-size="12.0316" lengthAdjust="spacing" textLength="38.6385" x="237.8377" y="363.3282">HTTPS</text><text fill="#000000" font-family="'Arial'" font-size="12.0316" lengthAdjust="spacing" textLength="3.8245" x="276.4762" y="363.3282">&#160;</text><text fill="#000000" font-family="'Arial'" font-size="12.0316" lengthAdjust="spacing" textLength="3.8245" x="280.3007" y="363.3282">&#183;</text><text fill="#000000" font-family="'Arial'" font-size="12.0316" lengthAdjust="spacing" textLength="3.8245" x="284.1252" y="363.3282">&#160;</text><text fill="#000000" font-family="'Arial'" font-size="12.0316" lengthAdjust="spacing" textLength="29.656" x="287.9497" y="363.3282">JSON</text></g><!--link Api to Db--><g class="link" data-entity-1="ent0006" data-entity-2="ent0007" data-link-type="dependency" data-source-line="67" id="lnk17"><path d="M563.2786,453.025 C563.2786,476.6203 563.2786,499.1595 563.2786,523.8242" fill="none" id="Api-to-Db" style="stroke:#64748B;stroke-width:1.4705;"/><polygon fill="#64748B" points="563.2786,531.8453,568.626,519.8137,563.2786,525.161,557.9312,519.8137,563.2786,531.8453" style="stroke:#64748B;stroke-width:1.4705;"/><text fill="#000000" font-family="'Arial'" font-size="12.0316" lengthAdjust="spacing" textLength="23.8105" x="445.6365" y="480.8768">SQL</text><text fill="#000000" font-family="'Arial'" font-size="12.0316" lengthAdjust="spacing" textLength="3.8245" x="469.447" y="480.8768">&#160;</text><text fill="#000000" font-family="'Arial'" font-size="12.0316" lengthAdjust="spacing" textLength="3.8245" x="473.2715" y="480.8768">&#183;</text><text fill="#000000" font-family="'Arial'" font-size="12.0316" lengthAdjust="spacing" textLength="3.8245" x="477.096" y="480.8768">&#160;</text><text fill="#000000" font-family="'Arial'" font-size="12.0316" lengthAdjust="spacing" textLength="74.2339" x="480.9205" y="480.8768">transactions</text></g><!--link Img to Api--><g class="link" data-entity-1="ent0008" data-entity-2="ent0006" data-link-type="dependency" data-source-line="69" id="lnk18"><path d="M544.9906,329.5542 C544.9906,345.0215 544.9906,354.8874 544.9906,370.3279" fill="none" id="Img-to-Api" style="stroke:#64748B;stroke-width:1.4705;stroke-dasharray:9.3579,9.3579;"/><polygon fill="#64748B" points="544.9906,378.349,550.338,366.3174,544.9906,371.6648,539.6432,366.3174,544.9906,378.349" style="stroke:#64748B;stroke-width:1.4705;"/><text fill="#000000" font-family="'Arial'" font-size="12.0316" lengthAdjust="spacing" textLength="57.2734" x="554.3485" y="342.3933">packages</text></g><!--link Prom to Api--><g class="link" data-entity-1="ent0011" data-entity-2="ent0006" data-link-type="dependency" data-source-line="71" id="lnk19"><path d="M661.4162,321.453 C661.4162,338.4041 661.4162,351.9196 661.4162,370.1007" fill="none" id="Prom-to-Api" style="stroke:#64748B;stroke-width:1.4705;stroke-dasharray:9.3579,9.3579;"/><polygon fill="#64748B" points="661.4162,378.1217,666.7636,366.0902,661.4162,371.4375,656.0688,366.0902,661.4162,378.1217" style="stroke:#64748B;stroke-width:1.4705;"/><text fill="#000000" font-family="'Arial'" font-size="12.0316" lengthAdjust="spacing" textLength="40.2424" x="670.7741" y="370.3066">scrape</text><text fill="#000000" font-family="'Arial'" font-size="12.0316" lengthAdjust="spacing" textLength="3.8245" x="711.0165" y="370.3066">&#160;</text><text fill="#000000" font-family="'Arial'" font-size="12.0316" lengthAdjust="spacing" textLength="49.0663" x="714.841" y="370.3066">/metrics</text></g><!--link Bbx to Api--><g class="link" data-entity-1="ent0012" data-entity-2="ent0006" data-link-type="dependency" data-source-line="72" id="lnk20"><path d="M758.4175,206.3909 C758.4175,268.0996 758.4175,404.2971 758.4175,404.2971 C758.4175,404.2971 742.0546,404.2971 712.0424,404.2971" fill="none" id="Bbx-to-Api" style="stroke:#64748B;stroke-width:1.4705;stroke-dasharray:9.3579,9.3579;"/><polygon fill="#64748B" points="704.0214,404.2971,716.053,409.6445,710.7056,404.2971,716.053,398.9497,704.0214,404.2971" style="stroke:#64748B;stroke-width:1.4705;"/><text fill="#000000" font-family="'Arial'" font-size="12.0316" lengthAdjust="spacing" textLength="34.9844" x="767.7754" y="320.9771">probe</text><text fill="#000000" font-family="'Arial'" font-size="12.0316" lengthAdjust="spacing" textLength="3.8245" x="802.7598" y="320.9771">&#160;</text><text fill="#000000" font-family="'Arial'" font-size="12.0316" lengthAdjust="spacing" textLength="38.5328" x="806.5843" y="320.9771">/ready</text></g><!--link Graf to Prom--><g class="link" data-entity-1="ent0010" data-entity-2="ent0011" data-link-type="dependency" data-source-line="73" id="lnk21"><path d="M667.2315,206.3909 C667.2315,223.6496 667.2315,237.2854 667.2315,254.5306" fill="none" id="Graf-to-Prom" style="stroke:#64748B;stroke-width:1.4705;"/><polygon fill="#64748B" points="667.2315,262.5517,672.5789,250.5201,667.2315,255.8675,661.8841,250.5201,667.2315,262.5517" style="stroke:#64748B;stroke-width:1.4705;"/></g><!--link Api to ES--><g class="link" data-entity-1="ent0006" data-entity-2="ent0014" data-link-type="dependency" data-source-line="75" id="lnk22"><path d="M704.1952,428.3603 C763.043,428.3603 823.4282,428.3603 823.4282,428.3603 C823.4282,428.3603 823.4282,494.6008 823.4282,537.5268" fill="none" id="Api-to-ES" style="stroke:#64748B;stroke-width:1.4705;stroke-dasharray:9.3579,9.3579;"/><polygon fill="#64748B" points="823.4282,545.5479,828.7755,533.5163,823.4282,538.8637,818.0808,533.5163,823.4282,545.5479" style="stroke:#64748B;stroke-width:1.4705;"/><text fill="#000000" font-family="'Arial'" font-size="12.0316" lengthAdjust="spacing" textLength="47.9207" x="736.8409" y="403.4335">NDJSON</text><text fill="#000000" font-family="'Arial'" font-size="12.0316" lengthAdjust="spacing" textLength="3.8245" x="784.7616" y="403.4335">&#160;</text><text fill="#000000" font-family="'Arial'" font-size="12.0316" lengthAdjust="spacing" textLength="24.6095" x="788.5861" y="403.4335">logs</text><text fill="#000000" font-family="'Arial'" font-size="12.0316" lengthAdjust="spacing" textLength="58.1487" x="745.9439" y="417.439">(optional)</text></g><?plantuml-src XLRRSjj637tdLs3SXzYk9LcERt5cEjKrSUFOhkdqfUvK80cH6oztsTsb9ARJcNv4_wNl_PH-IR6Kv52sqpnuJ05O0EVW4CiN46PeA85hYSfzU7y1zbues1Rg8yMExJXrPE1xwz2uCfSGLM1Z8mfdEuPIKcJGqQ-9Zcsxg62g3Rmp-bw05IgLr9eAIM189MHsWXTmMnKwDLXarHdqZ43PUKjoHax425mYleSSNPoH1LSLR9Hm8LIv04jcncrCjN8MjkiAE_3ldty1phH8B8IKQcff9Ij8Z9YwTk1X56Wm1vjXekVS3anHMcfuf534TGYqSPbkE6AT5rgHSg6hwlvZXnvE8wJWPZ6bBmSaDCLIkZ6tV8avmLQDT-lvY51y8kZkCqDzv474T0PEf9a3KhfCCt1wYHIoCYL8iR1x8BMsr0YG8XSE94OaEsYCdeDcpYGMRGWBoQv487EVMn1J9bj82J579PGqsL8w8Ki57EmtZ0RLlJTsJnh6QqmIp-fn4r8XuDKnm_YW16iX1reKJ2xCHUAoMXqIArswrn3-zCPFlB9-FgO0T82gWazQvy02T1b1nDtnuDkSxkP1Qi2dYv9Li1Hcd37llWkN2Gipb2N1zcIIups15oKBS36PG0ScawTodKns63ghZBZf_MMJJTIwL4ci3H-2qxe9wmooPXAUlYJdU4gAIhP92zy22mOYNn_ZcAK3srWmxJ4weHKVSDdEQvWZS-84UpqN1Hahh2EUTtC4FJ-yWPOSyStnuSdXQV-nypOJyRqYQw7RxZvsFkZfrSQmQhdsjU4tSPLxq1yUZRhF1F6_j0Q_2XntnqVZPhQRjTutyXqS7RySzPyDUvBnTDmR3ngXGtGOeNtKuC5XT__Pg2VvnkEJqR0HUSaotiZrXCWwugjzzMAdpKQY_SEJqwEJ9o6FCuq6u-7uQ8DSmsjE5Bnc_v-rPk1N-mlfjzBhvpsBWKVNao9LuEL7fgbaihpFx3ggJrBFQws0CsLpQUMuMCNK2Zhz0e3rgzzzsV3tzM9jFmsSSFnMZMvl87HbKa7l-hpUruD3kA0PIUZ2jgrO-txPShSBjnC4JXT-aKNQETu2YV1hbL-U841FCMoTSo1lC7w-KzjlRs-l8PQ2iUvi0Lhux0sKvaLXwWMgfqq7mExkLLbRRQmBEjlTXJb5Uv3hY6-gFL_RjZcinxlegY35VRVyRI05muP6pNR0bnhuGa7miFvXQmFndHgZTHxwFt-li_d73XQYC-lMNVSA4GJ9IjUmTKEoNXXyyrbkc1Xe-EE5O3W9pVpPQsrTolDinLXW96c9VHXjT74rE0UHynJlbFNDj7WLyPzOyfIdGR2wlZWqydShCdhXAgwcYrLvhZNmrw1TbU10-9sP-VcDmIag_CKR_REtNHkT4-_iqjPc_zER-vBBH7fH6_lH8lYZKVb2ftoleucpHjbbBNQ5jMTPSIIPHX4lW-jSez3RtubetGW_-kIVHmsjrdUUN3YhfnPwF3-4LvU1jtdVC68NS-iTlCALnLfibfFaARJRwzEhVjdkKJKS_1c4_EtGOU26cmiON_EOqH4x3M5I1PwckcXDJDs2Zno577Wvz6tnRPxQ9W_1KiIhTu7roYC62EklglfpICHy5yuLtv_ylPJZdXUjf3mICUJ2S-31x3MXyL3dXgLa6zhz3m00?></g></svg>
