<?plantuml 1.2026.1?><svg xmlns="http://www.w3.org/2000/svg" xmlns:xlink="http://www.w3.org/1999/xlink" contentStyleType="text/css" data-diagram-type="DESCRIPTION" height="1018.3584px" preserveAspectRatio="none" style="width:960px;height:1018px;background:#FFFFFF;" version="1.1" viewBox="0 0 960 1018" width="960.2879px" zoomAndPan="magnify"><title>ETR Study API &#8212; C4 Level 2 (containers)</title><defs/><g><g class="title" data-source-line="39"><text fill="#000000" font-family="'Arial'" font-size="19.829" font-weight="bold" lengthAdjust="spacing" textLength="450.5665" x="245.5104" y="41.0673">ETR Study API &#8212; C4 Level 2 (containers)</text></g><!--cluster Proc--><g class="cluster" data-qualified-name="Proc" data-source-line="45" id="ent0003"><rect fill="#F8FAFC" height="334.8544" rx="5.6654" ry="5.6654" style="stroke:#2563EB;stroke-width:1.4164;" width="209.6204" x="618.5642" y="388.898"/><text fill="#000000" font-family="'Arial'" font-size="14.1635" font-weight="bold" lengthAdjust="spacing" textLength="93.2594" x="676.7447" y="413.3758">API process</text><text fill="#000000" font-family="'Arial'" font-size="14.1635" font-weight="bold" lengthAdjust="spacing" textLength="153.7034" x="646.5227" y="429.863">(single deployable)</text></g><!--cluster Obs--><g class="cluster" data-qualified-name="Obs" data-source-line="56" id="ent0011"><rect fill="#F8FAFC" height="275.1692" rx="5.6654" ry="5.6654" style="stroke:#2563EB;stroke-width:1.4164;" width="286.1035" x="645.4749" y="79.7363"/><text fill="#000000" font-family="'Arial'" font-size="14.1635" font-weight="bold" lengthAdjust="spacing" textLength="106.6968" x="735.1783" y="104.214">Observability</text><text fill="#000000" font-family="'Arial'" font-size="14.1635" font-weight="bold" lengthAdjust="spacing" textLength="78.6671" x="749.1931" y="120.7013">(optional)</text></g><!--cluster LogStack--><g class="cluster" data-qualified-name="LogStack" data-source-line="62" id="ent0015"><rect fill="#F8FAFC" height="253.2157" rx="5.6654" ry="5.6654" style="stroke:#2563EB;stroke-width:1.4164;" width="269.1072" x="10.9484" y="757.7449"/><text fill="#000000" font-family="'Arial'" font-size="14.1635" font-weight="bold" lengthAdjust="spacing" textLength="97.9622" x="96.5209" y="782.2226">Log pipeline</text><text fill="#000000" font-family="'Arial'" font-size="14.1635" font-weight="bold" lengthAdjust="spacing" textLength="78.6671" x="106.1685" y="798.7099">(optional)</text></g><!--entity Http--><g class="entity" data-qualified-name="Proc.Http" data-source-line="46" id="ent0004"><rect fill="#F1F1F1" height="61.8106" rx="5.6654" ry="5.6654" style="stroke:#181818;stroke-width:0.7082;" width="147.4903" x="649.6249" y="465.3811"/><text fill="#000000" font-family="'Arial'" font-size="14.1635" lengthAdjust="spacing" textLength="102.167" x="672.2865" y="501.1897">HTTP &#183; FastAPI</text></g><!--entity App--><g class="entity" data-qualified-name="Proc.App" data-source-line="47" id="ent0005"><rect fill="#F1F1F1" height="61.8106" rx="5.6654" ry="5.6654" style="stroke:#181818;stroke-width:0.7082;" width="162.8987" x="641.9199" y="551.2688"/><text fill="#000000" font-family="'Arial'" font-size="14.1635" lengthAdjust="spacing" textLength="117.5754" x="664.5816" y="587.0774">Domain services</text></g><!--entity Persist--><g class="entity" data-qualified-name="Proc.Persist" data-source-line="48" id="ent0006"><rect fill="#F1F1F1" height="61.8106" rx="5.6654" ry="5.6654" style="stroke:#181818;stroke-width:0.7082;" width="132.9187" x="656.9191" y="639.2811"/><text fill="#000000" font-family="'Arial'" font-size="14.1635" lengthAdjust="spacing" textLength="87.5954" x="679.5807" y="675.0896">Repositories</text></g><!--entity Graf--><g class="entity" data-qualified-name="Obs.Graf" data-source-line="57" id="ent0012"><rect fill="#F1F1F1" height="61.8106" rx="5.6654" ry="5.6654" style="stroke:#181818;stroke-width:0.7082;" width="102.1227" x="806.8685" y="156.2194"/><text fill="#000000" font-family="'Arial'" font-size="14.1635" lengthAdjust="spacing" textLength="56.7994" x="829.5301" y="192.028">Grafana</text></g><!--entity Prom--><g class="entity" data-qualified-name="Obs.Prom" data-source-line="58" id="ent0013"><rect fill="#F1F1F1" height="61.8106" rx="5.6654" ry="5.6654" style="stroke:#181818;stroke-width:0.7082;" width="130.4636" x="772.8618" y="270.4342"/><text fill="#000000" font-family="'Arial'" font-size="14.1635" lengthAdjust="spacing" textLength="85.1403" x="795.5235" y="306.2428">Prometheus</text></g><!--entity Bbx--><g class="entity" data-qualified-name="Obs.Bbx" data-source-line="59" id="ent0014"><rect fill="#F1F1F1" height="61.8106" rx="5.6654" ry="5.6654" style="stroke:#181818;stroke-width:0.7082;" width="109.6817" x="668.5332" y="156.2194"/><text fill="#000000" font-family="'Arial'" font-size="14.1635" lengthAdjust="spacing" textLength="64.3583" x="691.1948" y="192.028">Blackbox</text></g><!--entity ES--><g class="entity" data-qualified-name="LogStack.ES" data-source-line="63" id="ent0016"><rect fill="#F1F1F1" height="61.8106" rx="5.6654" ry="5.6654" style="stroke:#181818;stroke-width:0.7082;" width="138.9009" x="76.0582" y="926.4893"/><text fill="#000000" font-family="'Arial'" font-size="14.1635" lengthAdjust="spacing" textLength="93.5776" x="98.7199" y="962.2979">Elasticsearch</text></g><!--entity Kib--><g class="entity" data-qualified-name="LogStack.Kib" data-source-line="64" id="ent0017"><rect fill="#F1F1F1" height="61.8106" rx="5.6654" ry="5.6654" style="stroke:#181818;stroke-width:0.7082;" width="93.8722" x="163.7163" y="834.228"/><text fill="#000000" font-family="'Arial'" font-size="14.1635" lengthAdjust="spacing" textLength="48.5488" x="186.378" y="870.0366">Kibana</text></g><!--entity FB--><g class="entity" data-qualified-name="LogStack.FB" data-source-line="65" id="ent0018"><rect fill="#F1F1F1" height="61.8106" rx="5.6654" ry="5.6654" style="stroke:#181818;stroke-width:0.7082;" width="101.9913" x="33.6101" y="834.228"/><text fill="#000000" font-family="'Arial'" font-size="14.1635" lengthAdjust="spacing" textLength="56.668" x="56.2717" y="870.0366">Filebeat</text></g><!--entity Client--><g class="entity" data-qualified-name="Client" data-source-line="43" id="ent0002"><ellipse cx="578.9047" cy="254.1461" fill="#ECFDF5" rx="11.3308" ry="11.3308" style="stroke:#047857;stroke-width:0.7082;"/><path d="M578.9047,265.4769 L578.9047,303.7185 M560.4921,276.8078 L597.3173,276.8078 M578.9047,303.7185 L560.4921,324.9638 M578.9047,303.7185 L597.3173,324.9638" fill="none" style="stroke:#047857;stroke-width:0.7082;"/><text fill="#000000" font-family="'Arial'" font-size="14.1635" lengthAdjust="spacing" textLength="70.956" x="543.4266" y="348.7334">Integrator</text></g><!--entity Db--><g class="entity" data-qualified-name="Db" data-source-line="53" id="ent0009"><path d="M756.1488,842.0179 C756.1488,827.8544 812.601,827.8544 812.601,827.8544 C812.601,827.8544 869.0533,827.8544 869.0533,842.0179 L869.0533,888.2486 C869.0533,902.4122 812.601,902.4122 812.601,902.4122 C812.601,902.4122 756.1488,902.4122 756.1488,888.2486 L756.1488,842.0179" fill="#FFF7ED" style="stroke:#C2410C;stroke-width:0.7082;"/><path d="M756.1488,842.0179 C756.1488,856.1815 812.601,856.1815 812.601,856.1815 C812.601,856.1815 869.0533,856.1815 869.0533,842.0179" fill="none" style="stroke:#C2410C;stroke-width:0.7082;"/><text fill="#000000" font-family="'Arial'" font-size="14.1635" lengthAdjust="spacing" textLength="67.5811" x="778.8105" y="883.4919">Database</text></g><!--entity Mig--><g class="entity" data-qualified-name="Mig" data-source-line="54" id="ent0010"><rect fill="#F8FAFC" height="61.8106" rx="5.6654" ry="5.6654" style="stroke:#2563EB;stroke-width:0.7082;" width="102.1711" x="850.7471" y="639.2811"/><text fill="#000000" font-family="'Arial'" font-size="14.1635" lengthAdjust="spacing" textLength="56.8478" x="873.4088" y="675.0896">Alembic</text></g><!--entity LogFile--><g class="entity" data-qualified-name="LogFile" data-source-line="68" id="ent0019"><rect fill="#F1F1F1" height="66.0596" rx="5.6654" ry="5.6654" style="stroke:#181818;stroke-width:0.7082;" width="149.3714" x="9.9145" y="637.1565"/><polygon fill="#F1F1F1" points="135.2079,644.2383,135.2079,664.0672,152.2041,664.0672,152.2041,652.7364,143.706,644.2383,135.2079,644.2383" style="stroke:#181818;stroke-width:0.7082;"/><line style="stroke:#181818;stroke-width:0.7082;" x1="143.706" x2="143.706" y1="644.2383" y2="652.7364"/><line style="stroke:#181818;stroke-width:0.7082;" x1="152.2041" x2="143.706" y1="652.7364" y2="652.7364"/><text fill="#000000" font-family="'Arial'" font-size="14.1635" lengthAdjust="spacing" textLength="89.8845" x="32.5761" y="677.2142">NDJSON logs</text></g><g class="entity" data-qualified-name="GMN32" data-source-line="86" id="ent0033"><path d="M187.6244,643.7851 L187.6244,696.5885 A5.6654,5.6654 0 0 0 193.2898,702.2539 L590.5951,702.2539 A5.6654,5.6654 0 0 0 596.2605,696.5885 L596.2605,652.2832 L582.0969,638.1196 L193.2898,638.1196 A5.6654,5.6654 0 0 0 187.6244,643.7851" fill="#FEFFDD" style="stroke:#181818;stroke-width:0.7082;"/><path d="M582.0969,638.1196 L582.0969,649.4505 A2.8327,2.8327 0 0 0 584.9296,652.2832 L596.2605,652.2832 L582.0969,638.1196" fill="#FEFFDD" style="stroke:#181818;stroke-width:1.4164;"/><text fill="#000000" font-family="'Arial'" font-size="14.1635" lengthAdjust="spacing" textLength="265.2897" x="204.6206" y="666.8465">Writes update snapshots and append</text><text fill="#000000" font-family="'Arial'" font-size="14.1635" lengthAdjust="spacing" textLength="361.8964" x="204.6206" y="683.3337">review_log / conspectus_events in one transaction.</text></g><!--link Http to App--><!--link Http to App--><g class="link" data-entity-1="ent0004" data-entity-2="ent0005" data-link-type="dependency" data-source-line="71" id="lnk21"><path d="M747.9623,527.7715 C747.9623,535.2499 747.9623,534.7116 747.9623,542.1758" fill="none" id="Http-to-App" style="stroke:#64748B;stroke-width:1.558;"/><polygon fill="#64748B" points="747.9623,550.674,753.6277,537.9268,747.9623,543.5922,742.2969,537.9268,747.9623,550.674" style="stroke:#64748B;stroke-width:1.558;"/></g><!--link App to Persist--><!--link App to Persist--><g class="link" data-entity-1="ent0005" data-entity-2="ent0006" data-link-type="dependency" data-source-line="72" id="lnk22"><path d="M745.5262,613.4468 C745.5262,621.7466 745.5262,622.214 745.5262,630.5138" fill="none" id="App-to-Persist" style="stroke:#64748B;stroke-width:1.558;"/><polygon fill="#64748B" points="745.5262,639.0119,751.1916,626.2648,745.5262,631.9302,739.8608,626.2648,745.5262,639.0119" style="stroke:#64748B;stroke-width:1.558;"/></g><!--link Client to Http--><g class="link" data-entity-1="ent0002" data-entity-2="ent0004" data-link-type="dependency" data-source-line="70" id="lnk20"><path d="M623.2099,346.6907 C641.7641,346.6907 659.0861,346.6907 659.0861,346.6907 C659.0861,346.6907 659.0861,412.5653 659.0861,456.4298" fill="none" id="Client-to-Http" style="stroke:#64748B;stroke-width:1.558;"/><polygon fill="#64748B" points="659.0861,464.9279,664.7515,452.1807,659.0861,457.8461,653.4207,452.1807,659.0861,464.9279" style="stroke:#64748B;stroke-width:1.558;"/><text fill="#000000" font-family="'Arial'" font-size="12.7472" lengthAdjust="spacing" textLength="40.9366" x="669.0006" y="375.6325">HTTPS</text><text fill="#000000" font-family="'Arial'" font-size="12.7472" lengthAdjust="spacing" textLength="4.052" x="709.9372" y="375.6325">&#160;</text><text fill="#000000" font-family="'Arial'" font-size="12.7472" lengthAdjust="spacing" textLength="4.2947" x="713.9892" y="375.6325">/</text><text fill="#000000" font-family="'Arial'" font-size="12.7472" lengthAdjust="spacing" textLength="4.052" x="718.2839" y="375.6325">&#160;</text><text fill="#000000" font-family="'Arial'" font-size="12.7472" lengthAdjust="spacing" textLength="31.4198" x="722.3358" y="375.6325">JSON</text></g><!--link Persist to Db--><g class="link" data-entity-1="ent0006" data-entity-2="ent0009" data-link-type="dependency" data-source-line="73" id="lnk23"><path d="M772.9893,701.5015 C772.9893,735.7348 772.9893,782.0637 772.9893,818.7048" fill="none" id="Persist-to-Db" style="stroke:#64748B;stroke-width:1.558;"/><polygon fill="#64748B" points="772.9893,827.2029,778.6547,814.4557,772.9893,820.1211,767.3239,814.4557,772.9893,827.2029" style="stroke:#64748B;stroke-width:1.558;"/><text fill="#000000" font-family="'Arial'" font-size="12.7472" lengthAdjust="spacing" textLength="25.2267" x="738.9968" y="786.106">SQL</text></g><!--link Mig to Db--><g class="link" data-entity-1="ent0010" data-entity-2="ent0009" data-link-type="dependency" data-source-line="74" id="lnk24"><path d="M859.8968,701.5015 C859.8968,735.7348 859.8968,782.0637 859.8968,818.7048" fill="none" id="Mig-to-Db" style="stroke:#64748B;stroke-width:1.558;stroke-dasharray:9.9145,9.9145;"/><polygon fill="#64748B" points="859.8968,827.2029,865.5622,814.4557,859.8968,820.1211,854.2313,814.4557,859.8968,827.2029" style="stroke:#64748B;stroke-width:1.558;"/><text fill="#000000" font-family="'Arial'" font-size="12.7472" lengthAdjust="spacing" textLength="68.1613" x="781.9973" y="752.1135">migrations</text></g><!--link App to LogFile--><g class="link" data-entity-1="ent0005" data-entity-2="ent0019" data-link-type="dependency" data-source-line="76" id="lnk25"><path d="M641.8208,583.2218 C469.6204,583.2218 84.5988,583.2218 84.5988,583.2218 C84.5988,583.2218 84.5988,603.7872 84.5988,628.3185" fill="none" id="App-to-LogFile" style="stroke:#64748B;stroke-width:1.558;stroke-dasharray:9.9145,9.9145;"/><polygon fill="#64748B" points="84.5988,636.8166,90.2642,624.0694,84.5988,629.7348,78.9334,624.0694,84.5988,636.8166" style="stroke:#64748B;stroke-width:1.558;"/></g><!--link LogFile to FB--><g class="link" data-entity-1="ent0019" data-entity-2="ent0018" data-link-type="dependency" data-source-line="77" id="lnk26"><path d="M84.5988,703.6968 C84.5988,740.2812 84.5988,789.8678 84.5988,825.4891" fill="none" id="LogFile-to-FB" style="stroke:#64748B;stroke-width:1.558;stroke-dasharray:9.9145,9.9145;"/><polygon fill="#64748B" points="84.5988,833.9872,90.2642,821.24,84.5988,826.9054,78.9334,821.24,84.5988,833.9872" style="stroke:#64748B;stroke-width:1.558;"/></g><!--link FB to ES--><g class="link" data-entity-1="ent0018" data-entity-2="ent0016" data-link-type="dependency" data-source-line="78" id="lnk27"><path d="M105.83,896.3634 C105.83,905.9805 105.83,908.0767 105.83,917.6937" fill="none" id="FB-to-ES" style="stroke:#64748B;stroke-width:1.558;"/><polygon fill="#64748B" points="105.83,926.1919,111.4954,913.4447,105.83,919.1101,100.1645,913.4447,105.83,926.1919" style="stroke:#64748B;stroke-width:1.558;"/></g><!--link Kib to ES--><g class="link" data-entity-1="ent0017" data-entity-2="ent0016" data-link-type="dependency" data-source-line="79" id="lnk28"><path d="M189.3382,896.3634 C189.3382,905.9805 189.3382,908.0767 189.3382,917.6937" fill="none" id="Kib-to-ES" style="stroke:#64748B;stroke-width:1.558;"/><polygon fill="#64748B" points="189.3382,926.1919,195.0036,913.4447,189.3382,919.1101,183.6728,913.4447,189.3382,926.1919" style="stroke:#64748B;stroke-width:1.558;"/></g><!--link Graf to Prom--><g class="link" data-entity-1="ent0012" data-entity-2="ent0013" data-link-type="dependency" data-source-line="81" id="lnk29"><path d="M855.0953,218.3265 C855.0953,234.3172 855.0953,245.2372 855.0953,261.2704" fill="none" id="Graf-to-Prom" style="stroke:#64748B;stroke-width:1.558;"/><polygon fill="#64748B" points="855.0953,269.7685,860.7607,257.0213,855.0953,262.6867,849.4299,257.0213,855.0953,269.7685" style="stroke:#64748B;stroke-width:1.558;"/></g><!--link Prom to Http--><g class="link" data-entity-1="ent0013" data-entity-2="ent0004" data-link-type="dependency" data-source-line="82" id="lnk30"><path d="M785,332.6546 C785,369.0407 785,420.1994 785,456.5431" fill="none" id="Prom-to-Http" style="stroke:#64748B;stroke-width:1.558;stroke-dasharray:9.9145,9.9145;"/><polygon fill="#64748B" points="785,465.0412,790.6654,452.294,785,457.9594,779.3345,452.294,785,465.0412" style="stroke:#64748B;stroke-width:1.558;"/><text fill="#000000" font-family="'Arial'" font-size="12.7472" lengthAdjust="spacing" textLength="88.7199" x="794.9144" y="386.595">:8000/metrics</text></g><!--link Bbx to Http--><g class="link" data-entity-1="ent0014" data-entity-2="ent0004" data-link-type="dependency" data-source-line="83" id="lnk31"><path d="M720.6975,218.4682 C720.6975,277.7142 720.6975,397.0421 720.6975,456.359" fill="none" id="Bbx-to-Http" style="stroke:#64748B;stroke-width:1.558;stroke-dasharray:9.9145,9.9145;"/><polygon fill="#64748B" points="720.6975,464.8571,726.3629,452.1099,720.6975,457.7753,715.0321,452.1099,720.6975,464.8571" style="stroke:#64748B;stroke-width:1.558;"/><text fill="#000000" font-family="'Arial'" font-size="12.7472" lengthAdjust="spacing" textLength="77.5599" x="634.2999" y="329.4168">:8000/ready</text></g><!--link App to GMN32--><g class="link" data-entity-1="ent0005" data-entity-2="ent0033" data-link-type="association" data-source-line="86" id="lnk34"><path d="M649.4266,613.7584 C649.4266,639.2952 649.4266,671.0357 649.4266,671.0357 C649.4266,671.0357 627.6147,671.0357 596.6957,671.0357" fill="none" id="App-GMN32" style="stroke:#64748B;stroke-width:1.558;stroke-dasharray:9.9145,9.9145;"/></g><?plantuml-src XLRTKXit5BxVfpX3BmBJOcp2NyXCfnZZ90qX59Fs8it4sjrZhu9MKYKju7GwquVek_I-Zz8dwIVPPXPCcXll-loVxtmwsYSqgeJZaiwLqE7TcrFoLrBJkjIVk0YGYqbWHp_u85neQaNvZ7pXf0r-o_6KDJiH-6Df2j-nCveOHw-TkPBafPugtfn8nUHOb-msiYTqERDcweIjPeTqvAHGMozPNNEGXI2aAAwe5g6es5EOMGWLdKhTt99dTuqo9aO7J-ifmmRz--TV9AwDB3sDU6fuqsWrezB9IUXaiGqhdAZ9Lw8qDoY79a9vRccKr8myJCQ5ohGKXQcjqQp3ACnI_KKGiPsMYKMnOifVDYXv8XeLXYZvJDHCQwdVjSSjHl8pKwyBXFe2WoZua8ASLe5OcsPQKJ3pJgbgfanJOVrtf8pnt39GifQ1bCXPRGddp0qPOAQ4xT38AgXAAO1zxKbE0BPKYWfObLosqTAcPC-MjhijeHFwAWfx-otXkIZBYEfUkoKhwTaUsdYd9RXG4zzQW4itiWnLOeSICzE4vpJw-KMS-Cp7-JXB8f3GC_fiJ4qWOAYOSbI7mNSGxkAEQWHlsu05Ss8M5N2FLOHAUheMgc5Q7uzhSSKKIGa2tex7j4NZyIfTn-CDj0wMCOhkpejiTsqQNHR6mOaEKX4-E07Eb9Y-uX0m9SqDPChJjmJ2K1xpYw80TMXTMC1UY22DXaEeDfxJZG0cGK8RiR3ilFI1CU_s28xYy8wDWiKtUplxEmVzXyhBIXPNchsdNgVtK7d7fsVtXfNesZSE9t4H-xW_s3tfFMA4npGrlp0SzeQxmtQqYoNVxyNRtjrxUj9_r6mbui7mQ7ZSCXs887BX7nIulTFhFcgr4cyut3yPj2pFGEDxiLQ0J1PVhUke2CRT2zJTsJ_OtLynUHZfv7Wu6ExU0zTXpKcBDVl_gBKDlrhVY7zh8d_UW0mOtP6IKqsHVkpQJ6QFVUQNLdrMvYPnXO9hsakh5hSBcyIWWoyqi3pwlQSjVT_SBkK7MP01f-haye96eIbdT7J-AkthunqwvMjMj4th1OWQZvFp6raMZ8rBB3SXO0EKCgvK79mi4n5UMdk5bh2zyBv6mjEnacWoonPh6DiL2Qmp1Qh_LQ_FRnziMAlCJEIADvBNEGpezupe_SlBotFwvsyQ2X_W-Y5gNuPWesvWQfILxXo9U4btP9FgWgtn4aN8XVnyVeIXYzwq-RwIPSdw0suSlRdmmkz3nTBjZomh5vocjIMxKwc3FBkxLT2TuZgNHTAyaTDMts_pMAV89JRy39qR6s4JQjumjFD-NpWn4LgackDxb06Dch5ecqKh-1l5VONOkRbDmdv-6ukyItTgfcIbvNXrhcI3SfGkyPJoH05RMNWMhgXIi9DHbB-M-R8Il4R941y9EOkGPCD-J1YvDi7eQUriyEFexHbkkwbV9edsMJQd06rkVZ_7_f3YK4VOzT4Xcyy3oZY4D0AyBt5VF9DiaCDrzDDf1c2fqra8QXdPXkPybhoZOfbwyKmob3lifpZe3lqiNxE8yZndn3N-9Fj5gOS7tMvt2_0x89G1vLMbOr7EiamRN7gBOs4c2qhzucJ0Hr9ZotWbUeqFWih4Ir7ZYyrQV6_1oF6rv9kFG0wOuB1v2q8r_YFEN_oC0iNZbONhItkH3bidWoF5XDb_?></g></svg>
