<?plantuml 1.2026.1?><svg xmlns="http://www.w3.org/2000/svg" xmlns:xlink="http://www.w3.org/1999/xlink" contentStyleType="text/css" data-diagram-type="DESCRIPTION" height="518.4516px" preserveAspectRatio="none" style="width:980px;height:518px;background:#FFFFFF;" version="1.1" viewBox="0 0 980 518" width="980.7903px" zoomAndPan="magnify"><title>ETR Study API &#8212; request path across layers (internal overview)</title><defs/><g><g class="title" data-source-line="39"><text fill="#000000" font-family="'Arial'" font-size="11.0645" font-weight="bold" lengthAdjust="spacing" textLength="397.053" x="286.3364" y="22.9155">ETR Study API &#8212; request path across layers (internal overview)</text></g><!--cluster Api--><g class="cluster" data-qualified-name="Api" data-source-line="48" id="ent0003"><rect fill="#F8FAFC" height="160.6568" rx="3.1613" ry="3.1613" style="stroke:#2563EB;stroke-width:0.7903;" width="156.4839" x="5.5323" y="122.0549"/><text fill="#000000" font-family="'Arial'" font-size="7.9032" font-weight="bold" lengthAdjust="spacing" textLength="86.6924" x="40.428" y="135.7135">API layer &#8212; app/api</text></g><!--cluster AppLayer--><g class="cluster" data-qualified-name="AppLayer" data-source-line="54" id="ent0007"><rect fill="#F8FAFC" height="179.6245" rx="3.1613" ry="3.1613" style="stroke:#2563EB;stroke-width:0.7903;" width="211.0161" x="356.4355" y="202.3833"/><text fill="#000000" font-family="'Arial'" font-size="7.9032" font-weight="bold" lengthAdjust="spacing" textLength="189.6465" x="367.1203" y="216.0419">Application &#8212; app/services, app/validation</text></g><!--cluster PerLayer--><g class="cluster" data-qualified-name="PerLayer" data-source-line="60" id="ent0011"><rect fill="#F8FAFC" height="140.1084" rx="3.1613" ry="3.1613" style="stroke:#2563EB;stroke-width:0.7903;" width="204.6935" x="771.3548" y="301.6795"/><text fill="#000000" font-family="'Arial'" font-size="7.9032" font-weight="bold" lengthAdjust="spacing" textLength="183.2136" x="782.0948" y="315.338">Persistence &#8212; app/repositories, app/core</text></g><!--entity Router--><g class="entity" data-qualified-name="Api.Router" data-source-line="49" id="ent0004"><rect fill="#F1F1F1" height="34.4902" rx="3.1613" ry="3.1613" style="stroke:#181818;stroke-width:0.3952;" width="85.3325" x="52.1692" y="155.2485"/><text fill="#000000" font-family="'Arial'" font-size="7.9032" lengthAdjust="spacing" textLength="60.0421" x="64.8144" y="175.2296">FastAPI routers</text></g><!--entity Schema--><g class="entity" data-qualified-name="Api.Schema" data-source-line="50" id="ent0005"><rect fill="#F1F1F1" height="34.4902" rx="3.1613" ry="3.1613" style="stroke:#181818;stroke-width:0.3952;" width="130.7027" x="18.4224" y="235.5769"/><text fill="#000000" font-family="'Arial'" font-size="7.9032" lengthAdjust="spacing" textLength="105.4124" x="31.0676" y="255.558">Pydantic request/response</text></g><!--entity Service--><g class="entity" data-qualified-name="AppLayer.Service" data-source-line="55" id="ent0008"><rect fill="#F1F1F1" height="34.4902" rx="3.1613" ry="3.1613" style="stroke:#181818;stroke-width:0.3952;" width="58.6166" x="467.8077" y="235.5769"/><text fill="#000000" font-family="'Arial'" font-size="7.9032" lengthAdjust="spacing" textLength="33.3263" x="480.4529" y="255.558">Services</text></g><!--entity Val--><g class="entity" data-qualified-name="AppLayer.Val" data-source-line="56" id="ent0009"><rect fill="#F1F1F1" height="34.4902" rx="3.1613" ry="3.1613" style="stroke:#181818;stroke-width:0.3952;" width="115.5523" x="439.3403" y="334.873"/><text fill="#000000" font-family="'Arial'" font-size="7.9032" lengthAdjust="spacing" textLength="90.2619" x="451.9855" y="354.8541">Validation at boundary</text></g><!--entity Repo--><g class="entity" data-qualified-name="PerLayer.Repo" data-source-line="61" id="ent0012"><rect fill="#F1F1F1" height="34.4902" rx="3.1613" ry="3.1613" style="stroke:#181818;stroke-width:0.3952;" width="74.1684" x="802.2406" y="334.873"/><text fill="#000000" font-family="'Arial'" font-size="7.9032" lengthAdjust="spacing" textLength="48.8781" x="814.8858" y="354.8541">Repositories</text></g><!--entity UoW--><g class="entity" data-qualified-name="PerLayer.UoW" data-source-line="62" id="ent0013"><rect fill="#F1F1F1" height="34.4902" rx="3.1613" ry="3.1613" style="stroke:#181818;stroke-width:0.3952;" width="110.2114" x="784.2134" y="394.653"/><text fill="#000000" font-family="'Arial'" font-size="7.9032" lengthAdjust="spacing" textLength="84.9211" x="796.8585" y="414.6341">Session / unit of work</text></g><!--entity Client--><g class="entity" data-qualified-name="Client" data-source-line="46" id="ent0002"><ellipse cx="94.8352" cy="50.0249" fill="#ECFDF5" rx="6.3226" ry="6.3226" style="stroke:#047857;stroke-width:0.3952;"/><path d="M94.8352,56.3475 L94.8352,77.6862 M84.561,62.6701 L105.1094,62.6701 M94.8352,77.6862 L84.561,89.5411 M94.8352,77.6862 L105.1094,89.5411" fill="none" style="stroke:#047857;stroke-width:0.3952;"/><text fill="#000000" font-family="'Arial'" font-size="7.9032" lengthAdjust="spacing" textLength="44.583" x="72.5437" y="102.8045">HTTP client</text></g><!--entity Db--><g class="entity" data-qualified-name="Db" data-source-line="66" id="ent0015"><path d="M796.9455,462.3362 C796.9455,454.433 839.3204,454.433 839.3204,454.433 C839.3204,454.433 881.6952,454.433 881.6952,462.3362 L881.6952,497.3327 C881.6952,505.2359 839.3204,505.2359 839.3204,505.2359 C839.3204,505.2359 796.9455,505.2359 796.9455,497.3327 L796.9455,462.3362" fill="#FFF7ED" style="stroke:#C2410C;stroke-width:0.3952;"/><path d="M796.9455,462.3362 C796.9455,470.2395 839.3204,470.2395 839.3204,470.2395 C839.3204,470.2395 881.6952,470.2395 881.6952,462.3362" fill="none" style="stroke:#C2410C;stroke-width:0.3952;"/><text fill="#000000" font-family="'Arial'" font-size="7.9032" lengthAdjust="spacing" textLength="25.7974" x="809.5906" y="485.4786">SQLite</text><text fill="#000000" font-family="'Arial'" font-size="7.9032" lengthAdjust="spacing" textLength="59.4594" x="809.5906" y="494.6785">(study_app.db)</text></g><g class="entity" data-qualified-name="GMN23" data-source-line="77" id="ent0024"><path d="M174.5744,238.0901 L174.5744,267.5543 A3.1613,3.1613 0 0 0 177.7356,270.7156 L340.7088,270.7156 A3.1613,3.1613 0 0 0 343.8701,267.5543 L343.8701,242.832 L335.9669,234.9288 L177.7356,234.9288 A3.1613,3.1613 0 0 0 174.5744,238.0901" fill="#FEFFDD" style="stroke:#181818;stroke-width:0.3952;"/><path d="M335.9669,234.9288 L335.9669,241.2514 A1.5806,1.5806 0 0 0 337.5475,242.832 L343.8701,242.832 L335.9669,234.9288" fill="#FEFFDD" style="stroke:#181818;stroke-width:0.7903;"/><text fill="#000000" font-family="'Arial'" font-size="7.9032" lengthAdjust="spacing" textLength="143.2151" x="184.0582" y="250.9583">Declares OpenAPI and status codes;</text><text fill="#000000" font-family="'Arial'" font-size="7.9032" lengthAdjust="spacing" textLength="115.2721" x="184.0582" y="260.1582">does not hold business rules.</text></g><g class="entity" data-qualified-name="GMN26" data-source-line="82" id="ent0027"><path d="M579.8834,337.3862 L579.8834,366.8505 A3.1613,3.1613 0 0 0 583.0447,370.0117 L755.7695,370.0117 A3.1613,3.1613 0 0 0 758.9308,366.8505 L758.9308,342.1282 L751.0276,334.2249 L583.0447,334.2249 A3.1613,3.1613 0 0 0 579.8834,337.3862" fill="#FEFFDD" style="stroke:#181818;stroke-width:0.3952;"/><path d="M751.0276,334.2249 L751.0276,340.5475 A1.5806,1.5806 0 0 0 752.6082,342.1282 L758.9308,342.1282 L751.0276,334.2249" fill="#FEFFDD" style="stroke:#181818;stroke-width:0.7903;"/><text fill="#000000" font-family="'Arial'" font-size="7.9032" lengthAdjust="spacing" textLength="131.2561" x="589.3673" y="350.2545">Business logic and orchestration;</text><text fill="#000000" font-family="'Arial'" font-size="7.9032" lengthAdjust="spacing" textLength="152.9668" x="589.3673" y="359.4543">keeps persistence behind repositories.</text></g><!--link Router to Schema--><!--link Router to Schema--><g class="link" data-entity-1="ent0004" data-entity-2="ent0005" data-link-type="dependency" data-source-line="69" id="lnk17"><path d="M109.0645,190.1175 C109.0645,203.5135 109.0645,217.107 109.0645,230.4872" fill="none" id="Router-to-Schema" style="stroke:#64748B;stroke-width:0.8694;"/><polygon fill="#64748B" points="109.0645,235.2291,112.2258,228.1162,109.0645,231.2775,105.9032,228.1162,109.0645,235.2291" style="stroke:#64748B;stroke-width:0.8694;"/><text fill="#000000" font-family="'Arial'" font-size="7.1129" lengthAdjust="spacing" textLength="17.7753" x="114.5968" y="189.2434">bind,</text><text fill="#000000" font-family="'Arial'" font-size="7.1129" lengthAdjust="spacing" textLength="2.261" x="132.3721" y="189.2434">&#160;</text><text fill="#000000" font-family="'Arial'" font-size="7.1129" lengthAdjust="spacing" textLength="30.8203" x="134.6331" y="189.2434">validate,</text><text fill="#000000" font-family="'Arial'" font-size="7.1129" lengthAdjust="spacing" textLength="15.8026" x="116.2795" y="197.5233">map</text><text fill="#000000" font-family="'Arial'" font-size="7.1129" lengthAdjust="spacing" textLength="2.261" x="132.0821" y="197.5233">&#160;</text><text fill="#000000" font-family="'Arial'" font-size="7.1129" lengthAdjust="spacing" textLength="21.2067" x="134.3431" y="197.5233">errors</text><text fill="#000000" font-family="'Arial'" font-size="7.1129" lengthAdjust="spacing" textLength="2.261" x="155.5498" y="197.5233">&#160;</text><text fill="#000000" font-family="'Arial'" font-size="7.1129" lengthAdjust="spacing" textLength="5.9598" x="157.8108" y="197.5233">&#8594;</text><text fill="#000000" font-family="'Arial'" font-size="7.1129" lengthAdjust="spacing" textLength="18.3275" x="130.8613" y="205.8032">HTTP</text></g><!--link Service to Val--><!--link Service to Val--><g class="link" data-entity-1="ent0008" data-entity-2="ent0009" data-link-type="dependency" data-source-line="71" id="lnk19"><path d="M506.8813,270.3432 C506.8813,288.4969 506.8813,311.9379 506.8813,330.0283" fill="none" id="Service-to-Val" style="stroke:#64748B;stroke-width:0.8694;"/><polygon fill="#64748B" points="506.8813,334.7703,510.0426,327.6574,506.8813,330.8187,503.72,327.6574,506.8813,334.7703" style="stroke:#64748B;stroke-width:0.8694;"/><text fill="#000000" font-family="'Arial'" font-size="7.1129" lengthAdjust="spacing" textLength="26.9512" x="518.1389" y="279.1268">enforce</text><text fill="#000000" font-family="'Arial'" font-size="7.1129" lengthAdjust="spacing" textLength="2.261" x="545.0902" y="279.1268">&#160;</text><text fill="#000000" font-family="'Arial'" font-size="7.1129" lengthAdjust="spacing" textLength="17.4905" x="547.3512" y="279.1268">rules</text><text fill="#000000" font-family="'Arial'" font-size="7.1129" lengthAdjust="spacing" textLength="22.0021" x="512.4135" y="287.4067">where</text><text fill="#000000" font-family="'Arial'" font-size="7.1129" lengthAdjust="spacing" textLength="2.261" x="534.4156" y="287.4067">&#160;</text><text fill="#000000" font-family="'Arial'" font-size="7.1129" lengthAdjust="spacing" textLength="33.8905" x="536.6766" y="287.4067">boundary</text><text fill="#000000" font-family="'Arial'" font-size="7.1129" lengthAdjust="spacing" textLength="24.5305" x="518.3074" y="295.6866">checks</text><text fill="#000000" font-family="'Arial'" font-size="7.1129" lengthAdjust="spacing" textLength="2.261" x="542.8379" y="295.6866">&#160;</text><text fill="#000000" font-family="'Arial'" font-size="7.1129" lengthAdjust="spacing" textLength="19.5744" x="545.0989" y="295.6866">apply</text></g><!--link Repo to UoW--><!--link Repo to UoW--><g class="link" data-entity-1="ent0012" data-entity-2="ent0013" data-link-type="dependency" data-source-line="73" id="lnk21"><path d="M851.6832,369.7262 C851.6832,377.5109 851.6832,381.8972 851.6832,389.6661" fill="none" id="Repo-to-UoW" style="stroke:#64748B;stroke-width:0.8694;"/><polygon fill="#64748B" points="851.6832,394.408,854.8445,387.2951,851.6832,390.4564,848.5219,387.2951,851.6832,394.408" style="stroke:#64748B;stroke-width:0.8694;"/><text fill="#000000" font-family="'Arial'" font-size="7.1129" lengthAdjust="spacing" textLength="16.6778" x="857.2155" y="375.238">ORM</text><text fill="#000000" font-family="'Arial'" font-size="7.1129" lengthAdjust="spacing" textLength="2.261" x="873.8933" y="375.238">&#160;</text><text fill="#000000" font-family="'Arial'" font-size="7.1129" lengthAdjust="spacing" textLength="37.8568" x="876.1543" y="375.238">operations</text></g><!--link Client to Router--><g class="link" data-entity-1="ent0002" data-entity-2="ent0004" data-link-type="dependency" data-source-line="68" id="lnk16"><path d="M94.8387,109.7101 C94.8387,124.8922 94.8387,137.5058 94.8387,150.1114" fill="none" id="Client-to-Router" style="stroke:#64748B;stroke-width:0.8694;"/><polygon fill="#64748B" points="94.8387,154.8533,98,147.7404,94.8387,150.9017,91.6774,147.7404,94.8387,154.8533" style="stroke:#64748B;stroke-width:0.8694;"/><text fill="#000000" font-family="'Arial'" font-size="7.1129" lengthAdjust="spacing" textLength="22.8426" x="100.371" y="125.4486">HTTPS</text><text fill="#000000" font-family="'Arial'" font-size="7.1129" lengthAdjust="spacing" textLength="2.261" x="123.2135" y="125.4486">&#160;</text><text fill="#000000" font-family="'Arial'" font-size="7.1129" lengthAdjust="spacing" textLength="2.3964" x="125.4745" y="125.4486">/</text><text fill="#000000" font-family="'Arial'" font-size="7.1129" lengthAdjust="spacing" textLength="2.261" x="127.871" y="125.4486">&#160;</text><text fill="#000000" font-family="'Arial'" font-size="7.1129" lengthAdjust="spacing" textLength="17.5322" x="130.1319" y="125.4486">JSON</text></g><!--link Router to Service--><g class="link" data-entity-1="ent0004" data-entity-2="ent0008" data-link-type="dependency" data-source-line="70" id="lnk18"><path d="M137.8876,166.9769 C241.6648,166.9769 497.1129,166.9769 497.1129,166.9769 C497.1129,166.9769 497.1129,205.3866 497.1129,230.4951" fill="none" id="Router-to-Service" style="stroke:#64748B;stroke-width:0.8694;"/><polygon fill="#64748B" points="497.1129,235.237,500.2742,228.1241,497.1129,231.2854,493.9516,228.1241,497.1129,235.237" style="stroke:#64748B;stroke-width:0.8694;"/><text fill="#000000" font-family="'Arial'" font-size="7.1129" lengthAdjust="spacing" textLength="12.2218" x="301.0497" y="160.1438">call</text><text fill="#000000" font-family="'Arial'" font-size="7.1129" lengthAdjust="spacing" textLength="2.261" x="313.2715" y="160.1438">&#160;</text><text fill="#000000" font-family="'Arial'" font-size="7.1129" lengthAdjust="spacing" textLength="12.59" x="315.5325" y="160.1438">use</text><text fill="#000000" font-family="'Arial'" font-size="7.1129" lengthAdjust="spacing" textLength="2.261" x="328.1225" y="160.1438">&#160;</text><text fill="#000000" font-family="'Arial'" font-size="7.1129" lengthAdjust="spacing" textLength="16.3513" x="330.3835" y="160.1438">case</text></g><!--link Service to Repo--><g class="link" data-entity-1="ent0008" data-entity-2="ent0012" data-link-type="dependency" data-source-line="72" id="lnk20"><path d="M526.584,247.5898 C609.5916,247.5898 839.3226,247.5898 839.3226,247.5898 C839.3226,247.5898 839.3226,300.1225 839.3226,329.8782" fill="none" id="Service-to-Repo" style="stroke:#64748B;stroke-width:0.8694;"/><polygon fill="#64748B" points="839.3226,334.6201,842.4839,327.5072,839.3226,330.6685,836.1613,327.5072,839.3226,334.6201" style="stroke:#64748B;stroke-width:0.8694;"/><text fill="#000000" font-family="'Arial'" font-size="7.1129" lengthAdjust="spacing" textLength="16.1742" x="680.6337" y="240.7567">read</text><text fill="#000000" font-family="'Arial'" font-size="7.1129" lengthAdjust="spacing" textLength="2.261" x="696.8079" y="240.7567">&#160;</text><text fill="#000000" font-family="'Arial'" font-size="7.1129" lengthAdjust="spacing" textLength="2.3964" x="699.0689" y="240.7567">/</text><text fill="#000000" font-family="'Arial'" font-size="7.1129" lengthAdjust="spacing" textLength="2.261" x="701.4653" y="240.7567">&#160;</text><text fill="#000000" font-family="'Arial'" font-size="7.1129" lengthAdjust="spacing" textLength="17.883" x="703.7263" y="240.7567">write</text></g><!--link UoW to Db--><g class="link" data-entity-1="ent0013" data-entity-2="ent0015" data-link-type="dependency" data-source-line="74" id="lnk22"><path d="M839.3226,429.3956 C839.3226,436.9432 839.3226,441.1793 839.3226,449.454" fill="none" id="UoW-to-Db" style="stroke:#64748B;stroke-width:0.8694;"/><polygon fill="#64748B" points="839.3226,454.1959,842.4839,447.083,839.3226,450.2443,836.1613,447.083,839.3226,454.1959" style="stroke:#64748B;stroke-width:0.8694;"/><text fill="#000000" font-family="'Arial'" font-size="7.1129" lengthAdjust="spacing" textLength="14.0765" x="820.3548" y="434.9626">SQL</text></g><!--link Router to GMN23--><g class="link" data-entity-1="ent0004" data-entity-2="ent0024" data-link-type="association" data-source-line="77" id="lnk25"><path d="M137.8165,178.8317 C186.524,178.8317 259.2258,178.8317 259.2258,178.8317 C259.2258,178.8317 259.2258,213.0132 259.2258,234.913" fill="none" id="Router-GMN23" style="stroke:#64748B;stroke-width:0.8694;stroke-dasharray:5.5323,5.5323;"/></g><!--link Service to GMN26--><g class="link" data-entity-1="ent0008" data-entity-2="ent0027" data-link-type="association" data-source-line="82" id="lnk28"><path d="M526.7342,258.6543 C575.9871,258.6543 669.4032,258.6543 669.4032,258.6543 C669.4032,258.6543 669.4032,306.6743 669.4032,333.8772" fill="none" id="Service-GMN26" style="stroke:#64748B;stroke-width:0.8694;stroke-dasharray:5.5323,5.5323;"/></g><?plantuml-src XLRBSXit4BplLqmf1qiLKH9jlInLfI9AOfn4iXLHTWwsomGNGov24DW0M57hLAfooWUayeN-aZH0hhnwE3wHn3I0Ha_F39_Ge12E9LreOSBhypFoKsLeLPdVE0zO5-F0ZhxtGRXGpJIDQlAvKsNmcuudRDY9m1-apVr6MTFOElhPsQaYhyn4SsUiD9DZ8zcjPK_egYxjn8cog0_eo2cXDr-mlkQWSa6u8f_IJ8IyO4-XBh6ewKoPweOykslG65iJFAsc6zReqr__ahYsIdeQyCHonnfTatHg73Qo-8nIE34ZNmXfvw13Ow4zjo9Q6SOzJDQ5mhO2kPsLrh09Wr0d_daGyJajI0coOi9V1aWUYqg7FYY_53EcbVJUbSSH0_MHgRi5XNe2YSZvW8AQ587Os6fIKB2Bbr9HJPWcelJhfAtrt09eDLE1j1YntXJEsJbPQAP5kK63KYCabO3sCqzg3B6LrfG39LcsrJ9MikUIdcwr5fqmqxZOtMijNWWfewgxxIULYfxluXclZO8NPiGt9SIbkPAXIExGehPLEAJ1cnzYnciVy-DA4e64gUcZjJE20KF1D08x97u3nrtUMesmkwpWWeKnymAwHnQXK9wkXQwOLeV3cPWoHLF2W3V38MtISFZGhiFX6fuEbp58Ror8jbzjAoDpwx29zXC97vo0PoIohpa4PCbmXJNjwLk2OMWKxnTv3klGgYWXUow2iWORGh5sI7C1JO92D6fHilFA1qQ-soauYiaxjXg8RtQtzxRtU_U3LuNAfuQzf-v6ztxmra_FxoGhsRLd7IfnUVPnxsJdjFi821-JzFWbiD_jx_JRfrqsVhzptjETtMUdlKTX3qxSxn_rZrlG4n74IFXx19zkTxSUHJquhz_VEprf8L_2ndVEUY1aGdoLrr4UhBjpqDRstlxEtWF8_PDEZ_id_PqxuZgqELMYpVw_QctWL_aD-FSg-kSSPa3gZhIQ68hsOzTsCdlqCz-WUgpjF7c5WglQJMicRfQOvA3zBpoWAVtkirQyPs-QzVqig82gEhswf46eP4r75p-cVkqYNnzIFQ1Gd8M7qH9G277cWBL1puzzwrhnV2r3rPsZucWCmXGBd2C7eG_H8s9PtZPg7ujfSH9XdYs62GgrsQ1h7BLgRC1WajmPrPtukKRUfbQpR8tBZcHI-uoT9zWojjQH3G5zIQhOw57EowO1jUZvVjCuCX6DG2ilhgukADSAh5P8U3fENxDiEJ4m2A35WccQO6MvAKgLe4TedtzaH6_xmeS8G-wXYNyVWvVfUunUr199K7cZvcQJtuGRO7xE172B3THvMoWfsRp753IT9lndcr2hKJMKuiHLEMFEn5zeh4ecm99dUPOUaCWEbj35xOiVSVtDxQROtKVHniBL2OKG44liVOOnsAPtyRbDtj9pN5gleBTgAA9HSo87U8lSPGkua14B2zRUHsgRL1aCHpkckNNJ17bjVuto0NYVMeo0cbps8LeP_7Ac0hypgpxQ_0E8RCZHMk9nCigoHUwfq_ckoSO1HNyCSErFWrSlioP702mI0y186RbEIybv_PsPYP8ObaIHVFhxdtJ0dOrB6Gye6fqgyCf1BhkL5nXeYZWRZ1sik4gpVsVc1QDKciHWbd8-zL5CL4jxSrBY06uJ4hpd3Y_E5keW24aGUtLvJhQCqnMQ-Ymknk39235eb6KeFMxg25hVclc4Sus2zVIgP1CjBuoCPHWgZ-h6Vv53WAG581PlORMaKOK_bt7ufMTiPFXt6OFyu9BFNkmrMxITe6xY7H2YI0CzCewNJ9bBtvx9DE82gQ2srrgt_GS0?></g></svg>
