<?plantuml 1.2026.1?><svg xmlns="http://www.w3.org/2000/svg" xmlns:xlink="http://www.w3.org/1999/xlink" contentStyleType="text/css" data-diagram-type="STATE" height="517px" preserveAspectRatio="none" style="width:713px;height:517px;background:#FFFFFF;" version="1.1" viewBox="0 0 713 517" width="713px" zoomAndPan="magnify"><title>Docs frontend &#8212; Command palette state machine</title><defs/><g><g class="title" data-source-line="44"><text fill="#000000" font-family="'Arial'" font-size="14" font-weight="bold" lengthAdjust="spacing" textLength="392.2393" x="153.4362" y="26.9951">Docs frontend &#8212; Command palette state machine</text></g><g><rect fill="#F1F1F1" height="82.5625" rx="3" ry="3" style="stroke:#181818;stroke-width:0.5;" width="141.1836" x="488.03" y="428.7369"/><line style="stroke:#181818;stroke-width:0.5;" x1="488.03" x2="629.2136" y1="458.3775" y2="458.3775"/><text fill="#000000" font-family="'Arial'" font-size="10" lengthAdjust="spacing" textLength="33.5889" x="541.8274" y="447.0191">Closed</text><text fill="#000000" font-family="'Arial'" font-size="10" lengthAdjust="spacing" textLength="113.1836" x="497.03" y="476.6597">palette overlay hidden</text><text fill="#000000" font-family="'Arial'" font-size="10" lengthAdjust="spacing" textLength="102.9443" x="497.03" y="488.3004">body scroll unlocked</text><text fill="#000000" font-family="'Arial'" font-size="10" lengthAdjust="spacing" textLength="90.0635" x="497.03" y="499.941">focus on the page</text></g><g><rect fill="#F1F1F1" height="82.5625" rx="3" ry="3" style="stroke:#181818;stroke-width:0.5;" width="160.3096" x="280.47" y="53.7669"/><line style="stroke:#181818;stroke-width:0.5;" x1="280.47" x2="440.7796" y1="83.4075" y2="83.4075"/><text fill="#000000" font-family="'Arial'" font-size="10" lengthAdjust="spacing" textLength="26.709" x="347.2703" y="72.0491">Open</text><text fill="#000000" font-family="'Arial'" font-size="10" lengthAdjust="spacing" textLength="110.8447" x="289.47" y="101.6897">palette overlay visible</text><text fill="#000000" font-family="'Arial'" font-size="10" lengthAdjust="spacing" textLength="132.3096" x="289.47" y="113.3304">empty input, full result list</text><text fill="#000000" font-family="'Arial'" font-size="10" lengthAdjust="spacing" textLength="98.0469" x="289.47" y="124.971">focus inside palette</text></g><g><rect fill="#F1F1F1" height="82.5625" rx="3" ry="3" style="stroke:#181818;stroke-width:0.5;" width="188.0244" x="266.61" y="153.3269"/><line style="stroke:#181818;stroke-width:0.5;" x1="266.61" x2="454.6344" y1="182.9675" y2="182.9675"/><text fill="#000000" font-family="'Arial'" font-size="10" lengthAdjust="spacing" textLength="40.957" x="340.1437" y="171.6091">Filtering</text><text fill="#000000" font-family="'Arial'" font-size="10" lengthAdjust="spacing" textLength="160.0244" x="275.61" y="201.2497">input has at least one character</text><text fill="#000000" font-family="'Arial'" font-size="10" lengthAdjust="spacing" textLength="106.123" x="275.61" y="212.8904">result list filtered live</text><text fill="#000000" font-family="'Arial'" font-size="10" lengthAdjust="spacing" textLength="136.9873" x="275.61" y="224.531">first result auto-highlighted</text></g><g><rect fill="#F1F1F1" height="70.9219" rx="3" ry="3" style="stroke:#181818;stroke-width:0.5;" width="208.8252" x="27.21" y="252.8869"/><line style="stroke:#181818;stroke-width:0.5;" x1="27.21" x2="236.0352" y1="282.5275" y2="282.5275"/><text fill="#000000" font-family="'Arial'" font-size="10" lengthAdjust="spacing" textLength="43.3496" x="109.9478" y="271.1691">Selected</text><text fill="#000000" font-family="'Arial'" font-size="10" lengthAdjust="spacing" textLength="130.2148" x="36.21" y="300.8097">a result row is highlighted</text><text fill="#000000" font-family="'Arial'" font-size="10" lengthAdjust="spacing" textLength="180.8252" x="36.21" y="312.4504">activation runs that row's command</text></g><g><rect fill="#F1F1F1" height="70.9219" rx="3" ry="3" style="stroke:#181818;stroke-width:0.5;" width="167.1113" x="360.07" y="340.8169"/><line style="stroke:#181818;stroke-width:0.5;" x1="360.07" x2="527.1813" y1="370.4575" y2="370.4575"/><text fill="#000000" font-family="'Arial'" font-size="10" lengthAdjust="spacing" textLength="36.5527" x="425.3493" y="359.0991">Closing</text><text fill="#000000" font-family="'Arial'" font-size="10" lengthAdjust="spacing" textLength="129.6729" x="369.07" y="388.7397">closing animation in flight</text><text fill="#000000" font-family="'Arial'" font-size="10" lengthAdjust="spacing" textLength="139.1113" x="369.07" y="400.3804">focus restoration scheduled</text></g><ellipse cx="599.62" cy="376.2769" fill="#222222" rx="10" ry="10" style="stroke:#222222;stroke-width:1;"/><g class="entity" data-qualified-name="GMN2" data-source-line="71" id="ent0003"><path d="M461.14,77.4069 L461.14,91.2969 L441.13,95.2969 L461.14,99.2969 L461.14,112.6881 A3,3 0 0 0 464.14,115.6881 L703.1117,115.6881 A3,3 0 0 0 706.1117,112.6881 L706.1117,84.4069 L696.1117,74.4069 L464.14,74.4069 A3,3 0 0 0 461.14,77.4069" fill="#FEFFDD" style="stroke:#181818;stroke-width:0.5;"/><path d="M696.1117,74.4069 L696.1117,82.9069 A1.5,1.5 0 0 0 697.6117,84.4069 L706.1117,84.4069 L696.1117,74.4069" fill="#FEFFDD" style="stroke:#181818;stroke-width:0.5;"/><text fill="#000000" font-family="'Arial'" font-size="10" lengthAdjust="spacing" textLength="215.9717" x="471.14" y="92.6891">result rows are virtualized for &gt;200 entries</text><text fill="#000000" font-family="'Arial'" font-size="10" lengthAdjust="spacing" textLength="159.165" x="471.14" y="104.3297">data source: docs-portal-data.js</text></g><g class="entity" data-qualified-name="GMN5" data-source-line="76" id="ent0006"><path d="M273.91,259.0669 L273.91,295.2969 L236.49,299.2969 L273.91,303.2969 L273.91,317.6294 A3,3 0 0 0 276.91,320.6294 L440.3446,320.6294 A3,3 0 0 0 443.3446,317.6294 L443.3446,266.0669 L433.3446,256.0669 L276.91,256.0669 A3,3 0 0 0 273.91,259.0669" fill="#FEFFDD" style="stroke:#181818;stroke-width:0.5;"/><path d="M433.3446,256.0669 L433.3446,264.5669 A1.5,1.5 0 0 0 434.8446,266.0669 L443.3446,266.0669 L433.3446,256.0669" fill="#FEFFDD" style="stroke:#181818;stroke-width:0.5;"/><text fill="#000000" font-family="'Arial'" font-size="10" lengthAdjust="spacing" textLength="115.127" x="283.91" y="274.3491">row activation may be:</text><text fill="#000000" font-family="'Arial'" font-size="10" lengthAdjust="spacing" textLength="86.7334" x="283.91" y="285.9897">- navigate to URL</text><text fill="#000000" font-family="'Arial'" font-size="10" lengthAdjust="spacing" textLength="93.5205" x="283.91" y="297.6304">- copy to clipboard</text><text fill="#000000" font-family="'Arial'" font-size="10" lengthAdjust="spacing" textLength="140.4346" x="283.91" y="309.271">- run a registered command</text></g><!--link *start* to Closed--><g class="link" data-entity-1="ent0002" data-entity-2="ent0002" data-link-type="dependency" data-source-line="49" id="lnk3"><path d="M599.62,386.6669 C599.62,396.8669 599.62,407.0969 599.62,422.5469" fill="none" id="*start*-to-Closed" style="stroke:#64748B;stroke-width:1.1;"/><polygon fill="#64748B" points="599.62,428.5469,603.62,419.5469,599.62,423.5469,595.62,419.5469,599.62,428.5469" style="stroke:#64748B;stroke-width:1.1;"/></g><!--link Closed to Open--><g class="link" data-entity-1="ent0002" data-entity-2="ent0003" data-link-type="dependency" data-source-line="57" id="lnk4"><path d="M558.4,428.5369 C558.4,336.5069 558.4,123.2969 558.4,123.2969 C558.4,123.2969 501.82,123.2969 447.07,123.2969" fill="none" id="Closed-to-Open" style="stroke:#64748B;stroke-width:1.1;"/><polygon fill="#64748B" points="441.07,123.2969,450.07,127.2969,446.07,123.2969,450.07,119.2969,441.07,123.2969" style="stroke:#64748B;stroke-width:1.1;"/><text fill="#000000" font-family="'Arial'" font-size="9" lengthAdjust="spacing" textLength="20.7642" x="487.9315" y="230.6009">Cmd</text><text fill="#000000" font-family="'Arial'" font-size="9" lengthAdjust="spacing" textLength="2.8608" x="508.6957" y="230.6009">&#160;</text><text fill="#000000" font-family="'Arial'" font-size="9" lengthAdjust="spacing" textLength="3.0322" x="511.5565" y="230.6009">/</text><text fill="#000000" font-family="'Arial'" font-size="9" lengthAdjust="spacing" textLength="2.8608" x="514.5887" y="230.6009">&#160;</text><text fill="#000000" font-family="'Arial'" font-size="9" lengthAdjust="spacing" textLength="16.0137" x="517.4496" y="230.6009">Ctrl</text><text fill="#000000" font-family="'Arial'" font-size="9" lengthAdjust="spacing" textLength="2.8608" x="533.4632" y="230.6009">&#160;</text><text fill="#000000" font-family="'Arial'" font-size="9" lengthAdjust="spacing" textLength="7.541" x="536.3241" y="230.6009">+</text><text fill="#000000" font-family="'Arial'" font-size="9" lengthAdjust="spacing" textLength="2.8608" x="543.8651" y="230.6009">&#160;</text><text fill="#000000" font-family="'Arial'" font-size="9" lengthAdjust="spacing" textLength="5.9019" x="546.7259" y="230.6009">K</text><text fill="#000000" font-family="'Arial'" font-size="9" lengthAdjust="spacing" textLength="9" x="486.4" y="241.0774">&#8212;</text><text fill="#000000" font-family="'Arial'" font-size="9" lengthAdjust="spacing" textLength="2.8608" x="495.4" y="241.0774">&#160;</text><text fill="#000000" font-family="'Arial'" font-size="9" lengthAdjust="spacing" textLength="9.2065" x="498.2608" y="241.0774">or</text><text fill="#000000" font-family="'Arial'" font-size="9" lengthAdjust="spacing" textLength="2.8608" x="507.4674" y="241.0774">&#160;</text><text fill="#000000" font-family="'Arial'" font-size="9" lengthAdjust="spacing" textLength="9" x="510.3282" y="241.0774">&#8212;</text><text fill="#000000" font-family="'Arial'" font-size="9" lengthAdjust="spacing" textLength="2.8608" x="519.3282" y="241.0774">&#160;</text><text fill="#000000" font-family="'Arial'" font-size="9" lengthAdjust="spacing" textLength="31.9702" x="522.1891" y="241.0774">toolbar</text><text fill="#000000" font-family="'Arial'" font-size="9" lengthAdjust="spacing" textLength="30.3926" x="505.0833" y="251.554">trigger</text></g><!--link Open to Filtering--><g class="link" data-entity-1="ent0003" data-entity-2="ent0004" data-link-type="dependency" data-source-line="58" id="lnk5"><path d="M333.91,136.6969 C333.91,142.1269 333.91,141.6969 333.91,147.1269" fill="none" id="Open-to-Filtering" style="stroke:#64748B;stroke-width:1.1;"/><polygon fill="#64748B" points="333.91,153.1269,337.91,144.1269,333.91,148.1269,329.91,144.1269,333.91,153.1269" style="stroke:#64748B;stroke-width:1.1;"/><text fill="#000000" font-family="'Arial'" font-size="9" lengthAdjust="spacing" textLength="23.1504" x="265.91" y="128.2609">input</text><text fill="#000000" font-family="'Arial'" font-size="9" lengthAdjust="spacing" textLength="2.8608" x="289.0604" y="128.2609">&#160;</text><text fill="#000000" font-family="'Arial'" font-size="9" lengthAdjust="spacing" textLength="37.8105" x="291.9212" y="128.2609">changes</text><text fill="#000000" font-family="'Arial'" font-size="9" lengthAdjust="spacing" textLength="32.1987" x="270.4715" y="138.7374">(length</text><text fill="#000000" font-family="'Arial'" font-size="9" lengthAdjust="spacing" textLength="2.8608" x="302.6703" y="138.7374">&#160;</text><text fill="#000000" font-family="'Arial'" font-size="9" lengthAdjust="spacing" textLength="7.541" x="305.5311" y="138.7374">&gt;</text><text fill="#000000" font-family="'Arial'" font-size="9" lengthAdjust="spacing" textLength="2.8608" x="313.0721" y="138.7374">&#160;</text><text fill="#000000" font-family="'Arial'" font-size="9" lengthAdjust="spacing" textLength="9.2373" x="315.9329" y="138.7374">0)</text></g><!--link Filtering to Open--><g class="link" data-entity-1="ent0004" data-entity-2="ent0003" data-link-type="dependency" data-source-line="59" id="lnk6"><path d="M387.34,152.9669 C387.34,147.5269 387.34,147.9569 387.34,142.5269" fill="none" id="Filtering-to-Open" style="stroke:#64748B;stroke-width:1.1;"/><polygon fill="#64748B" points="387.34,136.5269,383.34,145.5269,387.34,141.5269,391.34,145.5269,387.34,136.5269" style="stroke:#64748B;stroke-width:1.1;"/><text fill="#000000" font-family="'Arial'" font-size="9" lengthAdjust="spacing" textLength="23.1504" x="392.34" y="128.1009">input</text><text fill="#000000" font-family="'Arial'" font-size="9" lengthAdjust="spacing" textLength="2.8608" x="415.4904" y="128.1009">&#160;</text><text fill="#000000" font-family="'Arial'" font-size="9" lengthAdjust="spacing" textLength="33.4512" x="418.3512" y="128.1009">cleared</text><text fill="#000000" font-family="'Arial'" font-size="9" lengthAdjust="spacing" textLength="32.1987" x="394.7218" y="138.5774">(length</text><text fill="#000000" font-family="'Arial'" font-size="9" lengthAdjust="spacing" textLength="2.8608" x="426.9206" y="138.5774">&#160;</text><text fill="#000000" font-family="'Arial'" font-size="9" lengthAdjust="spacing" textLength="7.541" x="429.7814" y="138.5774">=</text><text fill="#000000" font-family="'Arial'" font-size="9" lengthAdjust="spacing" textLength="2.8608" x="437.3224" y="138.5774">&#160;</text><text fill="#000000" font-family="'Arial'" font-size="9" lengthAdjust="spacing" textLength="9.2373" x="440.1833" y="138.5774">0)</text></g><!--link Open to Selected--><g class="link" data-entity-1="ent0003" data-entity-2="ent0005" data-link-type="dependency" data-source-line="60" id="lnk7"><path d="M280.04,81.2969 C196.95,81.2969 79.42,81.2969 79.42,81.2969 C79.42,81.2969 79.42,187.5569 79.42,246.7569" fill="none" id="Open-to-Selected" style="stroke:#64748B;stroke-width:1.1;"/><polygon fill="#64748B" points="79.42,252.7569,83.42,243.7569,79.42,247.7569,75.42,243.7569,79.42,252.7569" style="stroke:#64748B;stroke-width:1.1;"/><text fill="#000000" font-family="'Arial'" font-size="9" lengthAdjust="spacing" textLength="51.9258" x="11" y="64.6509">ArrowDown</text><text fill="#000000" font-family="'Arial'" font-size="9" lengthAdjust="spacing" textLength="2.8608" x="62.9258" y="64.6509">&#160;</text><text fill="#000000" font-family="'Arial'" font-size="9" lengthAdjust="spacing" textLength="3.0322" x="65.7866" y="64.6509">/</text><text fill="#000000" font-family="'Arial'" font-size="9" lengthAdjust="spacing" textLength="2.8608" x="68.8188" y="64.6509">&#160;</text><text fill="#000000" font-family="'Arial'" font-size="9" lengthAdjust="spacing" textLength="12.3003" x="71.6797" y="64.6509">Up</text><text fill="#000000" font-family="'Arial'" font-size="9" lengthAdjust="spacing" textLength="2.8608" x="83.98" y="64.6509">&#160;</text><text fill="#000000" font-family="'Arial'" font-size="9" lengthAdjust="spacing" textLength="3.0322" x="86.8408" y="64.6509">/</text><text fill="#000000" font-family="'Arial'" font-size="9" lengthAdjust="spacing" textLength="25.7739" x="37.5496" y="75.1274">hover</text></g><!--link Selected to Open--><g class="link" data-entity-1="ent0005" data-entity-2="ent0003" data-link-type="dependency" data-source-line="63" id="lnk10"><path d="M131.62,252.5469 C131.62,200.2969 131.62,109.2969 131.62,109.2969 C131.62,109.2969 208.23,109.2969 274.21,109.2969" fill="none" id="Selected-to-Open" style="stroke:#64748B;stroke-width:1.1;"/><polygon fill="#64748B" points="280.21,109.2969,271.21,105.2969,275.21,109.2969,271.21,113.2969,280.21,109.2969" style="stroke:#64748B;stroke-width:1.1;"/><text fill="#000000" font-family="'Arial'" font-size="9" lengthAdjust="spacing" textLength="23.1504" x="70.29" y="102.6509">input</text><text fill="#000000" font-family="'Arial'" font-size="9" lengthAdjust="spacing" textLength="2.8608" x="93.4404" y="102.6509">&#160;</text><text fill="#000000" font-family="'Arial'" font-size="9" lengthAdjust="spacing" textLength="33.4512" x="96.3012" y="102.6509">cleared</text></g><!--link Filtering to Selected--><g class="link" data-entity-1="ent0004" data-entity-2="ent0005" data-link-type="dependency" data-source-line="61" id="lnk8"><path d="M270.26,235.9669 C270.26,257.0469 270.26,278.2969 270.26,278.2969 C270.26,278.2969 261.86,278.2969 242.35,278.2969" fill="none" id="Filtering-to-Selected" style="stroke:#64748B;stroke-width:1.1;"/><polygon fill="#64748B" points="236.35,278.2969,245.35,282.2969,241.35,278.2969,245.35,274.2969,236.35,278.2969" style="stroke:#64748B;stroke-width:1.1;"/><text fill="#000000" font-family="'Arial'" font-size="9" lengthAdjust="spacing" textLength="51.9258" x="187.26" y="257.4409">ArrowDown</text><text fill="#000000" font-family="'Arial'" font-size="9" lengthAdjust="spacing" textLength="2.8608" x="239.1858" y="257.4409">&#160;</text><text fill="#000000" font-family="'Arial'" font-size="9" lengthAdjust="spacing" textLength="3.0322" x="242.0466" y="257.4409">/</text><text fill="#000000" font-family="'Arial'" font-size="9" lengthAdjust="spacing" textLength="2.8608" x="245.0788" y="257.4409">&#160;</text><text fill="#000000" font-family="'Arial'" font-size="9" lengthAdjust="spacing" textLength="12.3003" x="247.9397" y="257.4409">Up</text><text fill="#000000" font-family="'Arial'" font-size="9" lengthAdjust="spacing" textLength="2.8608" x="260.24" y="257.4409">&#160;</text><text fill="#000000" font-family="'Arial'" font-size="9" lengthAdjust="spacing" textLength="3.0322" x="263.1008" y="257.4409">/</text><text fill="#000000" font-family="'Arial'" font-size="9" lengthAdjust="spacing" textLength="25.7739" x="213.8096" y="267.9174">hover</text></g><!--link Selected to Selected--><g class="link" data-entity-1="ent0005" data-entity-2="ent0005" data-link-type="dependency" data-source-line="62" id="lnk9"><path d="M183.83,252.4069 C183.83,248.1569 183.83,245.2969 183.83,245.2969 C183.83,245.2969 251.32,245.2969 251.32,245.2969 C251.32,245.2969 251.32,333.2969 251.32,333.2969 C251.32,333.2969 183.83,333.2969 183.83,333.2969 C183.83,333.2969 183.83,335.5369 183.83,330.1969" fill="none" id="Selected-to-Selected" style="stroke:#64748B;stroke-width:1.1;"/><polygon fill="#64748B" points="183.83,324.1969,179.83,333.1969,183.83,329.1969,187.83,333.1969,183.83,324.1969" style="stroke:#64748B;stroke-width:1.1;"/><text fill="#000000" font-family="'Arial'" font-size="9" lengthAdjust="spacing" textLength="51.9258" x="192.32" y="308.6409">ArrowDown</text><text fill="#000000" font-family="'Arial'" font-size="9" lengthAdjust="spacing" textLength="2.8608" x="244.2458" y="308.6409">&#160;</text><text fill="#000000" font-family="'Arial'" font-size="9" lengthAdjust="spacing" textLength="3.0322" x="247.1066" y="308.6409">/</text><text fill="#000000" font-family="'Arial'" font-size="9" lengthAdjust="spacing" textLength="2.8608" x="250.1388" y="308.6409">&#160;</text><text fill="#000000" font-family="'Arial'" font-size="9" lengthAdjust="spacing" textLength="12.3003" x="252.9997" y="308.6409">Up</text></g><!--link Selected to Closing--><g class="link" data-entity-1="ent0005" data-entity-2="ent0006" data-link-type="dependency" data-source-line="64" id="lnk11"><path d="M131.62,324.1169 C131.62,344.2169 131.62,365.2969 131.62,365.2969 C131.62,365.2969 261.19,365.2969 353.6,365.2969" fill="none" id="Selected-to-Closing" style="stroke:#64748B;stroke-width:1.1;"/><polygon fill="#64748B" points="359.6,365.2969,350.6,361.2969,354.6,365.2969,350.6,369.2969,359.6,365.2969" style="stroke:#64748B;stroke-width:1.1;"/><text fill="#000000" font-family="'Arial'" font-size="9" lengthAdjust="spacing" textLength="24.1567" x="168.1924" y="337.6509">Enter</text><text fill="#000000" font-family="'Arial'" font-size="9" lengthAdjust="spacing" textLength="39.6299" x="140.03" y="348.1274">(execute</text><text fill="#000000" font-family="'Arial'" font-size="9" lengthAdjust="spacing" textLength="2.8608" x="179.6599" y="348.1274">&#160;</text><text fill="#000000" font-family="'Arial'" font-size="9" lengthAdjust="spacing" textLength="37.9907" x="182.5207" y="348.1274">selected</text><text fill="#000000" font-family="'Arial'" font-size="9" lengthAdjust="spacing" textLength="20.0786" x="170.2314" y="358.604">row)</text></g><!--link Selected to Closing--><g class="link" data-entity-1="ent0005" data-entity-2="ent0006" data-link-type="dependency" data-source-line="67" id="lnk14"><path d="M79.42,324.1469 C79.42,352.8269 79.42,388.2969 79.42,388.2969 C79.42,388.2969 246.05,388.2969 353.61,388.2969" fill="none" id="Selected-to-Closing-1" style="stroke:#64748B;stroke-width:1.1;"/><polygon fill="#64748B" points="359.61,388.2969,350.61,384.2969,354.61,388.2969,350.61,392.2969,359.61,388.2969" style="stroke:#64748B;stroke-width:1.1;"/><text fill="#000000" font-family="'Arial'" font-size="9" lengthAdjust="spacing" textLength="32.0889" x="150.44" y="381.6509">Escape</text></g><!--link Open to Closing--><g class="link" data-entity-1="ent0003" data-entity-2="ent0006" data-link-type="dependency" data-source-line="65" id="lnk12"><path d="M441,130.2969 C469.28,130.2969 494.16,130.2969 494.16,130.2969 C494.16,130.2969 494.16,266.2869 494.16,334.5069" fill="none" id="Open-to-Closing" style="stroke:#64748B;stroke-width:1.1;"/><polygon fill="#64748B" points="494.16,340.5069,498.16,331.5069,494.16,335.5069,490.16,331.5069,494.16,340.5069" style="stroke:#64748B;stroke-width:1.1;"/><text fill="#000000" font-family="'Arial'" font-size="9" lengthAdjust="spacing" textLength="32.0889" x="522.6466" y="192.1709">Escape</text><text fill="#000000" font-family="'Arial'" font-size="9" lengthAdjust="spacing" textLength="20.1094" x="499.16" y="202.6474">click</text><text fill="#000000" font-family="'Arial'" font-size="9" lengthAdjust="spacing" textLength="2.8608" x="519.2694" y="202.6474">&#160;</text><text fill="#000000" font-family="'Arial'" font-size="9" lengthAdjust="spacing" textLength="11.2104" x="522.1302" y="202.6474">on</text><text fill="#000000" font-family="'Arial'" font-size="9" lengthAdjust="spacing" textLength="2.8608" x="533.3407" y="202.6474">&#160;</text><text fill="#000000" font-family="'Arial'" font-size="9" lengthAdjust="spacing" textLength="42.0205" x="536.2015" y="202.6474">backdrop</text></g><!--link Filtering to Closing--><g class="link" data-entity-1="ent0004" data-entity-2="ent0006" data-link-type="dependency" data-source-line="66" id="lnk13"><path d="M448.99,236.2869 C448.99,267.8169 448.99,304.6569 448.99,334.6069" fill="none" id="Filtering-to-Closing" style="stroke:#64748B;stroke-width:1.1;"/><polygon fill="#64748B" points="448.99,340.6069,452.99,331.6069,448.99,335.6069,444.99,331.6069,448.99,340.6069" style="stroke:#64748B;stroke-width:1.1;"/><text fill="#000000" font-family="'Arial'" font-size="9" lengthAdjust="spacing" textLength="32.0889" x="477.4766" y="271.8009">Escape</text><text fill="#000000" font-family="'Arial'" font-size="9" lengthAdjust="spacing" textLength="20.1094" x="453.99" y="282.2774">click</text><text fill="#000000" font-family="'Arial'" font-size="9" lengthAdjust="spacing" textLength="2.8608" x="474.0994" y="282.2774">&#160;</text><text fill="#000000" font-family="'Arial'" font-size="9" lengthAdjust="spacing" textLength="11.2104" x="476.9602" y="282.2774">on</text><text fill="#000000" font-family="'Arial'" font-size="9" lengthAdjust="spacing" textLength="2.8608" x="488.1707" y="282.2774">&#160;</text><text fill="#000000" font-family="'Arial'" font-size="9" lengthAdjust="spacing" textLength="42.0205" x="491.0315" y="282.2774">backdrop</text></g><!--link Closing to Closed--><g class="link" data-entity-1="ent0006" data-entity-2="ent0002" data-link-type="dependency" data-source-line="68" id="lnk15"><path d="M507.61,411.9769 C507.61,417.3569 507.61,416.9469 507.61,422.4469" fill="none" id="Closing-to-Closed" style="stroke:#64748B;stroke-width:1.1;"/><polygon fill="#64748B" points="507.61,428.4469,511.61,419.4469,507.61,423.4469,503.61,419.4469,507.61,428.4469" style="stroke:#64748B;stroke-width:1.1;"/><text fill="#000000" font-family="'Arial'" font-size="9" lengthAdjust="spacing" textLength="42.8774" x="439.6581" y="433.5609">transition</text><text fill="#000000" font-family="'Arial'" font-size="9" lengthAdjust="spacing" textLength="2.8608" x="482.5355" y="433.5609">&#160;</text><text fill="#000000" font-family="'Arial'" font-size="9" lengthAdjust="spacing" textLength="16.9541" x="485.3964" y="433.5609">end</text><text fill="#000000" font-family="'Arial'" font-size="9" lengthAdjust="spacing" textLength="24.0161" x="438.61" y="444.0374">focus</text><text fill="#000000" font-family="'Arial'" font-size="9" lengthAdjust="spacing" textLength="2.8608" x="462.6261" y="444.0374">&#160;</text><text fill="#000000" font-family="'Arial'" font-size="9" lengthAdjust="spacing" textLength="37.9116" x="465.487" y="444.0374">restored</text></g><?plantuml-src ZLVRRXit47tNLmnQ5B7TI9OTNn853MhBLWFaqY1o-b8N5RKxscN49RSaLvSM1VeH_S9-IG-vahoIdSkB9PF3kHpEEKCzec4kBAVqJWdjFxnvJMugDUr9_P4JZtKnyMpfH-U5zLMXQBmabrXPUdTeEMFDLdZ-FJM9wvHBcXXBhwoPId9IPuhR4wcOBEkKxNxh4TqiIvDPKURB7brOATJXIrOpzZ8HX139b0hXavmT-MM9HKMlfQuMvDZEaCR4QEzeBqROf__--PV4pCZKqP0pmssZrP9IAoU-qmfbbCAAWbmkKZD7EZGHod5ZHqdDYCDahCzDOoCnHMaqQp_qovX_uaKefs5I8bcHyQSDKfw8Ila1Kduh2gPlOhtVF6mnb7yo7NM1qAN0HIJS8o-pt1DhKsKvULDNIdcLCMMYT8z96UEuOQ1a8JqfCMPrAAmrSpB0J8coGyDIOIkL0jWNZkG4O4kbA85LocaJBMrITbpISRUnQ8MUXiMZyyRYEv6c0TMJPacbf6TdAAClIk952M1fBbEVKxoRS6EfeOC3RVp10LN8VpHok6R6gMvjEHhX4zTHUUmLOZ4Q0OjS-D1R2JluPfIrN5SJAlSvamiObtB1QXLGw9IgCZftf6j0wepGGMDbvWxRv7dXzpjm-l86lLzKpc-oSzuoUf66l_paOah89xhkuQQwto7FK4weGMflfNOoGTVZ7hyFSH3-K8Kh79j5yFz-GnP2QMM5B6fg9Jaw9-3eSudCGirJfa0ea0VLqo7YtgVQQ8IqQ-W0qXry23MCSG5tRA4GmbWSThW34ieVcX9W0ZhWiWTm775H-YNSMEH1eP2KWq5MW05klzaTrbGwhTtHMQmAA0dGA0KX57kFnjLSOKqvu00EqLXLJ299u8lsH8bEJ8INIAKKFjz_JdDXSOc0C8f7YJobymmADEDUXElh6mMBRyzEpa-UNkvktkGocUfGpL7dQ7TpGx5dM_qR6NnfBCHfvRj_UNLwVVI04JwoMFpAS70qE1qqlRrVIy2Ml-FJioVNbm-QtVFuT70nw3TChuGNO-5s4Zm-EUe-Q7NFts1mVdtLi7mBPc_vkWTajFXYNXU9DtRBKVVa_Edf-JsJNK_N_S7Lu7GBN0lbb-2A_pngJSClvZVaFwhGFs_G3BYw2x11KsW_jirEPWU9TskhIuOYn5uXRwkcZeDTAvlOGKzF0yDM8JQIsiCtpA-mD6O_PzQGumc70HDu87KWJBaIJ3E9D6GCey35mr1E6JJYnfHj1NLJj0aFYaADQlLSCHEAkGx_rz-G0NAcdhc7cnakr5mi8J1WspAeOz5v6CorX3SlvT8irijFMbvw2CmL90U2019Xa4VLwvkY20Ax8dsOtJu8KPAZubP0g1x_9M3R69cIWr30KG5rNaQDesWnaoAAUARC63C_DtxAou18Ns76fL7BVyPfmbEbLdlF8btMOTtpUY90Fv5pG9KWf5At9r47EwtMhmU_KRlzOkMjrLfv9UhTvHP7vP9ocQQiR_NOfF6XOp0bAwrCCkNqLazCKaKP3Jc4p5inAthGrKmwELPygsjv1RwLVqoJ2XxHV1ZyQ17drqvNbxjoqXf8XNv5GRtw8EK2zuaZB9oFkegvOGMUQFPMDzpH91v4TKhE47iYBHPN1gBoffq3b0WCa1YogbzvFH9heq01uDSmkzM88sUrQjjAkteUm_2H2q-bq0aHqu0_N2MhhqBBeZw4iL9VnhfQn892r9iExxsqKbiN4wzhWoryzeiKWx3lhGATNjtgq8HWV_ZmngYniE2jp39m_EvOSB81ajP8ne5RppwTOQg_eEx-7Txt8gyE0VY0wlhG3-7GTgGDcDIhfywLcMia_Q74dpnqnKwKhpXmP_Bv0pk6dyn_nsvpQR2xrh6NzdZ1IHKelRP4dDrIjyxX4LAYqn8CzcdWnXWAdLfJxbJxTMS-aryySzTd3KRNXUBH0Gx5be9CRNTQQ2xeA5xgyLKD1Gu5jQZHz2wAoqpYPuvGKFeqlaTU77UxS8VUmjEJACMqXTvMDhpGunijF2Y5QeUDpaVN2W8P0ks6MzSLGe9W3K8La8enzx3HnZDr9hEWf7ZKVdZ_Egub1h-hy3-mAiT6s3IkWeQHibbuB8N6NFDmay3_?></g></svg>
