<?plantuml 1.2026.1?><svg xmlns="http://www.w3.org/2000/svg" xmlns:xlink="http://www.w3.org/1999/xlink" contentStyleType="text/css" data-diagram-type="ACTIVITY" height="647px" preserveAspectRatio="none" style="width:769px;height:647px;background:#FFFFFF;" version="1.1" viewBox="0 0 769 647" width="769px" zoomAndPan="magnify"><title>Docs frontend &#8212; Motion policy decision flow</title><defs/><g><g class="title" data-source-line="44"><text fill="#000000" font-family="'Arial'" font-size="14" font-weight="bold" lengthAdjust="spacing" textLength="349.9316" x="208.4514" y="36.9951">Docs frontend &#8212; Motion policy decision flow</text></g><ellipse cx="310.793" cy="65.2969" fill="#222222" rx="10" ry="10" style="stroke:#222222;stroke-width:1;"/><rect fill="#F1F1F1" height="51.2813" rx="3" ry="3" style="stroke:#181818;stroke-width:0.5;" width="135.4707" x="243.0576" y="95.2969"/><text fill="#000000" font-family="'Arial'" font-size="10" lengthAdjust="spacing" textLength="107.4707" x="257.0576" y="118.5791">Reader interacts with</text><text fill="#000000" font-family="'Arial'" font-size="10" lengthAdjust="spacing" textLength="103.3154" x="257.0576" y="130.2197">an animated surface</text><rect fill="#F1F1F1" height="51.2813" rx="3" ry="3" style="stroke:#181818;stroke-width:0.5;" width="172.7021" x="224.4419" y="166.5781"/><text fill="#000000" font-family="'Arial'" font-size="10" lengthAdjust="spacing" textLength="144.7021" x="238.4419" y="189.8604">read prefers-reduced-motion</text><text fill="#000000" font-family="'Arial'" font-size="10" lengthAdjust="spacing" textLength="143.9551" x="238.4419" y="201.501">(media query at action time)</text><polygon fill="#F1F1F1" points="238.0967,237.8594,383.4893,237.8594,395.4893,249.8594,383.4893,261.8594,238.0967,261.8594,226.0967,249.8594,238.0967,237.8594" style="stroke:#181818;stroke-width:0.5;"/><text fill="#000000" font-family="'Arial'" font-size="10" lengthAdjust="spacing" textLength="137.3926" x="242.0967" y="253.3213">reduced-motion = reduce ?</text><text fill="#000000" font-family="'Arial'" font-size="9" lengthAdjust="spacing" textLength="15.5522" x="206.5444" y="243.7368">yes</text><text fill="#000000" font-family="'Arial'" font-size="9" lengthAdjust="spacing" textLength="11.2104" x="399.4893" y="243.7368">no</text><rect fill="#F1F1F1" height="39.6406" rx="3" ry="3" style="stroke:#181818;stroke-width:0.5;" width="101.5742" x="66.6177" y="271.8594"/><text fill="#000000" font-family="'Arial'" font-size="10" lengthAdjust="spacing" textLength="73.5742" x="80.6177" y="295.1416">skip animation</text><rect fill="#F1F1F1" height="51.2813" rx="3" ry="3" style="stroke:#181818;stroke-width:0.5;" width="212.8096" x="11" y="346.5"/><text fill="#000000" font-family="'Arial'" font-size="10" lengthAdjust="spacing" textLength="184.8096" x="25" y="369.7822">perform the underlying state change</text><text fill="#000000" font-family="'Arial'" font-size="10" lengthAdjust="spacing" textLength="155.752" x="25" y="381.4229">(scroll, open, dismiss) instantly</text><rect fill="#F1F1F1" height="39.6406" rx="3" ry="3" style="stroke:#181818;stroke-width:0.5;" width="46.7695" x="94.02" y="432.7813"/><text fill="#000000" font-family="'Arial'" font-size="10" lengthAdjust="spacing" textLength="18.7695" x="108.02" y="456.0635">exit</text><ellipse cx="117.4048" cy="504.6172" fill="none" rx="11" ry="11" style="stroke:#222222;stroke-width:1;"/><ellipse cx="117.4048" cy="504.6172" fill="#222222" rx="6" ry="6" style="stroke:#222222;stroke-width:1;"/><polygon fill="#F1F1F1" points="274.3198,296.8594,358.106,296.8594,370.106,308.8594,358.106,320.8594,274.3198,320.8594,262.3198,308.8594,274.3198,296.8594" style="stroke:#181818;stroke-width:0.5;"/><text fill="#000000" font-family="'Arial'" font-size="9" lengthAdjust="spacing" textLength="47.8125" x="324.2129" y="333.2134">decorative</text><text fill="#000000" font-family="'Arial'" font-size="10" lengthAdjust="spacing" textLength="75.7861" x="278.3198" y="312.3213">animation type</text><rect fill="#F1F1F1" height="39.6406" rx="3" ry="3" style="stroke:#181818;stroke-width:0.5;" width="116.8281" x="257.7988" y="359.3359"/><text fill="#000000" font-family="'Arial'" font-size="10" lengthAdjust="spacing" textLength="88.8281" x="271.7988" y="382.6182">run full animation</text><rect fill="#F1F1F1" height="39.6406" rx="3" ry="3" style="stroke:#181818;stroke-width:0.5;" width="144.8066" x="243.8096" y="433.9766"/><text fill="#000000" font-family="'Arial'" font-size="10" lengthAdjust="spacing" textLength="116.8066" x="257.8096" y="457.2588">emit no announcement</text><polygon fill="#F1F1F1" points="450.4766,296.8594,525.2734,296.8594,537.2734,308.8594,525.2734,320.8594,450.4766,320.8594,438.4766,308.8594,450.4766,296.8594" style="stroke:#181818;stroke-width:0.5;"/><text fill="#000000" font-family="'Arial'" font-size="9" lengthAdjust="spacing" textLength="2.8608" x="495.875" y="333.2134">&#160;</text><text fill="#000000" font-family="'Arial'" font-size="10" lengthAdjust="spacing" textLength="66.7969" x="454.4766" y="312.3213">informational</text><text fill="#000000" font-family="'Arial'" font-size="9" lengthAdjust="spacing" textLength="30.1421" x="541.2734" y="302.7368">critical</text><rect fill="#F1F1F1" height="51.2813" rx="3" ry="3" style="stroke:#181818;stroke-width:0.5;" width="158.5176" x="408.6162" y="359.3359"/><text fill="#000000" font-family="'Arial'" font-size="10" lengthAdjust="spacing" textLength="70.2344" x="422.6162" y="382.6182">run animation</text><text fill="#000000" font-family="'Arial'" font-size="10" lengthAdjust="spacing" textLength="130.5176" x="422.6162" y="394.2588">+ aria-live announcement</text><rect fill="#F1F1F1" height="39.6406" rx="3" ry="3" style="stroke:#181818;stroke-width:0.5;" width="177.4189" x="581.4155" y="347.2773"/><text fill="#000000" font-family="'Arial'" font-size="10" lengthAdjust="spacing" textLength="149.4189" x="595.4155" y="370.5596">animation may not gate input</text><rect fill="#F1F1F1" height="51.2813" rx="3" ry="3" style="stroke:#181818;stroke-width:0.5;" width="170.3828" x="584.9336" y="421.918"/><text fill="#000000" font-family="'Arial'" font-size="10" lengthAdjust="spacing" textLength="70.2344" x="598.9336" y="445.2002">run animation</text><text fill="#000000" font-family="'Arial'" font-size="10" lengthAdjust="spacing" textLength="142.3828" x="598.9336" y="456.8408">in parallel with state change</text><rect fill="#F1F1F1" height="39.6406" rx="3" ry="3" style="stroke:#181818;stroke-width:0.5;" width="134.3721" x="436.9951" y="554.8125"/><text fill="#000000" font-family="'Arial'" font-size="10" lengthAdjust="spacing" textLength="106.3721" x="450.9951" y="578.0947">resolve focus + state</text><ellipse cx="504.1812" cy="625.4531" fill="none" rx="11" ry="11" style="stroke:#222222;stroke-width:1;"/><ellipse cx="504.1812" cy="625.4531" fill="#222222" rx="6" ry="6" style="stroke:#222222;stroke-width:1;"/><line style="stroke:#64748B;stroke-width:1.1;" x1="310.793" x2="310.793" y1="75.2969" y2="95.2969"/><polygon fill="#64748B" points="306.793,85.2969,310.793,95.2969,314.793,85.2969,310.793,89.2969" style="stroke:#64748B;stroke-width:1;"/><line style="stroke:#64748B;stroke-width:1.1;" x1="310.793" x2="310.793" y1="146.5781" y2="166.5781"/><polygon fill="#64748B" points="306.793,156.5781,310.793,166.5781,314.793,156.5781,310.793,160.5781" style="stroke:#64748B;stroke-width:1;"/><line style="stroke:#64748B;stroke-width:1.1;" x1="117.4048" x2="117.4048" y1="311.5" y2="346.5"/><polygon fill="#64748B" points="113.4048,336.5,117.4048,346.5,121.4048,336.5,117.4048,340.5" style="stroke:#64748B;stroke-width:1;"/><line style="stroke:#64748B;stroke-width:1.1;" x1="117.4048" x2="117.4048" y1="397.7813" y2="432.7813"/><polygon fill="#64748B" points="113.4048,422.7813,117.4048,432.7813,121.4048,422.7813,117.4048,426.7813" style="stroke:#64748B;stroke-width:1;"/><line style="stroke:#64748B;stroke-width:1.1;" x1="117.4048" x2="117.4048" y1="472.4219" y2="493.6172"/><polygon fill="#64748B" points="113.4048,483.6172,117.4048,493.6172,121.4048,483.6172,117.4048,487.6172" style="stroke:#64748B;stroke-width:1;"/><line style="stroke:#64748B;stroke-width:1.1;" x1="316.2129" x2="316.2129" y1="398.9766" y2="433.9766"/><polygon fill="#64748B" points="312.2129,423.9766,316.2129,433.9766,320.2129,423.9766,316.2129,427.9766" style="stroke:#64748B;stroke-width:1;"/><line style="stroke:#64748B;stroke-width:1.1;" x1="670.125" x2="670.125" y1="386.918" y2="421.918"/><polygon fill="#64748B" points="666.125,411.918,670.125,421.918,674.125,411.918,670.125,415.918" style="stroke:#64748B;stroke-width:1;"/><line style="stroke:#64748B;stroke-width:1.1;" x1="316.2129" x2="316.2129" y1="320.8594" y2="359.3359"/><polygon fill="#64748B" points="312.2129,349.3359,316.2129,359.3359,320.2129,349.3359,316.2129,353.3359" style="stroke:#64748B;stroke-width:1;"/><line style="stroke:#64748B;stroke-width:1.1;" x1="316.2129" x2="316.2129" y1="473.6172" y2="534.8125"/><polygon fill="#64748B" points="312.2129,524.8125,316.2129,534.8125,320.2129,524.8125,316.2129,528.8125" style="stroke:#64748B;stroke-width:1;"/><line style="stroke:#64748B;stroke-width:1.1;" x1="487.875" x2="487.875" y1="320.8594" y2="359.3359"/><polygon fill="#64748B" points="483.875,349.3359,487.875,359.3359,491.875,349.3359,487.875,353.3359" style="stroke:#64748B;stroke-width:1;"/><line style="stroke:#64748B;stroke-width:1.1;" x1="487.875" x2="487.875" y1="410.6172" y2="534.8125"/><polygon fill="#64748B" points="483.875,524.8125,487.875,534.8125,491.875,524.8125,487.875,528.8125" style="stroke:#64748B;stroke-width:1;"/><line style="stroke:#64748B;stroke-width:1.1;" x1="370.106" x2="438.4766" y1="308.8594" y2="308.8594"/><polygon fill="#64748B" points="428.4766,304.8594,438.4766,308.8594,428.4766,312.8594,432.4766,308.8594" style="stroke:#64748B;stroke-width:1;"/><line style="stroke:#64748B;stroke-width:1.1;" x1="395.4893" x2="504.1812" y1="249.8594" y2="249.8594"/><line style="stroke:#64748B;stroke-width:1.1;" x1="504.1812" x2="504.1812" y1="249.8594" y2="271.8594"/><line style="stroke:#64748B;stroke-width:1.1;" x1="504.1812" x2="316.2129" y1="271.8594" y2="271.8594"/><line style="stroke:#64748B;stroke-width:1.1;" x1="316.2129" x2="316.2129" y1="271.8594" y2="296.8594"/><polygon fill="#64748B" points="312.2129,286.8594,316.2129,296.8594,320.2129,286.8594,316.2129,290.8594" style="stroke:#64748B;stroke-width:1;"/><line style="stroke:#64748B;stroke-width:1.1;" x1="537.2734" x2="670.125" y1="308.8594" y2="308.8594"/><line style="stroke:#64748B;stroke-width:1.1;" x1="670.125" x2="670.125" y1="308.8594" y2="347.2773"/><polygon fill="#64748B" points="666.125,337.2773,670.125,347.2773,674.125,337.2773,670.125,341.2773" style="stroke:#64748B;stroke-width:1;"/><line style="stroke:#64748B;stroke-width:1.1;" x1="670.125" x2="670.125" y1="473.1992" y2="534.8125"/><polygon fill="#64748B" points="666.125,524.8125,670.125,534.8125,674.125,524.8125,670.125,528.8125" style="stroke:#64748B;stroke-width:1;"/><line style="stroke:#64748B;stroke-width:1.1;" x1="316.2129" x2="670.125" y1="534.8125" y2="534.8125"/><line style="stroke:#64748B;stroke-width:1.1;" x1="504.1812" x2="504.1812" y1="534.8125" y2="554.8125"/><polygon fill="#64748B" points="500.1812,544.8125,504.1812,554.8125,508.1812,544.8125,504.1812,548.8125" style="stroke:#64748B;stroke-width:1;"/><line style="stroke:#64748B;stroke-width:1.1;" x1="504.1812" x2="504.1812" y1="594.4531" y2="614.4531"/><polygon fill="#64748B" points="500.1812,604.4531,504.1812,614.4531,508.1812,604.4531,504.1812,608.4531" style="stroke:#64748B;stroke-width:1;"/><line style="stroke:#64748B;stroke-width:1.1;" x1="226.0967" x2="117.4048" y1="249.8594" y2="249.8594"/><line style="stroke:#64748B;stroke-width:1.1;" x1="117.4048" x2="117.4048" y1="249.8594" y2="271.8594"/><polygon fill="#64748B" points="113.4048,261.8594,117.4048,271.8594,121.4048,261.8594,117.4048,265.8594" style="stroke:#64748B;stroke-width:1;"/><line style="stroke:#64748B;stroke-width:1.1;" x1="310.793" x2="310.793" y1="217.8594" y2="237.8594"/><polygon fill="#64748B" points="306.793,227.8594,310.793,237.8594,314.793,227.8594,310.793,231.8594" style="stroke:#64748B;stroke-width:1;"/><?plantuml-src XLRRRXit47tNLmnI5B6SsB8ItsAZQ7rJ0pG9WiZjKu2AtftLikQIBCcrfHO5-X7zmdv9pr2Nh6otVR9CpiwSEJDpXizfNAl09NqqogOVtx-ZUAijRMdx2nS9vwfA7EYxc5H8RMFePawn2DgdE0WyPSj19VwvT4NSzNEgNA0VWhlL5BMT6jwfj64AR4iE_TvpkfvxDmtAr_CJEWjQcS5RDdUSTA488OfRQbGgQewKvXw7XjvfsyueShW3ZChP56ahH-ZJtt_-HUhEwJBIcAUETvmrSog3hj9kJzBmAgY6OgrATmyuL2aJkNDZj6N4ON8XrQvpKRZ6EyisZTCyuo-IadGw9XvWrPJ_tQ3aIhKcZG3vWsgOdkLydprjCTQ_CGttmD2vGY4AFg6aftKYjgwTrfJS8bEgsodJLFduaenpaJi6HZSwaL4tR0Og17TF3fmPvNTfx0skIgt0VHD9Lo1R6qC5h4ekksnPLt9aJw_sEeT1sLiv71vr3Z-giXHMzxifUKrl3f76XVB4CmzYwLwNgQPS6wbOwMXxsxgqlKqjy4yc4MLcVBMti9nCy1VbQ1Fk6ZMRJC15hPBqLi4HlXbfpLVPIEQfPeh2iTSpDik0ofRK-kmyabqGia243henxZxYcXBFKdyNJjzUe_URDgOrkfW2enTf_DFtCKC2dkpw19NQ-neu9Ht9GTiKj8swGDUZZYya3i8FZ9Jmnit4_wVri11IyorGB4QhgD4vmcEgDP19phTCCb0O7cHF0yHzF6gJ2M0lg0D9N-X3g76E2xfp2qa85_1nH0r8cJHm7cI2El2o1N8YSUFJ76u2S90aKh8OJ1jCGEntkoEurfOBTtIOim9B2cDKOY0CfuJ6jTpYp4JmW1cY6zCogQA0BzfI7frOgAG1nQjKzq_fNWKK4HHcyV30gMDYZ40txfcKxy8PM7nrk7-qVtp-yFAwriMjbMo6kyE7b-iHUxFHltc2prs0E2rzNvnV7bmDdp32dsbEVcau6euEHbrldrOIiE7lrS7Xwwlp9yqUUJmUdOqkEgQNAgaR5Hy0VBK_t7lIwf6_qUZewh9Z-G6JlU7h4P7PudzndHN9XGr7U_j7nmT7ZqmUUhgw65sE3ZR83L1-ZLb9_yrQr_1_yOtvrrRwvpsQ0QKxmpHOalRZqEraZf3ukB8wPoX2xXLAeUtgEAPhQPCxwFX09cmPOYsf9_Y5_IL7DvpkcItak69PC387sih0-ALWkYgF8MCPoImE91ql6d7j_8w1kXbQXyU8GeqMwhcSJ2ZcAlplVq06ABh5pXsiTxWozseEWS6qpKKTczsdoLn9UBSevswsEdxTIpf1O2uXEH04314MULQzzsunmWxJ32dcGaVvlmA9FIHobHLQMOrj3cc8RQXK8JgPfRhSS8T2E3m1iF7hi5XbeeFPqtEG2L70Vcsj1Q1TEbk-Av1pYsqWLA9Sa6RH3l6DfqnRSBdJB00M219KWVT0BxzWUhsJJwpGQQBPB3SBQVzibNs4zxHt4c1CFd05MThPzFtPRZMC-XDg8SacY5oEcNJ3_TDU3rjswm6SRvRuwDk-eCKxQywntoCw0Vz-2G26ft84AKHMJKwhbGUKcKjHa0TsIDuQ30nuZ3bZNfBpR5zA5pOwnhxq2jeHIo2xufbEyYCcvtlITz9L4bSmhgFAcujNm51JXtsZxrZiu0CreAh5es43fJYNPuV50yNYAOAkbAqXLn97_6ihQUGlb5cvxpXT-_jiNv328sd78EgJxcWBJqzvB9hbzr-mDsfECYbJOGUztARJ9qDeMJnOJoO_5D0vNJvp75lgIaXRDYPQgsXbYBFX5nQpsJy0?></g></svg>
