<?plantuml 1.2026.1?><svg xmlns="http://www.w3.org/2000/svg" xmlns:xlink="http://www.w3.org/1999/xlink" contentStyleType="text/css" data-diagram-type="DESCRIPTION" height="364.494px" preserveAspectRatio="none" style="width:960px;height:364px;background:#FFFFFF;" version="1.1" viewBox="0 0 960 364" width="960.8568px" zoomAndPan="magnify"><title>Docs frontend &#8212; Rocket smoke renderer pipeline (per fixed step)</title><defs/><g><g class="title" data-source-line="44"><text fill="#000000" font-family="'Arial'" font-size="12.631" font-weight="bold" lengthAdjust="spacing" textLength="465.3727" x="241.4493" y="24.3553">Docs frontend &#8212; Rocket smoke renderer pipeline (per fixed step)</text></g><!--entity Pool--><g class="entity" data-qualified-name="Pool" data-source-line="48" id="ent0002"><rect fill="#F8FAFC" height="46.2666" rx="2.7066" ry="2.7066" style="stroke:#2563EB;stroke-width:0.4511;" width="114.5669" x="253.7955" y="47.1829"/><text fill="#000000" font-family="'Arial'" font-size="9.0221" lengthAdjust="spacing" textLength="55.8817" x="266.4264" y="68.1884">Particle pool</text><text fill="#000000" font-family="'Arial'" font-size="9.0221" lengthAdjust="spacing" textLength="89.305" x="266.4264" y="78.6908">(2 400 GL / 800 2D)</text></g><!--entity Emit--><g class="entity" data-qualified-name="Emit" data-source-line="50" id="ent0003"><rect fill="#F8FAFC" height="35.7643" rx="2.7066" ry="2.7066" style="stroke:#2563EB;stroke-width:0.4511;" width="52.6852" x="284.7414" y="108.786"/><text fill="#000000" font-family="'Arial'" font-size="9.0221" lengthAdjust="spacing" textLength="27.4232" x="297.3723" y="129.7915">emit()</text></g><g class="entity" data-qualified-name="GMN4" data-source-line="52" id="ent0005"><path d="M308.3703,162.603 L308.3703,204.9365 A2.7066,2.7066 0 0 0 311.077,207.6432 L439.2079,207.6432 A2.7066,2.7066 0 0 0 441.9146,204.9365 L441.9146,168.9185 L432.8924,159.8964 L326.5048,159.8964 L322.8959,144.7392 L319.2871,159.8964 L311.077,159.8964 A2.7066,2.7066 0 0 0 308.3703,162.603" fill="#FEFFDD" style="stroke:#181818;stroke-width:0.4511;"/><path d="M432.8924,159.8964 L432.8924,167.5652 A1.3533,1.3533 0 0 0 434.2458,168.9185 L441.9146,168.9185 L432.8924,159.8964" fill="#FEFFDD" style="stroke:#181818;stroke-width:0.4511;"/><text fill="#000000" font-family="'Arial'" font-size="9.0221" lengthAdjust="spacing" textLength="71.807" x="317.3924" y="176.3908">Boil phase only:</text><text fill="#000000" font-family="'Arial'" font-size="9.0221" lengthAdjust="spacing" textLength="107.3801" x="317.3924" y="186.8932">squashed-disc emission</text><text fill="#000000" font-family="'Arial'" font-size="9.0221" lengthAdjust="spacing" textLength="99.0055" x="317.3924" y="197.3955">around nozzle, vy &#8805; 0</text></g><!--entity Phys--><g class="entity" data-qualified-name="Phys" data-source-line="57" id="ent0007"><rect fill="#F8FAFC" height="35.7643" rx="2.7066" ry="2.7066" style="stroke:#2563EB;stroke-width:0.4511;" width="86.4961" x="203.7768" y="165.8871"/><text fill="#000000" font-family="'Arial'" font-size="9.0221" lengthAdjust="spacing" textLength="61.2342" x="216.4078" y="186.8926">physicsStep()</text></g><g class="entity" data-qualified-name="GMN8" data-source-line="59" id="ent0009"><path d="M158.5488,234.7079 L158.5488,277.0414 A2.7066,2.7066 0 0 0 161.2555,279.748 L332.7878,279.748 A2.7066,2.7066 0 0 0 335.4945,277.0414 L335.4945,241.0234 L326.4723,232.0012 L236.2204,232.0012 L232.6115,201.9575 L229.0026,232.0012 L161.2555,232.0012 A2.7066,2.7066 0 0 0 158.5488,234.7079" fill="#FEFFDD" style="stroke:#181818;stroke-width:0.4511;"/><path d="M326.4723,232.0012 L326.4723,239.6701 A1.3533,1.3533 0 0 0 327.8257,241.0234 L335.4945,241.0234 L326.4723,232.0012" fill="#FEFFDD" style="stroke:#181818;stroke-width:0.4511;"/><text fill="#000000" font-family="'Arial'" font-size="9.0221" lengthAdjust="spacing" textLength="150.7815" x="167.571" y="248.4957">settle + drag + 3-frequency swirl</text><text fill="#000000" font-family="'Arial'" font-size="9.0221" lengthAdjust="spacing" textLength="127.7856" x="167.571" y="258.998">ceiling clamp at startY &#8722; 2&#183;s</text><text fill="#000000" font-family="'Arial'" font-size="9.0221" lengthAdjust="spacing" textLength="98.3315" x="167.571" y="269.5003">smoke killed at lift-off</text></g><!--entity GL--><g class="entity" data-qualified-name="GL" data-source-line="64" id="ent0011"><path d="M361.9424,231.5867 C365.1008,226.4397 369.0868,226.9927 372.3995,231.418 C374.8239,225.891 380.2956,225.0441 383.5463,230.5859 C386.4852,223.9366 392.5263,223.61 396.4388,229.5923 C398.7034,224.7068 403.9591,223.7527 407.1243,228.604 C410.1812,222.8742 413.3945,222.753 417.3221,227.7783 C421.2295,222.512 424.5582,223.3188 428.2735,227.99 C431.7108,221.2071 435.5916,221.4144 440.6437,226.2743 C444.0126,221.6354 448.487,220.5553 451.5643,226.5732 C454.9208,221.3194 459.4747,223.1611 461.8237,227.6357 C466.2647,222.407 471.5127,223.3442 474.3167,229.4413 C477.9911,224.3632 481.7897,224.7661 485.2658,229.659 C488.3224,224.9502 493.5895,224.3296 496.7579,229.5292 C501.159,225.1684 505.3482,224.8973 507.913,231.4126 C511.4735,226.654 515.0457,226.4973 518.0617,231.9535 C523.1785,235.3962 524.5555,239.6962 518.6689,243.7074 C526.5491,246.1911 526.9682,253.2317 520.8938,257.9026 C526.2455,262.1092 525.7769,266.166 519.8813,269.3805 C525.8252,274.1923 525.2562,278.3496 518.4099,281.6242 C516.6931,287.4815 511.7926,288.0051 508.3734,283.2314 C505.1398,288.3187 501.0504,289.5249 497.243,283.8234 C492.3647,289.2292 488.2773,288.2491 484.4141,282.6411 C481.0798,288.6079 476.7637,287.9481 473.2439,282.828 C469.5941,287.8969 466.1025,289.2277 461.8876,283.4179 C458.6311,288.2981 454.5899,289.1647 451.2936,283.4577 C448.677,288.9972 443.1165,289.5026 439.5952,284.4577 C436.5443,289.0807 431.5747,289.5481 428.9822,283.9804 C425.846,289.5849 420.5675,289.6805 417.334,284.0815 C414.6567,288.7504 410.251,288.9404 407.684,283.971 C404.2815,289.4555 398.1999,288.9573 395.3067,283.4 C392.3195,289.0303 387.1111,288.4044 383.7381,283.8377 C379.6316,288.5489 375.4501,286.9323 372.9434,282.0396 C369.5033,287.5902 365.6613,288.72 361.1291,283.2056 C355.4643,280.5044 353.8138,274.3865 359.9802,270.6064 C351.9224,267.55 349.8197,262.8297 356.3361,256.1097 C351.66,250.6322 353.5371,247.256 359.6405,244.9786 C353.6225,240.2919 354.0121,233.8758 361.9424,231.5867" fill="#F1F1F1" style="stroke:#181818;stroke-width:0.4511;"/><text fill="#000000" font-family="'Arial'" font-size="9.0221" lengthAdjust="spacing" textLength="61.3355" x="370.7313" y="248.4957">WebGL2 path</text><text fill="#000000" font-family="'Arial'" font-size="9.0221" lengthAdjust="spacing" textLength="74.2167" x="370.7313" y="258.998">instanced quads</text><text fill="#000000" font-family="'Arial'" font-size="9.0221" lengthAdjust="spacing" textLength="136.9267" x="370.7313" y="269.5003">+ domain-warped FBM shader</text></g><!--entity C2--><g class="entity" data-qualified-name="C2" data-source-line="65" id="ent0012"><path d="M12.7802,237.2326 C14.7189,231.7316 17.6807,230.8283 22.0049,234.9445 C24.3769,229.6946 28.8818,229.7229 31.491,234.725 C34.1834,229.3334 38.0936,227.0457 42.9943,232.35 C45.0416,227.8668 48.732,226.2366 52.3191,230.755 C55.1911,226.0454 59.3396,225.2191 62.8146,230.0947 C65.0149,224.9434 68.5468,224.3209 72.0587,228.8411 C75.7905,223.2589 80.6647,223.9786 83.2576,229.9455 C86.88,226.2042 92.2446,225.7304 93.921,232.0152 C97.8531,227.8066 100.9254,227.8508 103.4957,233.3572 C106.3737,229.4363 109.7659,229.0524 112.9716,232.9605 C116.9149,228.3337 122.0562,229.0474 123.5258,235.3494 C127.2122,230.4852 131.4322,230.0557 134.5603,235.9235 C139.0642,239.2541 139.7414,243.8614 134.1501,246.8117 C138.8431,249.6015 139.2573,252.9027 134.6452,256.184 C140.3696,259.2534 139.2163,263.6274 134.6981,266.7481 C139.0384,269.8736 140.217,273.8465 134.7566,277.0278 C131.8766,282.0403 128.3804,283.1882 124.2025,278.4297 C121.9025,283.9764 117.2696,285.5144 113.0012,280.5216 C109.7999,284.7753 106.3102,284.9653 102.9212,280.7449 C100.752,285.4256 96.986,285.661 93.4823,282.314 C91.098,286.6529 86.7743,286.6193 83.9023,282.8934 C80.8628,287.7069 76.8863,288.4983 72.9175,283.9882 C69.8912,287.8049 65.4915,286.7279 63.7147,282.5499 C59.944,287.4279 56.3427,287.1527 53.0011,282.0875 C49.7019,285.916 45.9102,286.0859 43.1371,281.4727 C40.0539,285.4627 35.1783,285.8866 33.0311,280.4674 C28.9161,285.6777 23.3986,284.2461 21.3642,278.293 C18.4155,282.8152 13.6111,281.9584 11.3205,277.5527 C6.2092,274.8713 5.6966,271.2808 10.5154,267.7811 C5.9288,265.0104 5.4407,261.001 9.4615,257.3599 C5.4133,253.8897 5.7043,249.8035 10.4031,247.1392 C6.1763,243.3223 7.0746,238.6663 12.7802,237.2326" fill="#F1F1F1" style="stroke:#181818;stroke-width:0.4511;"/><text fill="#000000" font-family="'Arial'" font-size="9.0221" lengthAdjust="spacing" textLength="83.8292" x="20.7809" y="253.7466">Canvas2D fallback</text><text fill="#000000" font-family="'Arial'" font-size="9.0221" lengthAdjust="spacing" textLength="102.4285" x="20.7809" y="264.2489">3-stop radial gradients</text></g><!--entity P1--><g class="entity" data-qualified-name="P1" data-source-line="67" id="ent0013"><rect fill="#F1F1F1" height="55.2887" rx="2.7066" ry="2.7066" style="stroke:#181818;stroke-width:0.4511;" width="126.3556" x="131.5185" y="304.1061"/><path d="M173.6371,304.1061 L173.6371,308.6172 L167.3216,314.9327 L131.5185,314.9327" fill="none" style="stroke:#181818;stroke-width:0.4511;"/><text fill="#000000" font-family="'Arial'" font-size="9.0221" lengthAdjust="spacing" textLength="53.309" x="148.6606" y="334.1338">smoke pass</text><text fill="#000000" font-family="'Arial'" font-size="9.0221" lengthAdjust="spacing" textLength="83.0494" x="148.6606" y="344.6361">premultiplied over</text></g><!--entity P2--><g class="entity" data-qualified-name="P2" data-source-line="68" id="ent0014"><rect fill="#F1F1F1" height="55.2887" rx="2.7066" ry="2.7066" style="stroke:#181818;stroke-width:0.4511;" width="81.6062" x="337.0426" y="304.1061"/><path d="M364.2447,304.1061 L364.2447,308.6172 L357.9292,314.9327 L337.0426,314.9327" fill="none" style="stroke:#181818;stroke-width:0.4511;"/><text fill="#000000" font-family="'Arial'" font-size="9.0221" lengthAdjust="spacing" textLength="38.3" x="354.1847" y="334.1338">hot pass</text><text fill="#000000" font-family="'Arial'" font-size="9.0221" lengthAdjust="spacing" textLength="36.4233" x="354.1847" y="344.6361">additive</text></g><g class="entity" data-qualified-name="GMN23" data-source-line="81" id="ent0024"><path d="M542.9908,234.7079 L542.9908,252.9326 L525.0187,256.5414 L542.9908,260.1503 L542.9908,277.0414 A2.7066,2.7066 0 0 0 545.6974,279.748 L745.8997,279.748 A2.7066,2.7066 0 0 0 748.6064,277.0414 L748.6064,241.0234 L739.5842,232.0012 L545.6974,232.0012 A2.7066,2.7066 0 0 0 542.9908,234.7079" fill="#FEFFDD" style="stroke:#181818;stroke-width:0.4511;"/><path d="M739.5842,232.0012 L739.5842,239.6701 A1.3533,1.3533 0 0 0 740.9376,241.0234 L748.6064,241.0234 L739.5842,232.0012" fill="#FEFFDD" style="stroke:#181818;stroke-width:0.4511;"/><text fill="#000000" font-family="'Arial'" font-size="9.0221" lengthAdjust="spacing" textLength="179.4514" x="552.0129" y="248.4957">pack instance buffers (positions &#215; DPR)</text><text fill="#000000" font-family="'Arial'" font-size="9.0221" lengthAdjust="spacing" textLength="148.4158" x="552.0129" y="258.998">drawArraysInstanced &#215; 2 passes</text><text fill="#000000" font-family="'Arial'" font-size="9.0221" lengthAdjust="spacing" textLength="155.6141" x="552.0129" y="269.5003">uPass uniform routes particle type</text></g><g class="entity" data-qualified-name="GMN26" data-source-line="87" id="ent0027"><path d="M766.478,239.9588 L766.478,271.79 A2.7066,2.7066 0 0 0 769.1846,274.4966 L951.8801,274.4966 A2.7066,2.7066 0 0 0 954.5867,271.79 L954.5867,246.2742 L945.5646,237.2521 L769.1846,237.2521 A2.7066,2.7066 0 0 0 766.478,239.9588" fill="#FEFFDD" style="stroke:#181818;stroke-width:0.4511;"/><path d="M945.5646,237.2521 L945.5646,244.9209 A1.3533,1.3533 0 0 0 946.9179,246.2742 L954.5867,246.2742 L945.5646,237.2521" fill="#FEFFDD" style="stroke:#181818;stroke-width:0.9022;"/><text fill="#000000" font-family="'Arial'" font-size="9.0221" lengthAdjust="spacing" textLength="147.7858" x="775.5001" y="253.7466">iterate pool, draw radialGradient</text><text fill="#000000" font-family="'Arial'" font-size="9.0221" lengthAdjust="spacing" textLength="161.9446" x="775.5001" y="264.2489">globalCompositeOperation per pass</text></g><!--link Pool to Emit--><g class="link" data-entity-1="ent0002" data-entity-2="ent0003" data-link-type="dependency" data-source-line="70" id="lnk15"><path d="M311.086,93.8905 C311.086,98.8346 311.086,98.5639 311.086,103.2645" fill="none" id="Pool-to-Emit" style="stroke:#64748B;stroke-width:0.9924;"/><polygon fill="#64748B" points="311.086,108.6778,314.6948,100.5578,311.086,104.1667,307.4771,100.5578,311.086,108.6778" style="stroke:#64748B;stroke-width:0.9924;"/><text fill="#000000" font-family="'Arial'" font-size="8.1199" lengthAdjust="spacing" textLength="20.4148" x="260.8032" y="113.3368">write</text><text fill="#000000" font-family="'Arial'" font-size="8.1199" lengthAdjust="spacing" textLength="2.5811" x="281.218" y="113.3368">&#160;</text><text fill="#000000" font-family="'Arial'" font-size="8.1199" lengthAdjust="spacing" textLength="20.272" x="283.7991" y="113.3368">head</text><text fill="#000000" font-family="'Arial'" font-size="8.1199" lengthAdjust="spacing" textLength="19.0628" x="257.8554" y="122.7889">(ring</text><text fill="#000000" font-family="'Arial'" font-size="8.1199" lengthAdjust="spacing" textLength="2.5811" x="276.9182" y="122.7889">&#160;</text><text fill="#000000" font-family="'Arial'" font-size="8.1199" lengthAdjust="spacing" textLength="27.5197" x="279.4993" y="122.7889">buffer)</text></g><!--link Emit to Phys--><g class="link" data-entity-1="ent0003" data-entity-2="ent0007" data-link-type="dependency" data-source-line="71" id="lnk16"><path d="M299.3211,144.9287 C299.3211,161.8271 299.3211,184.3644 299.3211,184.3644 C299.3211,184.3644 301.2609,184.3644 296.1002,184.3644" fill="none" id="Emit-to-Phys" style="stroke:#64748B;stroke-width:0.9924;"/><polygon fill="#64748B" points="290.6869,184.3644,298.8069,187.9732,295.198,184.3644,298.8069,180.7555,290.6869,184.3644" style="stroke:#64748B;stroke-width:0.9924;"/><text fill="#000000" font-family="'Arial'" font-size="8.1199" lengthAdjust="spacing" textLength="33.7643" x="237.9706" y="162.9675">updated</text><text fill="#000000" font-family="'Arial'" font-size="8.1199" lengthAdjust="spacing" textLength="2.5811" x="271.7349" y="162.9675">&#160;</text><text fill="#000000" font-family="'Arial'" font-size="8.1199" lengthAdjust="spacing" textLength="20.5694" x="274.316" y="162.9675">state</text></g><!--link Phys to GL--><g class="link" data-entity-1="ent0007" data-entity-2="ent0011" data-link-type="dependency" data-source-line="72" id="lnk17"><path d="M261.4372,201.732 C261.4372,209.1031 261.4372,215.9418 261.4372,215.9418 C261.4372,215.9418 397.7526,215.9418 397.7526,215.9418 C397.7526,215.9418 397.7526,213.1811 397.7526,217.1237" fill="none" id="Phys-to-GL" style="stroke:#64748B;stroke-width:0.9924;"/><polygon fill="#64748B" points="397.7526,222.537,401.3614,214.4171,397.7526,218.026,394.1437,214.4171,397.7526,222.537" style="stroke:#64748B;stroke-width:0.9924;"/><text fill="#000000" font-family="'Arial'" font-size="8.1199" lengthAdjust="spacing" textLength="25.1884" x="283.6136" y="227.99">useGL</text><text fill="#000000" font-family="'Arial'" font-size="8.1199" lengthAdjust="spacing" textLength="2.5811" x="308.802" y="227.99">&#160;</text><text fill="#000000" font-family="'Arial'" font-size="8.1199" lengthAdjust="spacing" textLength="6.8036" x="311.3831" y="227.99">=</text><text fill="#000000" font-family="'Arial'" font-size="8.1199" lengthAdjust="spacing" textLength="2.5811" x="318.1867" y="227.99">&#160;</text><text fill="#000000" font-family="'Arial'" font-size="8.1199" lengthAdjust="spacing" textLength="16.6641" x="320.7678" y="227.99">true</text></g><!--link Phys to C2--><g class="link" data-entity-1="ent0007" data-entity-2="ent0012" data-link-type="dependency" data-source-line="73" id="lnk18"><path d="M203.7587,184.3644 C151.9266,184.3644 71.9995,184.3644 71.9995,184.3644 C71.9995,184.3644 71.9995,202.5259 71.9995,222.6092" fill="none" id="Phys-to-C2" style="stroke:#64748B;stroke-width:0.9924;"/><polygon fill="#64748B" points="71.9995,228.0225,75.6084,219.9026,71.9995,223.5114,68.3907,219.9026,71.9995,228.0225" style="stroke:#64748B;stroke-width:0.9924;"/><text fill="#000000" font-family="'Arial'" font-size="8.1199" lengthAdjust="spacing" textLength="25.1884" x="55.5973" y="178.3683">useGL</text><text fill="#000000" font-family="'Arial'" font-size="8.1199" lengthAdjust="spacing" textLength="2.5811" x="80.7857" y="178.3683">&#160;</text><text fill="#000000" font-family="'Arial'" font-size="8.1199" lengthAdjust="spacing" textLength="6.8036" x="83.3668" y="178.3683">=</text><text fill="#000000" font-family="'Arial'" font-size="8.1199" lengthAdjust="spacing" textLength="2.5811" x="90.1704" y="178.3683">&#160;</text><text fill="#000000" font-family="'Arial'" font-size="8.1199" lengthAdjust="spacing" textLength="19.3165" x="92.7515" y="178.3683">false</text></g><!--link GL to P1--><g class="link" data-entity-1="ent0011" data-entity-2="ent0013" data-link-type="dependency" data-source-line="75" id="lnk19"><path d="M375.2784,289.1925 C375.2784,295.8057 375.2784,300.7499 375.2784,300.7499 C375.2784,300.7499 208.2157,300.7499 208.2157,300.7499 C208.2157,300.7499 208.2157,296.5185 208.2157,298.4222" fill="none" id="GL-to-P1" style="stroke:#64748B;stroke-width:0.9924;"/><polygon fill="#64748B" points="208.2157,303.8354,211.8245,295.7155,208.2157,299.3244,204.6068,295.7155,208.2157,303.8354" style="stroke:#64748B;stroke-width:0.9924;"/></g><!--link GL to P2--><g class="link" data-entity-1="ent0011" data-entity-2="ent0014" data-link-type="dependency" data-source-line="76" id="lnk20"><path d="M396.9586,288.9309 C396.9586,293.884 396.9586,293.5322 396.9586,298.368" fill="none" id="GL-to-P2" style="stroke:#64748B;stroke-width:0.9924;"/><polygon fill="#64748B" points="396.9586,303.7813,400.5675,295.6614,396.9586,299.2702,393.3498,295.6614,396.9586,303.7813" style="stroke:#64748B;stroke-width:0.9924;"/></g><!--link C2 to P1--><g class="link" data-entity-1="ent0012" data-entity-2="ent0013" data-link-type="dependency" data-source-line="77" id="lnk21"><path d="M133.729,283.698 C133.729,290.212 133.729,291.7368 133.729,298.2598" fill="none" id="C2-to-P1" style="stroke:#64748B;stroke-width:0.9924;"/><polygon fill="#64748B" points="133.729,303.673,137.3378,295.5531,133.729,299.162,130.1201,295.5531,133.729,303.673" style="stroke:#64748B;stroke-width:0.9924;"/></g><!--link C2 to P2--><g class="link" data-entity-1="ent0012" data-entity-2="ent0014" data-link-type="dependency" data-source-line="78" id="lnk22"><path d="M135.9304,283.8604 C135.9304,291.2135 135.9304,297.141 135.9304,297.141 C135.9304,297.141 345.3159,297.141 345.3159,297.141 C345.3159,297.141 345.3159,294.4614 345.3159,298.4041" fill="none" id="C2-to-P2" style="stroke:#64748B;stroke-width:0.9924;"/><polygon fill="#64748B" points="345.3159,303.8174,348.9248,295.6975,345.3159,299.3063,341.7071,295.6975,345.3159,303.8174" style="stroke:#64748B;stroke-width:0.9924;"/></g><!--link C2 to GMN26--><g class="link" data-entity-1="ent0012" data-entity-2="ent0027" data-link-type="association" data-source-line="87" id="lnk28"><path d="M138.1408,283.7341 C138.1408,288.8587 138.1408,292.63 138.1408,292.63 C138.1408,292.63 860.5337,292.63 860.5337,292.63 C860.5337,292.63 860.5337,283.7251 860.5337,274.6849" fill="none" id="C2-GMN26" style="stroke:#64748B;stroke-width:0.9924;stroke-dasharray:6.3155,6.3155;"/></g><?plantuml-src XLRRRYD547ttLvI2qCPXdTZETOD097QSHMINA0uWf9L8UwRiQTmptTlT4yUBa7Y4LuJ45_0DlCEVx9TmkiVsZfCi-pIjwfgwdAewrKzec0dBALqgKVXlNboGcyg2DcNn8oSUSZ7sREaBvuNrPQveD2UNM6cysx4yuOAjyFn3gXEtRUOqrfQ-idegoSbYehWrbeh9Sf6oRJQUqFNSw8aL9fiVqucLGkqyPtNBNYQ2u2APKYvyah4ZFpSGAhgGHNb7ZkqjmXZhmZlQZ1wQzFQNFqZSQfaw6l94SqiNQawfbME_tGXf6655JYuJgPuX71eBvRXsesJ1yCEahSzqxIBHkT455txevp7-n8kGJat585WnuVShf3mMfV83XFnIv4mRCT-DnpM6yWrJfms4JWKAaV0nUJd9F76Xoqb6NbUPKbPEc2R2kAUaj7PSKr0obvwK6B7Q4TRg6MbWfeJPfg5Hk4gb0FQv8pa6s58fIg2LSbf7gz0fEpRKRTU4LXJJ8EmSreIN8aq3gdlrb8oaPmT8eoSCyPq1i3IJgSyerYPKBDMqjLLelxL59UA_kN4eC-ElTgLvSuClob5wtENYxkO6M6J2XzvAsC4s8wtvCfkGkS-ONC3Oo3jM2uUYIAaqqRYZeWAaYWWTD59wvd1DdkzySnj6dr-Zz_FI-LLqpbj6BzBmstCNGq8yqVGnAjN-6766T48Eil1M5aucw7hKyPFW1-vtL2ZXIDy5-rUhOI6aPaf4KOrMag5p0eu-auWiv3nb2WE5uK7sj0E_3qVjvWPXLz01f7VmmTKm-WNSiOM22stniqCDI2Y_emt017J0PHFWEEBS-3dCMCH18P6KWy8anmIuPhqxh2wBj3971p4he2GmHYa6Gh7tQDo2IyYK0mwO8Hgfaaaa2MpHfZ3en4HuYL2Cy5dpKve9Yo82maWU1d5AvnaZKFTx4ihNqmeQ7nti7UuTdTw_lCvaCYr2DftjpltBrOWzM-lVEC6dseAS5hPxf_tziyuZIlXCOl8BnK5di3-eMxjQKi2QlUx-mUxPwQDg3omU3Ku6lPfgNtWn4kvUWDszJljHhGVs1eF3itvDyoKcUytM0o2ZnWVZEacyjck6sdk7H_k73rJkMphh3Vg3_JLmBPXVObRy_wDML_nWV4D-NOR-UO5cGEbEC0q5XVPZM-zaTg1ujzGwPJ12x1NojgppEAPheHCxw6W_JDZ2nOfIZt72_WgY4ViPSm4w7dDOC64EP146nYm8Ku_Z63AMKPZ5dP2E2HnnhKrBWTqKhTnZHC565Nik9XECkNJ_qy-W0NAwshaxgnqkr4pCGJ2OjdbWntpxSJ2N55ulogc-Muft6rvw44mVb0D2m11XaKVMkzB9b3svN4-NwpqaA4rCcJPDMDOWunGiogRPUF_IRQns9srKaU5aj5QlYiqkxRNRT7u12Zp2eTjlRf1mT8dRjVyOYs-pkZl3iG74K0VjlSu3s556I4mgCXbc9S9v395xNGgNSTf2zHBGe7GEp8GB4JiCo_3D6yLFwHQhwxU_gDtWAFIyvXwl6N2_6oBJHHINaDoF8ihW4YIfmev8GR3uxBR6jYed7bOpQHLq4fOgu9yeaHl2weklh-_fxQ-_K_UVlwEPYFmKIpoyqNpeDj_Iut4jmaJfCgMDxtXqVj6DRFkgG0l5Baq9cQVkLO4uT0u2Ru663SI3qnVnmSGs9d9-iJJJ4yMjSDr-U4If4ORmLR7RSbuRF0um1OecuHiMHlonrsqquewXZIfK8npS6SivdZmIMm3EmlkamgkpLCxGx9Lgw44lRxbIWBbGTcgrFe_rf6EQMGc0CnOfMiK6l4RbU1pUcL4XQ0RCeLcQLFZOY_WqeZ3Seh6Em_x6zxDgwbTNlMxjgdesDd2EDZkhKxS1lOLiUKAWiV0sFjzGTq18yRL8I_0NSMAqZNOox497__v9_Skh9bJH5u68CBzVheg5ssw4XKFjoqkSg2ma5cPSoHuaOvQp4sQhrWNhmQ0iH80jlaF2b3sD_XOrF5-K43eJfKT2zS8x627oroRy4hTs93Bdthdu3m00?></g></svg>
