<svg xmlns="http://www.w3.org/2000/svg" xmlns:xlink="http://www.w3.org/1999/xlink" contentStyleType="text/css" data-diagram-type="ACTIVITY" height="1362px" preserveAspectRatio="none" style="width:904px;height:1362px;background:#FFFFFF;" version="1.1" viewBox="0 0 904 1362" width="904px" zoomAndPan="magnify"><?plantuml 1.2026.6?><defs/><g><g class="title" data-source-line="1"><text fill="#000000" font-family="sans-serif" font-size="14" font-weight="700" lengthAdjust="spacing" textLength="421.9482" x="240.0414" y="32.9951">ETR Study API &#8212; Learner decision flow (analyst view)</text></g><ellipse cx="457.8562" cy="62.2969" fill="#222222" rx="10" ry="10" style="stroke:#222222;stroke-width:1;"/><rect fill="#F1F1F1" height="33.9688" rx="12.5" ry="12.5" style="stroke:#181818;stroke-width:0.5;" width="333.9453" x="290.8835" y="140.6992"/><text fill="#000000" font-family="sans-serif" font-size="12" lengthAdjust="spacing" textLength="313.9453" x="300.8835" y="161.8379">Write title + cue sheet + dense paragraph + bullets</text><rect fill="#F1F1F1" height="47.9375" rx="12.5" ry="12.5" style="stroke:#181818;stroke-width:0.5;" width="213.0547" x="351.3289" y="205.1836"/><text fill="#000000" font-family="sans-serif" font-size="12" font-weight="700" lengthAdjust="spacing" textLength="181.7109" x="361.3289" y="226.3223">POST /api/v1/conspectuses</text><text fill="#000000" font-family="sans-serif" font-size="12" lengthAdjust="spacing" textLength="193.0547" x="361.3289" y="240.291">first review scheduled ~1h later</text><polygon fill="#F1F1F1" points="320.8198,92.2969,594.8926,92.2969,606.8926,104.2969,594.8926,116.2969,320.8198,116.2969,308.8198,104.2969,320.8198,92.2969" style="stroke:#181818;stroke-width:0.5;stroke-linejoin:miter;stroke-miterlimit:10;"/><text fill="#000000" font-family="sans-serif" font-size="11" lengthAdjust="spacing" textLength="19.0083" x="461.8562" y="126.5073">yes</text><text fill="#000000" font-family="sans-serif" font-size="13" lengthAdjust="spacing" textLength="274.0728" x="320.8198" y="108.7974">Does the learner have a new note to add?</text><polygon fill="#F1F1F1" points="457.8562,273.1211,469.8562,285.1211,457.8562,297.1211,445.8562,285.1211,457.8562,273.1211" style="stroke:#181818;stroke-width:0.5;stroke-linejoin:miter;stroke-miterlimit:10;"/><rect fill="#F1F1F1" height="33.9688" rx="12.5" ry="12.5" style="stroke:#181818;stroke-width:0.5;" width="101.9609" x="406.8757" y="317.1211"/><text fill="#000000" font-family="sans-serif" font-size="12" lengthAdjust="spacing" textLength="81.9609" x="416.8757" y="338.2598">Open the app</text><rect fill="#F1F1F1" height="47.9375" rx="12.5" ry="12.5" style="stroke:#181818;stroke-width:0.5;" width="227.7676" x="343.9724" y="371.0898"/><text fill="#000000" font-family="sans-serif" font-size="12" font-weight="700" lengthAdjust="spacing" textLength="207.7676" x="353.9724" y="392.2285">GET /api/v1/schedule/summary</text><text fill="#000000" font-family="sans-serif" font-size="12" lengthAdjust="spacing" textLength="146.1211" x="353.9724" y="406.1973">(load badge for the day)</text><polygon fill="#F1F1F1" points="360.6704,439.0273,555.042,439.0273,567.042,451.0273,555.042,463.0273,360.6704,463.0273,348.6704,451.0273,360.6704,439.0273" style="stroke:#181818;stroke-width:0.5;stroke-linejoin:miter;stroke-miterlimit:10;"/><text fill="#000000" font-family="sans-serif" font-size="13" lengthAdjust="spacing" textLength="194.3716" x="360.6704" y="455.5278">How to build tonight's queue?</text><text fill="#000000" font-family="sans-serif" font-size="11" lengthAdjust="spacing" textLength="124.4214" x="224.249" y="448.4331">curated evening batch</text><text fill="#000000" font-family="sans-serif" font-size="11" lengthAdjust="spacing" textLength="60.8276" x="567.042" y="448.4331">full due list</text><rect fill="#F1F1F1" height="47.9375" rx="12.5" ry="12.5" style="stroke:#181818;stroke-width:0.5;" width="219.043" x="228.1306" y="473.0273"/><text fill="#000000" font-family="sans-serif" font-size="12" font-weight="700" lengthAdjust="spacing" textLength="199.043" x="238.1306" y="494.166">GET /api/v1/schedule/preview</text><text fill="#000000" font-family="sans-serif" font-size="12" lengthAdjust="spacing" textLength="123.3164" x="238.1306" y="508.1348">deterministic shuffle</text><rect fill="#F1F1F1" height="33.9688" rx="12.5" ry="12.5" style="stroke:#181818;stroke-width:0.5;" width="221.7734" x="467.1736" y="473.0273"/><text fill="#000000" font-family="sans-serif" font-size="12" font-weight="700" lengthAdjust="spacing" textLength="201.7734" x="477.1736" y="494.166">GET /api/v1/conspectuses/due</text><polygon fill="#F1F1F1" points="457.8562,526.9648,469.8562,538.9648,457.8562,550.9648,445.8562,538.9648,457.8562,526.9648" style="stroke:#181818;stroke-width:0.5;stroke-linejoin:miter;stroke-miterlimit:10;"/><rect fill="#F1F1F1" height="33.9688" rx="12.5" ry="12.5" style="stroke:#181818;stroke-width:0.5;" width="98.7617" x="408.4753" y="614.9648"/><text fill="#000000" font-family="sans-serif" font-size="12" lengthAdjust="spacing" textLength="78.7617" x="418.4753" y="636.1035">Tap one card</text><rect fill="#F1F1F1" height="47.9375" rx="12.5" ry="12.5" style="stroke:#181818;stroke-width:0.5;" width="226.291" x="344.7107" y="668.9336"/><text fill="#000000" font-family="sans-serif" font-size="12" font-weight="700" lengthAdjust="spacing" textLength="206.291" x="354.7107" y="690.0723">GET /api/v1/conspectuses/{id}</text><text fill="#000000" font-family="sans-serif" font-size="12" lengthAdjust="spacing" textLength="87.8965" x="354.7107" y="704.041">reads the note</text><rect fill="#F1F1F1" height="33.9688" rx="12.5" ry="12.5" style="stroke:#181818;stroke-width:0.5;" width="177.9336" x="368.8894" y="736.8711"/><text fill="#000000" font-family="sans-serif" font-size="12" lengthAdjust="spacing" textLength="157.9336" x="378.8894" y="758.0098">Try to recall from memory</text><polygon fill="#F1F1F1" points="93.1189,790.8398,298.5291,790.8398,310.5291,802.8398,298.5291,814.8398,93.1189,814.8398,81.1189,802.8398,93.1189,790.8398" style="stroke:#181818;stroke-width:0.5;stroke-linejoin:miter;stroke-miterlimit:10;"/><text fill="#000000" font-family="sans-serif" font-size="11" lengthAdjust="spacing" textLength="25.749" x="199.824" y="825.0503">easy</text><text fill="#000000" font-family="sans-serif" font-size="13" lengthAdjust="spacing" textLength="205.4102" x="93.1189" y="807.3403">How well did the learner recall?</text><rect fill="#F1F1F1" height="47.9375" rx="12.5" ry="12.5" style="stroke:#181818;stroke-width:0.5;" width="238.2852" x="76.6814" y="847.6445"/><text fill="#000000" font-family="sans-serif" font-size="12" font-weight="700" lengthAdjust="spacing" textLength="156.6504" x="86.6814" y="868.7832">POST .../actions/review</text><text fill="#000000" font-family="sans-serif" font-size="12" lengthAdjust="spacing" textLength="57.8203" x="247.1462" y="868.7832">tag=easy</text><text fill="#000000" font-family="sans-serif" font-size="12" lengthAdjust="spacing" textLength="187.125" x="86.6814" y="882.752">next review pushed further out</text><polygon fill="#F1F1F1" points="375.8667,790.8398,531.7715,790.8398,543.7715,802.8398,531.7715,814.8398,375.8667,814.8398,363.8667,802.8398,375.8667,790.8398" style="stroke:#181818;stroke-width:0.5;stroke-linejoin:miter;stroke-miterlimit:10;"/><text fill="#000000" font-family="sans-serif" font-size="11" lengthAdjust="spacing" textLength="25.2173" x="457.8191" y="825.0503">hard</text><text fill="#000000" font-family="sans-serif" font-size="13" lengthAdjust="spacing" textLength="155.9048" x="375.8667" y="807.3403">remembered with effort</text><text fill="#000000" font-family="sans-serif" font-size="11" lengthAdjust="spacing" textLength="33.1504" x="543.7715" y="800.2456">forgot</text><rect fill="#F1F1F1" height="47.9375" rx="12.5" ry="12.5" style="stroke:#181818;stroke-width:0.5;" width="237.7051" x="334.9666" y="847.6445"/><text fill="#000000" font-family="sans-serif" font-size="12" font-weight="700" lengthAdjust="spacing" textLength="156.6504" x="344.9666" y="868.7832">POST .../actions/review</text><text fill="#000000" font-family="sans-serif" font-size="12" lengthAdjust="spacing" textLength="57.2402" x="505.4314" y="868.7832">tag=hard</text><text fill="#000000" font-family="sans-serif" font-size="12" lengthAdjust="spacing" textLength="109.8809" x="344.9666" y="882.752">step back one slot</text><rect fill="#F1F1F1" height="47.9375" rx="12.5" ry="12.5" style="stroke:#181818;stroke-width:0.5;" width="246.3594" x="592.6716" y="844.2422"/><text fill="#000000" font-family="sans-serif" font-size="12" font-weight="700" lengthAdjust="spacing" textLength="156.6504" x="602.6716" y="865.3809">POST .../actions/review</text><text fill="#000000" font-family="sans-serif" font-size="12" lengthAdjust="spacing" textLength="65.8945" x="763.1365" y="865.3809">tag=forgot</text><text fill="#000000" font-family="sans-serif" font-size="12" lengthAdjust="spacing" textLength="81.8496" x="602.6716" y="879.3496">back to slot A</text><rect fill="#F1F1F1" height="47.9375" rx="12.5" ry="12.5" style="stroke:#181818;stroke-width:0.5;" width="190.9941" x="362.3591" y="983.9844"/><text fill="#000000" font-family="sans-serif" font-size="12" font-weight="700" lengthAdjust="spacing" textLength="131.4023" x="372.3591" y="1005.123">POST /api/v1/errors</text><text fill="#000000" font-family="sans-serif" font-size="12" lengthAdjust="spacing" textLength="170.9941" x="372.3591" y="1019.0918">optionally linked to this card</text><polygon fill="#F1F1F1" points="307.0898,935.582,608.6226,935.582,620.6226,947.582,608.6226,959.582,307.0898,959.582,295.0898,947.582,307.0898,935.582" style="stroke:#181818;stroke-width:0.5;stroke-linejoin:miter;stroke-miterlimit:10;"/><text fill="#000000" font-family="sans-serif" font-size="11" lengthAdjust="spacing" textLength="19.0083" x="461.8562" y="969.7925">yes</text><text fill="#000000" font-family="sans-serif" font-size="13" lengthAdjust="spacing" textLength="301.5327" x="307.0898" y="952.0825">Noticed a specific mistake to remember later?</text><text fill="#000000" font-family="sans-serif" font-size="11" lengthAdjust="spacing" textLength="13.7017" x="620.6226" y="944.9878">no</text><polygon fill="#F1F1F1" points="457.8562,1051.9219,469.8562,1063.9219,457.8562,1075.9219,445.8562,1063.9219,457.8562,1051.9219" style="stroke:#181818;stroke-width:0.5;stroke-linejoin:miter;stroke-miterlimit:10;"/><polygon fill="#F1F1F1" points="457.8562,570.9648,469.8562,582.9648,457.8562,594.9648,445.8562,582.9648,457.8562,570.9648" style="stroke:#181818;stroke-width:0.5;stroke-linejoin:miter;stroke-miterlimit:10;"/><polygon fill="#F1F1F1" points="377.1997,1095.9219,538.5127,1095.9219,550.5127,1107.9219,538.5127,1119.9219,377.1997,1119.9219,365.1997,1107.9219,377.1997,1095.9219" style="stroke:#181818;stroke-width:0.5;stroke-linejoin:miter;stroke-miterlimit:10;"/><text fill="#000000" font-family="sans-serif" font-size="13" lengthAdjust="spacing" textLength="161.313" x="377.1997" y="1112.4224">More cards in the batch?</text><text fill="#000000" font-family="sans-serif" font-size="11" lengthAdjust="spacing" textLength="19.0083" x="550.5127" y="1105.3276">yes</text><polygon fill="#F1F1F1" points="37,1162.7266,260.0757,1162.7266,272.0757,1174.7266,260.0757,1186.7266,37,1186.7266,25,1174.7266,37,1162.7266" style="stroke:#181818;stroke-width:0.5;stroke-linejoin:miter;stroke-miterlimit:10;"/><text fill="#000000" font-family="sans-serif" font-size="11" lengthAdjust="spacing" textLength="21.1191" x="152.5378" y="1196.937">edit</text><text fill="#000000" font-family="sans-serif" font-size="13" lengthAdjust="spacing" textLength="223.0757" x="37" y="1179.2271">Need to update or archive a note?</text><rect fill="#F1F1F1" height="47.9375" rx="12.5" ry="12.5" style="stroke:#181818;stroke-width:0.5;" width="245.1758" x="25.95" y="1218.437"/><text fill="#000000" font-family="sans-serif" font-size="12" font-weight="700" lengthAdjust="spacing" textLength="225.1758" x="35.95" y="1239.5757">PATCH /api/v1/conspectuses/{id}</text><text fill="#000000" font-family="sans-serif" font-size="12" lengthAdjust="spacing" textLength="121.752" x="35.95" y="1253.5444">content-only update</text><polygon fill="#F1F1F1" points="380.6895,1162.7266,481.6553,1162.7266,493.6553,1174.7266,481.6553,1186.7266,380.6895,1186.7266,368.6895,1174.7266,380.6895,1162.7266" style="stroke:#181818;stroke-width:0.5;stroke-linejoin:miter;stroke-miterlimit:10;"/><text fill="#000000" font-family="sans-serif" font-size="11" lengthAdjust="spacing" textLength="37.834" x="435.1724" y="1196.937">history</text><text fill="#000000" font-family="sans-serif" font-size="13" lengthAdjust="spacing" textLength="100.9658" x="380.6895" y="1179.2271">review the past</text><rect fill="#F1F1F1" height="33.9688" rx="12.5" ry="12.5" style="stroke:#181818;stroke-width:0.5;" width="278.1934" x="292.0757" y="1218.437"/><text fill="#000000" font-family="sans-serif" font-size="12" font-weight="700" lengthAdjust="spacing" textLength="258.1934" x="302.0757" y="1239.5757">GET /api/v1/conspectuses/{id}/history</text><polygon fill="#F1F1F1" points="691.4902,1162.7266,739.4912,1162.7266,751.4912,1174.7266,739.4912,1186.7266,691.4902,1186.7266,679.4902,1174.7266,691.4902,1162.7266" style="stroke:#181818;stroke-width:0.5;stroke-linejoin:miter;stroke-miterlimit:10;"/><text fill="#000000" font-family="sans-serif" font-size="11" lengthAdjust="spacing" textLength="40.6162" x="719.4907" y="1196.937">archive</text><text fill="#000000" font-family="sans-serif" font-size="13" lengthAdjust="spacing" textLength="48.001" x="691.4902" y="1179.2271">archive</text><text fill="#000000" font-family="sans-serif" font-size="11" lengthAdjust="spacing" textLength="80.8457" x="751.4912" y="1172.1323">done for today</text><rect fill="#F1F1F1" height="61.9063" rx="12.5" ry="12.5" style="stroke:#181818;stroke-width:0.5;" width="250.4434" x="590.269" y="1218.437"/><text fill="#000000" font-family="sans-serif" font-size="12" font-weight="700" lengthAdjust="spacing" textLength="230.4434" x="600.269" y="1239.5757">DELETE /api/v1/conspectuses/{id}</text><text fill="#000000" font-family="sans-serif" font-size="12" lengthAdjust="spacing" textLength="133.4824" x="600.269" y="1253.5444">related mistakes stay,</text><text fill="#000000" font-family="sans-serif" font-size="12" lengthAdjust="spacing" textLength="114.8145" x="600.269" y="1267.5132">their link is cleared</text><ellipse cx="457.8562" cy="1331.3433" fill="none" rx="11" ry="11" style="stroke:#222222;stroke-width:1;"/><ellipse cx="457.8562" cy="1331.3433" fill="#222222" rx="6" ry="6" style="stroke:#222222;stroke-width:1;"/><line style="stroke:#181818;stroke-width:1;" x1="457.8562" x2="457.8562" y1="174.668" y2="205.1836"/><polygon fill="#181818" points="453.8562,195.1836,457.8562,205.1836,461.8562,195.1836,457.8562,199.1836" style="stroke:#181818;stroke-width:1;stroke-linejoin:miter;stroke-miterlimit:10;"/><line style="stroke:#181818;stroke-width:1;" x1="457.8562" x2="457.8562" y1="116.2969" y2="140.6992"/><polygon fill="#181818" points="453.8562,130.6992,457.8562,140.6992,461.8562,130.6992,457.8562,134.6992" style="stroke:#181818;stroke-width:1;stroke-linejoin:miter;stroke-miterlimit:10;"/><line style="stroke:#181818;stroke-width:1;" x1="606.8926" x2="634.8289" y1="104.2969" y2="104.2969"/><polygon fill="#181818" points="630.8289,184.668,634.8289,194.668,638.8289,184.668,634.8289,188.668" style="stroke:#181818;stroke-width:1;stroke-linejoin:miter;stroke-miterlimit:10;"/><line style="stroke:#181818;stroke-width:1;" x1="634.8289" x2="634.8289" y1="104.2969" y2="285.1211"/><line style="stroke:#181818;stroke-width:1;" x1="634.8289" x2="469.8562" y1="285.1211" y2="285.1211"/><polygon fill="#181818" points="479.8562,281.1211,469.8562,285.1211,479.8562,289.1211,475.8562,285.1211" style="stroke:#181818;stroke-width:1;stroke-linejoin:miter;stroke-miterlimit:10;"/><line style="stroke:#181818;stroke-width:1;" x1="457.8562" x2="457.8562" y1="253.1211" y2="273.1211"/><polygon fill="#181818" points="453.8562,263.1211,457.8562,273.1211,461.8562,263.1211,457.8562,267.1211" style="stroke:#181818;stroke-width:1;stroke-linejoin:miter;stroke-miterlimit:10;"/><line style="stroke:#181818;stroke-width:1;" x1="457.8562" x2="457.8562" y1="72.2969" y2="92.2969"/><polygon fill="#181818" points="453.8562,82.2969,457.8562,92.2969,461.8562,82.2969,457.8562,86.2969" style="stroke:#181818;stroke-width:1;stroke-linejoin:miter;stroke-miterlimit:10;"/><line style="stroke:#181818;stroke-width:1;" x1="457.8562" x2="457.8562" y1="297.1211" y2="317.1211"/><polygon fill="#181818" points="453.8562,307.1211,457.8562,317.1211,461.8562,307.1211,457.8562,311.1211" style="stroke:#181818;stroke-width:1;stroke-linejoin:miter;stroke-miterlimit:10;"/><line style="stroke:#181818;stroke-width:1;" x1="457.8562" x2="457.8562" y1="351.0898" y2="371.0898"/><polygon fill="#181818" points="453.8562,361.0898,457.8562,371.0898,461.8562,361.0898,457.8562,365.0898" style="stroke:#181818;stroke-width:1;stroke-linejoin:miter;stroke-miterlimit:10;"/><line style="stroke:#181818;stroke-width:1;" x1="348.6704" x2="337.6521" y1="451.0273" y2="451.0273"/><line style="stroke:#181818;stroke-width:1;" x1="337.6521" x2="337.6521" y1="451.0273" y2="473.0273"/><polygon fill="#181818" points="333.6521,463.0273,337.6521,473.0273,341.6521,463.0273,337.6521,467.0273" style="stroke:#181818;stroke-width:1;stroke-linejoin:miter;stroke-miterlimit:10;"/><line style="stroke:#181818;stroke-width:1;" x1="567.042" x2="578.0603" y1="451.0273" y2="451.0273"/><line style="stroke:#181818;stroke-width:1;" x1="578.0603" x2="578.0603" y1="451.0273" y2="473.0273"/><polygon fill="#181818" points="574.0603,463.0273,578.0603,473.0273,582.0603,463.0273,578.0603,467.0273" style="stroke:#181818;stroke-width:1;stroke-linejoin:miter;stroke-miterlimit:10;"/><line style="stroke:#181818;stroke-width:1;" x1="337.6521" x2="337.6521" y1="520.9648" y2="538.9648"/><line style="stroke:#181818;stroke-width:1;" x1="337.6521" x2="445.8562" y1="538.9648" y2="538.9648"/><polygon fill="#181818" points="435.8562,534.9648,445.8562,538.9648,435.8562,542.9648,439.8562,538.9648" style="stroke:#181818;stroke-width:1;stroke-linejoin:miter;stroke-miterlimit:10;"/><line style="stroke:#181818;stroke-width:1;" x1="578.0603" x2="578.0603" y1="506.9961" y2="538.9648"/><line style="stroke:#181818;stroke-width:1;" x1="578.0603" x2="469.8562" y1="538.9648" y2="538.9648"/><polygon fill="#181818" points="479.8562,534.9648,469.8562,538.9648,479.8562,542.9648,475.8562,538.9648" style="stroke:#181818;stroke-width:1;stroke-linejoin:miter;stroke-miterlimit:10;"/><line style="stroke:#181818;stroke-width:1;" x1="457.8562" x2="457.8562" y1="419.0273" y2="439.0273"/><polygon fill="#181818" points="453.8562,429.0273,457.8562,439.0273,461.8562,429.0273,457.8562,433.0273" style="stroke:#181818;stroke-width:1;stroke-linejoin:miter;stroke-miterlimit:10;"/><line style="stroke:#181818;stroke-width:1;" x1="457.8562" x2="457.8562" y1="648.9336" y2="668.9336"/><polygon fill="#181818" points="453.8562,658.9336,457.8562,668.9336,461.8562,658.9336,457.8562,662.9336" style="stroke:#181818;stroke-width:1;stroke-linejoin:miter;stroke-miterlimit:10;"/><line style="stroke:#181818;stroke-width:1;" x1="457.8562" x2="457.8562" y1="716.8711" y2="736.8711"/><polygon fill="#181818" points="453.8562,726.8711,457.8562,736.8711,461.8562,726.8711,457.8562,730.8711" style="stroke:#181818;stroke-width:1;stroke-linejoin:miter;stroke-miterlimit:10;"/><line style="stroke:#181818;stroke-width:1;" x1="195.824" x2="195.824" y1="814.8398" y2="847.6445"/><polygon fill="#181818" points="191.824,837.6445,195.824,847.6445,199.824,837.6445,195.824,841.6445" style="stroke:#181818;stroke-width:1;stroke-linejoin:miter;stroke-miterlimit:10;"/><line style="stroke:#181818;stroke-width:1;" x1="195.824" x2="195.824" y1="895.582" y2="915.582"/><polygon fill="#181818" points="191.824,905.582,195.824,915.582,199.824,905.582,195.824,909.582" style="stroke:#181818;stroke-width:1;stroke-linejoin:miter;stroke-miterlimit:10;"/><line style="stroke:#181818;stroke-width:1;" x1="453.8191" x2="453.8191" y1="814.8398" y2="847.6445"/><polygon fill="#181818" points="449.8191,837.6445,453.8191,847.6445,457.8191,837.6445,453.8191,841.6445" style="stroke:#181818;stroke-width:1;stroke-linejoin:miter;stroke-miterlimit:10;"/><line style="stroke:#181818;stroke-width:1;" x1="453.8191" x2="453.8191" y1="895.582" y2="915.582"/><polygon fill="#181818" points="449.8191,905.582,453.8191,915.582,457.8191,905.582,453.8191,909.582" style="stroke:#181818;stroke-width:1;stroke-linejoin:miter;stroke-miterlimit:10;"/><line style="stroke:#181818;stroke-width:1;" x1="310.5291" x2="363.8667" y1="802.8398" y2="802.8398"/><polygon fill="#181818" points="353.8667,798.8398,363.8667,802.8398,353.8667,806.8398,357.8667,802.8398" style="stroke:#181818;stroke-width:1;stroke-linejoin:miter;stroke-miterlimit:10;"/><line style="stroke:#181818;stroke-width:1;" x1="457.8562" x2="457.8562" y1="770.8398" y2="775.8398"/><line style="stroke:#181818;stroke-width:1;" x1="457.8562" x2="195.824" y1="775.8398" y2="775.8398"/><line style="stroke:#181818;stroke-width:1;" x1="195.824" x2="195.824" y1="775.8398" y2="790.8398"/><polygon fill="#181818" points="191.824,780.8398,195.824,790.8398,199.824,780.8398,195.824,784.8398" style="stroke:#181818;stroke-width:1;stroke-linejoin:miter;stroke-miterlimit:10;"/><line style="stroke:#181818;stroke-width:1;" x1="543.7715" x2="715.8513" y1="802.8398" y2="802.8398"/><line style="stroke:#181818;stroke-width:1;" x1="715.8513" x2="715.8513" y1="802.8398" y2="844.2422"/><polygon fill="#181818" points="711.8513,834.2422,715.8513,844.2422,719.8513,834.2422,715.8513,838.2422" style="stroke:#181818;stroke-width:1;stroke-linejoin:miter;stroke-miterlimit:10;"/><line style="stroke:#181818;stroke-width:1;" x1="715.8513" x2="715.8513" y1="892.1797" y2="915.582"/><polygon fill="#181818" points="711.8513,905.582,715.8513,915.582,719.8513,905.582,715.8513,909.582" style="stroke:#181818;stroke-width:1;stroke-linejoin:miter;stroke-miterlimit:10;"/><line style="stroke:#181818;stroke-width:1;" x1="195.824" x2="715.8513" y1="915.582" y2="915.582"/><line style="stroke:#181818;stroke-width:1;" x1="457.8562" x2="457.8562" y1="959.582" y2="983.9844"/><polygon fill="#181818" points="453.8562,973.9844,457.8562,983.9844,461.8562,973.9844,457.8562,977.9844" style="stroke:#181818;stroke-width:1;stroke-linejoin:miter;stroke-miterlimit:10;"/><line style="stroke:#181818;stroke-width:1;" x1="620.6226" x2="632.6226" y1="947.582" y2="947.582"/><polygon fill="#181818" points="628.6226,997.9531,632.6226,1007.9531,636.6226,997.9531,632.6226,1001.9531" style="stroke:#181818;stroke-width:1;stroke-linejoin:miter;stroke-miterlimit:10;"/><line style="stroke:#181818;stroke-width:1;" x1="632.6226" x2="632.6226" y1="947.582" y2="1063.9219"/><line style="stroke:#181818;stroke-width:1;" x1="632.6226" x2="469.8562" y1="1063.9219" y2="1063.9219"/><polygon fill="#181818" points="479.8562,1059.9219,469.8562,1063.9219,479.8562,1067.9219,475.8562,1063.9219" style="stroke:#181818;stroke-width:1;stroke-linejoin:miter;stroke-miterlimit:10;"/><line style="stroke:#181818;stroke-width:1;" x1="457.8562" x2="457.8562" y1="1031.9219" y2="1051.9219"/><polygon fill="#181818" points="453.8562,1041.9219,457.8562,1051.9219,461.8562,1041.9219,457.8562,1045.9219" style="stroke:#181818;stroke-width:1;stroke-linejoin:miter;stroke-miterlimit:10;"/><line style="stroke:#181818;stroke-width:1;" x1="457.8562" x2="457.8562" y1="915.582" y2="935.582"/><polygon fill="#181818" points="453.8562,925.582,457.8562,935.582,461.8562,925.582,457.8562,929.582" style="stroke:#181818;stroke-width:1;stroke-linejoin:miter;stroke-miterlimit:10;"/><line style="stroke:#181818;stroke-width:1;" x1="457.8562" x2="457.8562" y1="594.9648" y2="614.9648"/><polygon fill="#181818" points="453.8562,604.9648,457.8562,614.9648,461.8562,604.9648,457.8562,608.9648" style="stroke:#181818;stroke-width:1;stroke-linejoin:miter;stroke-miterlimit:10;"/><line style="stroke:#181818;stroke-width:1;" x1="550.5127" x2="851.031" y1="1107.9219" y2="1107.9219"/><polygon fill="#181818" points="847.031,857.6445,851.031,847.6445,855.031,857.6445,851.031,853.6445" style="stroke:#181818;stroke-width:1;stroke-linejoin:miter;stroke-miterlimit:10;"/><line style="stroke:#181818;stroke-width:1;" x1="851.031" x2="851.031" y1="582.9648" y2="1107.9219"/><line style="stroke:#181818;stroke-width:1;" x1="851.031" x2="469.8562" y1="582.9648" y2="582.9648"/><polygon fill="#181818" points="479.8562,578.9648,469.8562,582.9648,479.8562,586.9648,475.8562,582.9648" style="stroke:#181818;stroke-width:1;stroke-linejoin:miter;stroke-miterlimit:10;"/><line style="stroke:#181818;stroke-width:1;" x1="457.8562" x2="457.8562" y1="1075.9219" y2="1095.9219"/><polygon fill="#181818" points="453.8562,1085.9219,457.8562,1095.9219,461.8562,1085.9219,457.8562,1089.9219" style="stroke:#181818;stroke-width:1;stroke-linejoin:miter;stroke-miterlimit:10;"/><line style="stroke:#181818;stroke-width:1;" x1="457.8562" x2="457.8562" y1="550.9648" y2="570.9648"/><polygon fill="#181818" points="453.8562,560.9648,457.8562,570.9648,461.8562,560.9648,457.8562,564.9648" style="stroke:#181818;stroke-width:1;stroke-linejoin:miter;stroke-miterlimit:10;"/><line style="stroke:#181818;stroke-width:1;" x1="148.5378" x2="148.5378" y1="1186.7266" y2="1218.437"/><polygon fill="#181818" points="144.5378,1208.437,148.5378,1218.437,152.5378,1208.437,148.5378,1212.437" style="stroke:#181818;stroke-width:1;stroke-linejoin:miter;stroke-miterlimit:10;"/><line style="stroke:#181818;stroke-width:1;" x1="148.5378" x2="148.5378" y1="1266.3745" y2="1300.3433"/><polygon fill="#181818" points="144.5378,1290.3433,148.5378,1300.3433,152.5378,1290.3433,148.5378,1294.3433" style="stroke:#181818;stroke-width:1;stroke-linejoin:miter;stroke-miterlimit:10;"/><line style="stroke:#181818;stroke-width:1;" x1="431.1724" x2="431.1724" y1="1186.7266" y2="1218.437"/><polygon fill="#181818" points="427.1724,1208.437,431.1724,1218.437,435.1724,1208.437,431.1724,1212.437" style="stroke:#181818;stroke-width:1;stroke-linejoin:miter;stroke-miterlimit:10;"/><line style="stroke:#181818;stroke-width:1;" x1="431.1724" x2="431.1724" y1="1252.4058" y2="1300.3433"/><polygon fill="#181818" points="427.1724,1290.3433,431.1724,1300.3433,435.1724,1290.3433,431.1724,1294.3433" style="stroke:#181818;stroke-width:1;stroke-linejoin:miter;stroke-miterlimit:10;"/><line style="stroke:#181818;stroke-width:1;" x1="715.4907" x2="715.4907" y1="1186.7266" y2="1218.437"/><polygon fill="#181818" points="711.4907,1208.437,715.4907,1218.437,719.4907,1208.437,715.4907,1212.437" style="stroke:#181818;stroke-width:1;stroke-linejoin:miter;stroke-miterlimit:10;"/><line style="stroke:#181818;stroke-width:1;" x1="715.4907" x2="715.4907" y1="1280.3433" y2="1300.3433"/><polygon fill="#181818" points="711.4907,1290.3433,715.4907,1300.3433,719.4907,1290.3433,715.4907,1294.3433" style="stroke:#181818;stroke-width:1;stroke-linejoin:miter;stroke-miterlimit:10;"/><line style="stroke:#181818;stroke-width:1;" x1="272.0757" x2="368.6895" y1="1174.7266" y2="1174.7266"/><polygon fill="#181818" points="358.6895,1170.7266,368.6895,1174.7266,358.6895,1178.7266,362.6895,1174.7266" style="stroke:#181818;stroke-width:1;stroke-linejoin:miter;stroke-miterlimit:10;"/><line style="stroke:#181818;stroke-width:1;" x1="493.6553" x2="679.4902" y1="1174.7266" y2="1174.7266"/><polygon fill="#181818" points="669.4902,1170.7266,679.4902,1174.7266,669.4902,1178.7266,673.4902,1174.7266" style="stroke:#181818;stroke-width:1;stroke-linejoin:miter;stroke-miterlimit:10;"/><line style="stroke:#181818;stroke-width:1;" x1="457.8562" x2="148.5378" y1="1147.7266" y2="1147.7266"/><line style="stroke:#181818;stroke-width:1;" x1="148.5378" x2="148.5378" y1="1147.7266" y2="1162.7266"/><polygon fill="#181818" points="144.5378,1152.7266,148.5378,1162.7266,152.5378,1152.7266,148.5378,1156.7266" style="stroke:#181818;stroke-width:1;stroke-linejoin:miter;stroke-miterlimit:10;"/><line style="stroke:#181818;stroke-width:1;" x1="751.4912" x2="869.031" y1="1174.7266" y2="1174.7266"/><line style="stroke:#181818;stroke-width:1;" x1="869.031" x2="869.031" y1="1174.7266" y2="1300.3433"/><polygon fill="#181818" points="865.031,1290.3433,869.031,1300.3433,873.031,1290.3433,869.031,1294.3433" style="stroke:#181818;stroke-width:1;stroke-linejoin:miter;stroke-miterlimit:10;"/><line style="stroke:#181818;stroke-width:1;" x1="148.5378" x2="869.031" y1="1300.3433" y2="1300.3433"/><line style="stroke:#181818;stroke-width:1;" x1="457.8562" x2="457.8562" y1="1119.9219" y2="1147.7266"/><text fill="#000000" font-family="sans-serif" font-size="11" lengthAdjust="spacing" textLength="13.7017" x="461.8562" y="1141.2266">no</text><line style="stroke:#181818;stroke-width:1;" x1="457.8562" x2="457.8562" y1="1300.3433" y2="1320.3433"/><polygon fill="#181818" points="453.8562,1310.3433,457.8562,1320.3433,461.8562,1310.3433,457.8562,1314.3433" style="stroke:#181818;stroke-width:1;stroke-linejoin:miter;stroke-miterlimit:10;"/><?plantuml-src ZLJRRjD047ttLymRIQ2rAjuQ0Ofee4YbL3GIBtdPUCVnAElTPIy91e7u2BwGBs7M6oTSAjgdEFRCsJFddDb0GI7C5-_XDaJPmUpc3Vpy_WEkK3YD3YHMvCbeg9NPmKXeeJeVO4ku6nU5tv2smeaMPbMWBONkWaHhj7nbTBYbpmXdJxag21UAWceONHZq41e4jSTln1P1WCOTQ1CGWW4XvOjnAj8mwj2F2u3p3uxInvxiOwWYWcyG0pzBr1uXaLWxOHj-iufAOV3Jr3UPtBoxNK0fB9NRix8osbkiGlJe9vEbhidnC0xJEE2h1cLKAE7RMGDA17JJ0hMakYZEtrccauWBQwS5uxwU7s67pjB7jXMkIz0ZPOI4bP1hXDgulbUARZpDGboocZphAfAI_A1ftOH77Zv6Z7YOlegEMKZ0BMhIQqOBLJFESzrvlisZfFCbCl-MDFb05QiLwreXpwDOhL7D4e5a5HL_lWFmTvrAhfjC3aeuj2X2Qba82qOZLCB9wJqONqX-JQmS2fa3aDpkknQkIqeuh0IJgfrfeSNMk8wL0XYqsc5YJFAFyEIUWrmeV9U6EVf-UdfQ2aucKoa7QI28zRDKkjGQFntSjv4J9Q6EZi4Sc1WIkoHNek2GEQtGSSMEGWDOiwTXEBXX1HvuS2fTQX_GiflLfXVGAtCuZBqnRct20-5oyLBtMAnYWe9P3vRjoWfU6mu1SnUGBA6Q4z6oysA3MVeyNCxytxltxnQXSyRr-sDiuiGUT9malS4KPUucVmX5dacRyP5IJX3i6k9b7hqrBaV80-KDwrFEB1WbSpXvhir-RQundn6jPAx0UoLSrL2-GpXHnon86e9zCrkylFn_BFbbG1rEZEP9CdPUbUnz7v14pGf_D9q5v9IE7v3ySb_Rhz4UTSzxG1l-PhIB-TLyCRzlbLH_EUoDzC0_tPEbPZnolHr9mIhj2ifXyMNAMtyTcNGP3KlDx6pn2m00?></g></svg>
