<svg xmlns="http://www.w3.org/2000/svg" xmlns:xlink="http://www.w3.org/1999/xlink" contentStyleType="text/css" data-diagram-type="DESCRIPTION" height="1108px" preserveAspectRatio="none" style="width:586px;height:1108px;background:#FFFFFF;" version="1.1" viewBox="0 0 586 1108" width="586px" zoomAndPan="magnify"><?plantuml 1.2026.6?><defs/><g><g class="title" data-source-line="1"><text fill="#000000" font-family="sans-serif" font-size="14" font-weight="700" lengthAdjust="spacing" textLength="464.4883" x="57.676" y="22.9951">Study App &#183; Telegram Mini App &#8212; C4 Level 3 (components)</text></g><!--entity User--><g class="entity" data-qualified-name="User" data-source-line="13" id="ent0001"><ellipse cx="159.0638" cy="51.2969" fill="#F1F1F1" rx="8" ry="8" style="stroke:#181818;stroke-width:0.5;"/><path d="M159.0638,59.2969 L159.0638,86.2969 M146.0638,67.2969 L172.0638,67.2969 M159.0638,86.2969 L146.0638,101.2969 M159.0638,86.2969 L172.0638,101.2969" fill="none" style="stroke:#181818;stroke-width:0.5;"/><text fill="#000000" font-family="sans-serif" font-size="14" lengthAdjust="spacing" textLength="31.9102" x="97.39" y="115.792">User</text><text fill="#000000" font-family="sans-serif" font-size="14" lengthAdjust="spacing" textLength="123.3477" x="97.39" y="132.0889">(inside Telegram)</text></g><!--entity WebView--><g class="entity" data-qualified-name="WebView" data-source-line="14" id="ent0002"><path d="M170.3183,199.1094 C174.3193,193.0183 178.2249,193.0115 183.2103,197.9598 C186.7757,192.3671 190.4334,191.9441 195.2054,196.539 C198.9632,189.8402 203.9788,191.2668 207.5171,196.7607 C211.8753,190.8089 216.4634,189.4639 221.0838,196.4866 C225.143,191.333 229.2168,189.7606 233.3009,196.4611 C235.4785,189.7981 241.3321,188.4016 245.5322,194.5266 C249.4192,189.2323 254.2628,189.2939 257.7919,194.928 C262.9748,189.2553 267.4576,189.3126 270.7896,196.7614 C274.2825,190.593 277.9262,191.8358 281.9541,196.1939 C286.0975,189.621 292.4143,190.3454 295.8446,196.9458 C300.0234,190.7997 304.6728,190.8046 308.2586,197.5182 C311.7871,192.5221 316.3063,192.1225 319.2231,198.1278 C328.1742,198.4521 332.4805,204.833 326.54,212.6568 C333.1184,221.6578 329.644,226.7962 319.9399,229.3654 C316.2797,235.4403 310.1929,234.9393 306.7024,229.1757 C302.8533,235.6694 297.1791,234.4948 294.2048,228.3131 C291.938,234.2251 286.933,234.4435 283.0482,230.0677 C278.8181,236.9729 274.273,236.3406 269.363,230.8163 C266.4253,235.4664 261.6756,235.6725 258.535,231.0533 C254.4365,236.1754 249.7911,236.6948 245.7267,231.0129 C241.2604,236.6317 235.4348,236.4465 232.1924,229.6759 C229.3037,234.9404 224.4416,235.2971 221.2375,230.0031 C217.4345,236.9026 212.9259,235.8685 208.4702,230.6933 C203.5247,235.901 198.0881,236.0729 194.3846,229.2403 C190.6326,234.5112 186.6587,233.468 183.5947,228.5142 C179.3345,235.1609 175.0073,234.3662 170.7497,228.5115 C160.7566,229.1863 155.4409,223.7399 159.9007,213.7747 C155.0435,203.6829 160.9138,199.0704 170.3183,199.1094" fill="#F1F1F1" style="stroke:#181818;stroke-width:0.5;"/><text fill="#000000" font-family="sans-serif" font-size="14" lengthAdjust="spacing" textLength="135.8506" x="176.13" y="217.392">Telegram WebView</text></g><!--entity Pages--><g class="entity" data-qualified-name="Pages" data-source-line="15" id="ent0003"><path d="M264.9579,66.0444 C268.2856,60.7224 272.8841,61.097 275.7455,66.5129 C278.3642,61.4197 281.7941,61.4149 285.1609,65.7672 C289.7661,60.2027 293.8906,59.7985 297.5001,66.7489 C300.1099,62.0489 304.5254,61.1143 307.7201,66.1338 C310.2239,60.2205 314.539,60.698 318.0954,65.0722 C321.3732,59.6892 326.0517,60.6646 329.2197,65.1955 C333.2812,59.9439 337.9528,59.8456 341.1116,66.1263 C344.4471,61.3053 348.5239,61.4742 351.4757,66.5289 C355.007,60.7984 358.8921,61.8913 362.1593,66.7943 C364.6997,60.1639 369.8209,59.3158 373.9525,65.3076 C377.9971,60.8576 381.3743,60.0792 384.5698,66.1633 C388.8327,61.2312 393.1967,61.6914 396.4553,67.2961 C402.6177,69.9007 403.6124,73.9098 399.7767,79.2844 C406.8661,79.9384 408.2463,84.5581 404.4987,89.9915 C409.3379,96.5328 407.6013,100.2489 399.8765,101.923 C404.2048,107.4369 402.5344,111.1415 396.2245,113.2148 C393.842,119.9685 390.1905,120.7758 385.243,115.57 C382.8682,121.3295 378.2116,121.626 374.5321,116.9032 C371.183,122.6262 366.716,123.5043 362.0894,118.3668 C359.6077,122.4627 355.169,123.0641 352.293,118.8306 C349.0629,125.389 345.5672,125.2956 340.9527,120.1749 C338.792,124.5075 334.1463,125.9394 331.2041,120.9962 C327.1752,126.5653 321.4402,124.7702 319.1225,119.1487 C314.9039,123.9217 310.4802,122.8545 307.6826,117.5376 C303.7269,123.006 299.5414,121.9213 296.8551,116.2983 C292.9866,122.1621 288.6461,120.8536 285.2486,115.7977 C281.0786,120.7436 277.0756,119.3799 274.8479,113.8664 C271.5129,118.3593 266.9012,119.8479 263.6091,113.8204 C255.6351,111.6597 255.4466,106.9124 259.2796,100.8197 C252.8149,100.1287 249.8253,96.2129 254.0512,90.2392 C250.6464,84.9737 253.3902,80.0079 259.3063,79.166 C254.5921,72.9755 257.4337,66.9637 264.9579,66.0444" fill="#F1F1F1" style="stroke:#181818;stroke-width:0.5;"/><text fill="#000000" font-family="sans-serif" font-size="14" lengthAdjust="spacing" textLength="118.0225" x="270.05" y="85.792">Cloudflare Pages</text><text fill="#000000" font-family="sans-serif" font-size="14" lengthAdjust="spacing" textLength="84.8408" x="270.05" y="102.0889">(static CDN)</text></g><!--entity Main--><g class="entity" data-qualified-name="Main" data-source-line="17" id="ent0004"><rect fill="#F1F1F1" height="62.5938" rx="2.5" ry="2.5" style="stroke:#181818;stroke-width:0.5;" width="140.8096" x="173.65" y="289.6869"/><rect fill="#F1F1F1" height="10" style="stroke:#181818;stroke-width:0.5;" width="15" x="294.4596" y="294.6869"/><rect fill="#F1F1F1" height="2" style="stroke:#181818;stroke-width:0.5;" width="4" x="292.4596" y="296.6869"/><rect fill="#F1F1F1" height="2" style="stroke:#181818;stroke-width:0.5;" width="4" x="292.4596" y="300.6869"/><text fill="#000000" font-family="sans-serif" font-size="14" lengthAdjust="spacing" textLength="60.498" x="188.65" y="322.682">main.tsx</text><text fill="#000000" font-family="sans-serif" font-size="14" lengthAdjust="spacing" textLength="100.8096" x="188.65" y="338.9789">SDK bootstrap</text></g><!--entity AppPkg--><g class="entity" data-qualified-name="AppPkg" data-source-line="18" id="ent0005"><rect fill="#F1F1F1" height="62.5938" rx="2.5" ry="2.5" style="stroke:#181818;stroke-width:0.5;" width="208.2461" x="139.94" y="406.2869"/><rect fill="#F1F1F1" height="10" style="stroke:#181818;stroke-width:0.5;" width="15" x="328.1861" y="411.2869"/><rect fill="#F1F1F1" height="2" style="stroke:#181818;stroke-width:0.5;" width="4" x="326.1861" y="413.2869"/><rect fill="#F1F1F1" height="2" style="stroke:#181818;stroke-width:0.5;" width="4" x="326.1861" y="417.2869"/><text fill="#000000" font-family="sans-serif" font-size="14" lengthAdjust="spacing" textLength="31.0693" x="154.94" y="439.282">app/</text><text fill="#000000" font-family="sans-serif" font-size="14" lengthAdjust="spacing" textLength="168.2461" x="154.94" y="455.5789">router &#183; providers &#183; shell</text></g><!--entity Screens--><g class="entity" data-qualified-name="Screens" data-source-line="19" id="ent0006"><rect fill="#F1F1F1" height="78.8906" rx="2.5" ry="2.5" style="stroke:#181818;stroke-width:0.5;" width="249.8633" x="119.13" y="522.8769"/><rect fill="#F1F1F1" height="10" style="stroke:#181818;stroke-width:0.5;" width="15" x="348.9933" y="527.8769"/><rect fill="#F1F1F1" height="2" style="stroke:#181818;stroke-width:0.5;" width="4" x="346.9933" y="529.8769"/><rect fill="#F1F1F1" height="2" style="stroke:#181818;stroke-width:0.5;" width="4" x="346.9933" y="533.8769"/><text fill="#000000" font-family="sans-serif" font-size="14" lengthAdjust="spacing" textLength="58.8574" x="134.13" y="555.872">screens/</text><text fill="#000000" font-family="sans-serif" font-size="14" lengthAdjust="spacing" textLength="67.498" x="134.13" y="572.1689">9 screens</text><text fill="#000000" font-family="sans-serif" font-size="14" lengthAdjust="spacing" textLength="209.8633" x="134.13" y="588.4657">Today &#183; Focus &#183; Conspectus &#8230;</text></g><!--entity SharedUi--><g class="entity" data-qualified-name="SharedUi" data-source-line="20" id="ent0007"><rect fill="#F1F1F1" height="62.5938" rx="2.5" ry="2.5" style="stroke:#181818;stroke-width:0.5;" width="228.1182" x="7" y="672.0669"/><rect fill="#F1F1F1" height="10" style="stroke:#181818;stroke-width:0.5;" width="15" x="215.1182" y="677.0669"/><rect fill="#F1F1F1" height="2" style="stroke:#181818;stroke-width:0.5;" width="4" x="213.1182" y="679.0669"/><rect fill="#F1F1F1" height="2" style="stroke:#181818;stroke-width:0.5;" width="4" x="213.1182" y="683.0669"/><text fill="#000000" font-family="sans-serif" font-size="14" lengthAdjust="spacing" textLength="188.1182" x="22" y="705.062">shared/ui &#183; theme &#183; haptics</text><text fill="#000000" font-family="sans-serif" font-size="14" lengthAdjust="spacing" textLength="186.6211" x="22" y="721.3589">wrappers over telegram-ui</text></g><!--entity SharedApi--><g class="entity" data-qualified-name="SharedApi" data-source-line="21" id="ent0008"><rect fill="#F1F1F1" height="95.1875" rx="2.5" ry="2.5" style="stroke:#181818;stroke-width:0.5;" width="196.8574" x="268.63" y="655.7669"/><rect fill="#F1F1F1" height="10" style="stroke:#181818;stroke-width:0.5;" width="15" x="445.4874" y="660.7669"/><rect fill="#F1F1F1" height="2" style="stroke:#181818;stroke-width:0.5;" width="4" x="443.4874" y="662.7669"/><rect fill="#F1F1F1" height="2" style="stroke:#181818;stroke-width:0.5;" width="4" x="443.4874" y="666.7669"/><text fill="#000000" font-family="sans-serif" font-size="14" lengthAdjust="spacing" textLength="78.791" x="283.63" y="688.762">shared/api/</text><text fill="#000000" font-family="sans-serif" font-size="14" lengthAdjust="spacing" textLength="102.4434" x="283.63" y="705.0589">OpenAPI client</text><text fill="#000000" font-family="sans-serif" font-size="14" lengthAdjust="spacing" textLength="114.666" x="283.63" y="721.3557">+ JWT bootstrap</text><text fill="#000000" font-family="sans-serif" font-size="14" lengthAdjust="spacing" textLength="156.8574" x="283.63" y="737.6526">+ CloudStorage cache</text></g><!--entity AuthEndpoint--><g class="entity" data-qualified-name="AuthEndpoint" data-source-line="23" id="ent0009"><rect fill="#F1F1F1" height="95.1875" rx="2.5" ry="2.5" style="stroke:#181818;stroke-width:0.5;" width="272.2988" x="104.91" y="804.9569"/><rect fill="#F1F1F1" height="10" style="stroke:#181818;stroke-width:0.5;" width="15" x="357.2088" y="809.9569"/><rect fill="#F1F1F1" height="2" style="stroke:#181818;stroke-width:0.5;" width="4" x="355.2088" y="811.9569"/><rect fill="#F1F1F1" height="2" style="stroke:#181818;stroke-width:0.5;" width="4" x="355.2088" y="815.9569"/><text fill="#000000" font-family="sans-serif" font-size="14" lengthAdjust="spacing" textLength="194.0449" x="119.91" y="837.952">POST /api/v1/auth/telegram</text><text fill="#000000" font-family="sans-serif" font-size="14" lengthAdjust="spacing" textLength="146.7881" x="119.91" y="854.2489">HMAC-verify initData</text><text fill="#000000" font-family="sans-serif" font-size="14" lengthAdjust="spacing" textLength="232.2988" x="119.91" y="870.5457">&#8594; upsert users + telegram_users</text><text fill="#000000" font-family="sans-serif" font-size="14" lengthAdjust="spacing" textLength="114.6318" x="119.91" y="886.8426">&#8594; mint 24 h JWT</text></g><!--entity ApiRoutes--><g class="entity" data-qualified-name="ApiRoutes" data-source-line="24" id="ent0010"><rect fill="#F1F1F1" height="78.8906" rx="2.5" ry="2.5" style="stroke:#181818;stroke-width:0.5;" width="161.5703" x="411.27" y="813.1069"/><rect fill="#F1F1F1" height="10" style="stroke:#181818;stroke-width:0.5;" width="15" x="552.8403" y="818.1069"/><rect fill="#F1F1F1" height="2" style="stroke:#181818;stroke-width:0.5;" width="4" x="550.8403" y="820.1069"/><rect fill="#F1F1F1" height="2" style="stroke:#181818;stroke-width:0.5;" width="4" x="550.8403" y="824.1069"/><text fill="#000000" font-family="sans-serif" font-size="14" lengthAdjust="spacing" textLength="59.6982" x="426.27" y="846.102">/api/v1/*</text><text fill="#000000" font-family="sans-serif" font-size="14" lengthAdjust="spacing" textLength="113.1758" x="426.27" y="862.3989">JWT middleware</text><text fill="#000000" font-family="sans-serif" font-size="14" lengthAdjust="spacing" textLength="121.5703" x="426.27" y="878.6957">(Bearer required)</text></g><!--entity Db--><g class="entity" data-qualified-name="Db" data-source-line="26" id="ent0011"><path d="M325.89,964.1469 C325.89,954.1469 366.0604,954.1469 366.0604,954.1469 C366.0604,954.1469 406.2308,954.1469 406.2308,964.1469 L406.2308,989.4438 C406.2308,999.4438 366.0604,999.4438 366.0604,999.4438 C366.0604,999.4438 325.89,999.4438 325.89,989.4438 L325.89,964.1469" fill="#F1F1F1" style="stroke:#181818;stroke-width:0.5;"/><path d="M325.89,964.1469 C325.89,974.1469 366.0604,974.1469 366.0604,974.1469 C366.0604,974.1469 406.2308,974.1469 406.2308,964.1469" fill="none" style="stroke:#181818;stroke-width:0.5;"/><text fill="#000000" font-family="sans-serif" font-size="14" lengthAdjust="spacing" textLength="60.3408" x="335.89" y="991.142">Postgres</text></g><g class="entity" data-qualified-name="GMN23" data-source-line="47" id="ent0024"><path d="M245.92,1053.4369 L245.92,1093.7025 A0,0 0 0 0 245.92,1093.7025 L486.2061,1093.7025 A0,0 0 0 0 486.2061,1093.7025 L486.2061,1063.4369 L476.2061,1053.4369 L370.06,1053.4369 L366.06,999.7269 L362.06,1053.4369 L245.92,1053.4369 A0,0 0 0 0 245.92,1053.4369" fill="#FEFFDD" style="stroke:#181818;stroke-width:0.5;"/><path d="M476.2061,1053.4369 L476.2061,1063.4369 L486.2061,1063.4369 L476.2061,1053.4369" fill="#FEFFDD" style="stroke:#181818;stroke-width:0.5;"/><text fill="#000000" font-family="sans-serif" font-size="13" lengthAdjust="spacing" textLength="154.8447" x="251.92" y="1070.5038">users + telegram_users</text><text fill="#000000" font-family="sans-serif" font-size="13" lengthAdjust="spacing" textLength="219.2861" x="251.92" y="1085.6366">identity anchor: telegram_user_id</text></g><!--link User to WebView--><g class="link" data-entity-1="ent0001" data-entity-2="ent0002" data-link-type="dependency" data-source-line="29" id="lnk12"><path d="M190.93,135.7669 C190.93,153.9269 190.93,168.9369 190.93,183.9769" fill="none" id="User-to-WebView" style="stroke:#181818;stroke-width:1;"/><polygon fill="#181818" points="190.93,188.9769,194.93,179.9769,190.93,183.9769,186.93,179.9769,190.93,188.9769" style="stroke:#181818;stroke-width:1;stroke-linejoin:miter;stroke-miterlimit:10;"/><text fill="#000000" font-family="sans-serif" font-size="13" lengthAdjust="spacing" textLength="43.4434" x="130.0147" y="175.4438">launch</text><text fill="#000000" font-family="sans-serif" font-size="13" lengthAdjust="spacing" textLength="77.6128" x="112.93" y="190.5766">or deep-link</text></g><!--link Pages to WebView--><g class="link" data-entity-1="ent0003" data-entity-2="ent0002" data-link-type="dependency" data-source-line="30" id="lnk13"><path d="M291.02,120.8869 C291.02,142.1769 291.02,164.7369 291.02,184.0469" fill="none" id="Pages-to-WebView" style="stroke:#181818;stroke-width:1;"/><polygon fill="#181818" points="291.02,189.0469,295.02,180.0469,291.02,184.0469,287.02,180.0469,291.02,189.0469" style="stroke:#181818;stroke-width:1;stroke-linejoin:miter;stroke-miterlimit:10;"/><text fill="#000000" font-family="sans-serif" font-size="13" lengthAdjust="spacing" textLength="105.6187" x="185.02" y="151.0338">bundle (cached)</text></g><!--link WebView to Main--><g class="link" data-entity-1="ent0002" data-entity-2="ent0004" data-link-type="dependency" data-source-line="31" id="lnk14"><path d="M244.06,236.0769 C244.06,251.6469 244.06,267.2569 244.06,284.2769" fill="none" id="WebView-to-Main" style="stroke:#181818;stroke-width:1;"/><polygon fill="#181818" points="244.06,289.2769,248.06,280.2769,244.06,284.2769,240.06,280.2769,244.06,289.2769" style="stroke:#181818;stroke-width:1;stroke-linejoin:miter;stroke-miterlimit:10;"/><text fill="#000000" font-family="sans-serif" font-size="13" lengthAdjust="spacing" textLength="72.7886" x="171.06" y="258.7438">evaluate JS</text></g><!--link Main to AppPkg--><g class="link" data-entity-1="ent0004" data-entity-2="ent0005" data-link-type="dependency" data-source-line="34" id="lnk15"><path d="M244.06,352.5369 C244.06,369.1269 244.06,384.4069 244.06,401.0069" fill="none" id="Main-to-AppPkg" style="stroke:#181818;stroke-width:1;"/><polygon fill="#181818" points="244.06,406.0069,248.06,397.0069,244.06,401.0069,240.06,397.0069,244.06,406.0069" style="stroke:#181818;stroke-width:1;stroke-linejoin:miter;stroke-miterlimit:10;"/></g><!--link AppPkg to Screens--><g class="link" data-entity-1="ent0005" data-entity-2="ent0006" data-link-type="dependency" data-source-line="35" id="lnk16"><path d="M244.06,469.0569 C244.06,485.3669 244.06,500.4569 244.06,517.7969" fill="none" id="AppPkg-to-Screens" style="stroke:#181818;stroke-width:1;"/><polygon fill="#181818" points="244.06,522.7969,248.06,513.7969,244.06,517.7969,240.06,513.7969,244.06,522.7969" style="stroke:#181818;stroke-width:1;stroke-linejoin:miter;stroke-miterlimit:10;"/></g><!--link Screens to SharedUi--><g class="link" data-entity-1="ent0006" data-entity-2="ent0007" data-link-type="dependency" data-source-line="36" id="lnk17"><path d="M177.12,601.9869 C177.12,623.9869 177.12,645.9769 177.12,666.5769" fill="none" id="Screens-to-SharedUi" style="stroke:#181818;stroke-width:1;"/><polygon fill="#181818" points="177.12,671.5769,181.12,662.5769,177.12,666.5769,173.12,662.5769,177.12,671.5769" style="stroke:#181818;stroke-width:1;stroke-linejoin:miter;stroke-miterlimit:10;"/></g><!--link Screens to SharedApi--><g class="link" data-entity-1="ent0006" data-entity-2="ent0008" data-link-type="dependency" data-source-line="37" id="lnk18"><path d="M318.81,601.9869 C318.81,618.6069 318.81,633.0769 318.81,650.4869" fill="none" id="Screens-to-SharedApi" style="stroke:#181818;stroke-width:1;"/><polygon fill="#181818" points="318.81,655.4869,322.81,646.4869,318.81,650.4869,314.81,646.4869,318.81,655.4869" style="stroke:#181818;stroke-width:1;stroke-linejoin:miter;stroke-miterlimit:10;"/></g><!--link SharedApi to AuthEndpoint--><g class="link" data-entity-1="ent0008" data-entity-2="ent0009" data-link-type="dependency" data-source-line="40" id="lnk19"><path d="M322.92,751.3869 C322.92,768.4269 322.92,782.5869 322.92,799.6169" fill="none" id="SharedApi-to-AuthEndpoint" style="stroke:#181818;stroke-width:1;"/><polygon fill="#181818" points="322.92,804.6169,326.92,795.6169,322.92,799.6169,318.92,795.6169,322.92,804.6169" style="stroke:#181818;stroke-width:1;stroke-linejoin:miter;stroke-miterlimit:10;"/><text fill="#000000" font-family="sans-serif" font-size="13" lengthAdjust="spacing" textLength="63.54" x="246.1485" y="759.0638">cold open</text><text fill="#000000" font-family="sans-serif" font-size="13" lengthAdjust="spacing" textLength="89.9971" x="232.92" y="774.1966">POST initData</text></g><!--link SharedApi to ApiRoutes--><g class="link" data-entity-1="ent0008" data-entity-2="ent0010" data-link-type="dependency" data-source-line="41" id="lnk20"><path d="M438.38,751.3869 C438.38,771.1469 438.38,788.7769 438.38,807.6069" fill="none" id="SharedApi-to-ApiRoutes" style="stroke:#181818;stroke-width:1;"/><polygon fill="#181818" points="438.38,812.6069,442.38,803.6069,438.38,807.6069,434.38,803.6069,438.38,812.6069" style="stroke:#181818;stroke-width:1;stroke-linejoin:miter;stroke-miterlimit:10;"/><text fill="#000000" font-family="sans-serif" font-size="13" lengthAdjust="spacing" textLength="88.8291" x="459.4957" y="763.0638">Bearer &lt;jwt&gt;</text><text fill="#000000" font-family="sans-serif" font-size="13" lengthAdjust="spacing" textLength="129.0605" x="439.38" y="778.1966">+ Idempotency-Key</text></g><!--link AuthEndpoint to Db--><g class="link" data-entity-1="ent0009" data-entity-2="ent0011" data-link-type="dependency" data-source-line="43" id="lnk21"><path d="M351.55,900.5869 C351.55,918.8869 351.55,933.9069 351.55,948.8369" fill="none" id="AuthEndpoint-to-Db" style="stroke:#181818;stroke-width:1;"/><polygon fill="#181818" points="351.55,953.8369,355.55,944.8369,351.55,948.8369,347.55,944.8369,351.55,953.8369" style="stroke:#181818;stroke-width:1;stroke-linejoin:miter;stroke-miterlimit:10;"/></g><!--link ApiRoutes to Db--><g class="link" data-entity-1="ent0010" data-entity-2="ent0011" data-link-type="dependency" data-source-line="44" id="lnk22"><path d="M411.07,852.7069 C399.66,852.7069 391.72,852.7069 391.72,852.7069 C391.72,852.7069 391.72,912.8569 391.72,948.7469" fill="none" id="ApiRoutes-to-Db" style="stroke:#181818;stroke-width:1;"/><polygon fill="#181818" points="391.72,953.7469,395.72,944.7469,391.72,948.7469,387.72,944.7469,391.72,953.7469" style="stroke:#181818;stroke-width:1;stroke-linejoin:miter;stroke-miterlimit:10;"/></g><?plantuml-src dLJDSjis4BxZANPygTqChRPn9gcdanb7JgVvSQA9dEPWTX88M8c8o0K2W69qooaFaCapv1LwxwFuIRe0ILLksaFB2yd5uiE7Rx_TQ6ADC8-jtiAPS_37xt29DQwyRE32aCd1wm-VONe2Jt63DTo6GsKRPmafXYCXle5d5fnKQxd2YQhR4D53vwLpwCCfIEzj1xLSO1qWLaX03ECXc0YMGCB2jgIbtnvd98r0ii40ilOecLHmMDTWsvWsmvk0VcCKXaaSM4w2LvCt43tYiGXhGqucxiH80HtSFjaBUadh5Bop7wmDOTmw1EjZPVSMGYMrxGojO2dhW28eoL8ryZtSlVSTT4R7IeXe7KJBbuZHDg2DHnMD9I6aYjR3mKicNDAXeM3uQgEqHmSW0wGreMhRQZZOYVuA5xyQx7B2y3tcJDDhMKkFC6En0-E6AADHC3r_raFck11NZJHq7CFxakRdJvYTZI5oINvBEHUy9gwuFfEIF0lBnU2gEsytJD67z1Cg5ZqdS_bdwvMu2ee5fi1RVeJXkwHBg-KsvVziLPitJYrnmLJal-iFNpB2lCzcY8gPwqbhKY8Niy7qKKd7Ds2mqJ9Wapt6yXQjwL7ovfTc1oETOJBF7TBPx16esh0TIxe5ZrzT_dNV5CYgpRaOB0qegIhS0pnpXjMQFPzVGaRSV3-HRQnsxYhfbukpQS6Cp78Bt0_nN4PPqlN7Jz0whb-4DYJIjtQCN-T0dz8OYl332LI9LgydepyaxIolYAlnp6zBIhmRetMD7HFZqZv0Vdlm-AvbL-cZeHpcHIePrrWpaOKC20Sp6-BAOyWEE5-abYmABaMj2ylwiCIaMRKrSlY_FYAP5FWfYlkZ7-6K-xabLPN45jU8hk0cMejilgzI5zpUt3U7MNfz9CQLb9MicC1F0JUoRcL4U3mV-3_eztN6fnOi_kSZnYFISOEP-rSV6jqvlFlOwBMlWzalcTwBbg9X2xFDbajkmJGZXocNHXiVchNlAiFLul78Syrs_t0DiGFkAUxvWsLHNCGCL58swUZ0l-yQRT6BELZdfxTTl9zQu9567jWHIMsB9xWLuiOf2O1TSmDZY0dYNUDmiyiKWdynF2_m-61DuXOaUyFwqviPhuqMI1eIfFWJ?></g></svg>
